<?xml version="1.0" standalone="no"?>
 <!DOCTYPE svg PUBLIC "-//W3C//DTD SVG 1.1//EN" 
 "http://www.w3.org/Graphics/SVG/1.1/DTD/svg11.dtd"> 
<svg xmlns="http://www.w3.org/2000/svg" version="1.1" 
    width="3.80238cm" height="7.88416cm" viewBox="0 0 14970 31040 ">
<title>SVG Picture created as reference-project-brd.svg date 2017/11/04 00:38:16 </title>
  <desc>Picture generated by PCBNEW </desc>
<g style="fill:#000000; fill-opacity:1;stroke:#000000; stroke-opacity:1;
stroke-linecap:round; stroke-linejoin:round; "
 transform="translate(0 0) scale(1 1)">
</g>
<g style="fill:#000000; fill-opacity:0.0; 
stroke:#000000; stroke-width:-0.000393701; stroke-opacity:1; 
stroke-linecap:round; stroke-linejoin:round;">
</g>
<g style="fill:#840000; fill-opacity:0.0; 
stroke:#840000; stroke-width:-0.000393701; stroke-opacity:1; 
stroke-linecap:round; stroke-linejoin:round;">
</g>
<g style="fill:#840000; fill-opacity:0.0; 
stroke:#840000; stroke-width:0; stroke-opacity:1; 
stroke-linecap:round; stroke-linejoin:round;">
</g>
<g style="fill:#840000; fill-opacity:1.0; 
stroke:#840000; stroke-width:0; stroke-opacity:1; 
stroke-linecap:round; stroke-linejoin:round;">
<polyline style="fill-rule:evenodd;"
points="12432,27420
12432,26908
12708,26908
12708,27420
12432,27420
" /> 
<polyline style="fill-rule:evenodd;"
points="11684,27420
11684,26908
11960,26908
11960,27420
11684,27420
" /> 
<polyline style="fill-rule:evenodd;"
points="8102,27420
8102,26908
8377,26908
8377,27420
8102,27420
" /> 
<polyline style="fill-rule:evenodd;"
points="7354,27420
7354,26908
7629,26908
7629,27420
7354,27420
" /> 
<polyline style="fill-rule:evenodd;"
points="10385,22995
10385,22483
10661,22483
10661,22995
10385,22995
" /> 
<polyline style="fill-rule:evenodd;"
points="9637,22995
9637,22483
9913,22483
9913,22995
9637,22995
" /> 
<polyline style="fill-rule:evenodd;"
points="13377,29487
13377,29881
12708,29881
12708,29487
13377,29487
" /> 
<polyline style="fill-rule:evenodd;"
points="10897,29487
10897,29881
10228,29881
10228,29487
10897,29487
" /> 
<polyline style="fill-rule:evenodd;"
points="13377,27991
13377,28384
12708,28384
12708,27991
13377,27991
" /> 
<polyline style="fill-rule:evenodd;"
points="10897,27991
10897,28384
10228,28384
10228,27991
10897,27991
" /> 
<polyline style="fill-rule:evenodd;"
points="6684,28384
6684,27991
7354,27991
7354,28384
6684,28384
" /> 
<polyline style="fill-rule:evenodd;"
points="9165,28384
9165,27991
9834,27991
9834,28384
9165,28384
" /> 
<polyline style="fill-rule:evenodd;"
points="6684,29881
6684,29487
7354,29487
7354,29881
6684,29881
" /> 
<polyline style="fill-rule:evenodd;"
points="9165,29881
9165,29487
9834,29487
9834,29881
9165,29881
" /> 
<polyline style="fill-rule:evenodd;"
points="9399,26564
9163,26564
9163,25953
9399,25953
9399,26564
" /> 
<polyline style="fill-rule:evenodd;"
points="9899,26564
9663,26564
9663,25953
9899,25953
9899,26564
" /> 
<polyline style="fill-rule:evenodd;"
points="10399,26564
10163,26564
10163,25953
10399,25953
10399,26564
" /> 
<polyline style="fill-rule:evenodd;"
points="10899,26564
10663,26564
10663,25953
10899,25953
10899,26564
" /> 
<polyline style="fill-rule:evenodd;"
points="10899,24438
10663,24438
10663,23827
10899,23827
10899,24438
" /> 
<polyline style="fill-rule:evenodd;"
points="10399,24438
10163,24438
10163,23827
10399,23827
10399,24438
" /> 
<polyline style="fill-rule:evenodd;"
points="9899,24438
9663,24438
9663,23827
9899,23827
9899,24438
" /> 
<polyline style="fill-rule:evenodd;"
points="9399,24438
9163,24438
9163,23827
9399,23827
9399,24438
" /> 
</g>
<g style="fill:#848400; fill-opacity:1.0; 
stroke:#848400; stroke-width:0; stroke-opacity:1; 
stroke-linecap:round; stroke-linejoin:round;">
<polyline style="fill-rule:evenodd;"
points="13696,21203
13710,21205
13724,21209
13738,21214
13752,21220
13764,21227
13776,21236
13787,21246
13797,21257
13806,21269
13813,21281
13819,21295
13824,21309
13828,21323
13830,21337
13831,21352
13831,21952
13830,21967
13828,21981
13824,21996
13819,22010
13813,22023
13806,22036
13797,22047
13787,22058
13776,22068
13764,22077
13752,22084
13738,22091
13724,22096
13710,22099
13696,22101
13681,22102
13381,22102
13366,22101
13352,22099
13337,22096
13323,22091
13310,22084
13297,22077
13286,22068
13275,22058
13265,22047
13256,22036
13249,22023
13242,22010
13237,21996
13234,21981
13232,21967
13231,21952
13231,21352
13232,21337
13234,21323
13237,21309
13242,21295
13249,21281
13256,21269
13265,21257
13275,21246
13286,21236
13297,21227
13310,21220
13323,21214
13337,21209
13352,21205
13366,21203
13381,21202
13681,21202
13696,21203
" /> 
<polyline style="fill-rule:evenodd;"
points="12696,21203
12710,21205
12724,21209
12738,21214
12752,21220
12764,21227
12776,21236
12787,21246
12797,21257
12806,21269
12813,21281
12819,21295
12824,21309
12828,21323
12830,21337
12831,21352
12831,21952
12830,21967
12828,21981
12824,21996
12819,22010
12813,22023
12806,22036
12797,22047
12787,22058
12776,22068
12764,22077
12752,22084
12738,22091
12724,22096
12710,22099
12696,22101
12681,22102
12381,22102
12366,22101
12352,22099
12337,22096
12323,22091
12310,22084
12297,22077
12286,22068
12275,22058
12265,22047
12256,22036
12249,22023
12242,22010
12237,21996
12234,21981
12232,21967
12231,21952
12231,21352
12232,21337
12234,21323
12237,21309
12242,21295
12249,21281
12256,21269
12265,21257
12275,21246
12286,21236
12297,21227
12310,21220
12323,21214
12337,21209
12352,21205
12366,21203
12381,21202
12681,21202
12696,21203
" /> 
<polyline style="fill-rule:evenodd;"
points="11696,21203
11710,21205
11724,21209
11738,21214
11752,21220
11764,21227
11776,21236
11787,21246
11797,21257
11806,21269
11813,21281
11819,21295
11824,21309
11828,21323
11830,21337
11831,21352
11831,21952
11830,21967
11828,21981
11824,21996
11819,22010
11813,22023
11806,22036
11797,22047
11787,22058
11776,22068
11764,22077
11752,22084
11738,22091
11724,22096
11710,22099
11696,22101
11681,22102
11381,22102
11366,22101
11352,22099
11337,22096
11323,22091
11310,22084
11297,22077
11286,22068
11275,22058
11265,22047
11256,22036
11249,22023
11242,22010
11237,21996
11234,21981
11232,21967
11231,21952
11231,21352
11232,21337
11234,21323
11237,21309
11242,21295
11249,21281
11256,21269
11265,21257
11275,21246
11286,21236
11297,21227
11310,21220
11323,21214
11337,21209
11352,21205
11366,21203
11381,21202
11681,21202
11696,21203
" /> 
<polyline style="fill-rule:evenodd;"
points="10696,21203
10710,21205
10724,21209
10738,21214
10752,21220
10764,21227
10776,21236
10787,21246
10797,21257
10806,21269
10813,21281
10819,21295
10824,21309
10828,21323
10830,21337
10831,21352
10831,21952
10830,21967
10828,21981
10824,21996
10819,22010
10813,22023
10806,22036
10797,22047
10787,22058
10776,22068
10764,22077
10752,22084
10738,22091
10724,22096
10710,22099
10696,22101
10681,22102
10381,22102
10366,22101
10352,22099
10337,22096
10323,22091
10310,22084
10297,22077
10286,22068
10275,22058
10265,22047
10256,22036
10249,22023
10242,22010
10237,21996
10234,21981
10232,21967
10231,21952
10231,21352
10232,21337
10234,21323
10237,21309
10242,21295
10249,21281
10256,21269
10265,21257
10275,21246
10286,21236
10297,21227
10310,21220
10323,21214
10337,21209
10352,21205
10366,21203
10381,21202
10681,21202
10696,21203
" /> 
<polyline style="fill-rule:evenodd;"
points="9696,21203
9710,21205
9724,21209
9738,21214
9752,21220
9764,21227
9776,21236
9787,21246
9797,21257
9806,21269
9813,21281
9819,21295
9824,21309
9828,21323
9830,21337
9831,21352
9831,21952
9830,21967
9828,21981
9824,21996
9819,22010
9813,22023
9806,22036
9797,22047
9787,22058
9776,22068
9764,22077
9752,22084
9738,22091
9724,22096
9710,22099
9696,22101
9681,22102
9381,22102
9366,22101
9352,22099
9337,22096
9323,22091
9310,22084
9297,22077
9286,22068
9275,22058
9265,22047
9256,22036
9249,22023
9242,22010
9237,21996
9234,21981
9232,21967
9231,21952
9231,21352
9232,21337
9234,21323
9237,21309
9242,21295
9249,21281
9256,21269
9265,21257
9275,21246
9286,21236
9297,21227
9310,21220
9323,21214
9337,21209
9352,21205
9366,21203
9381,21202
9681,21202
9696,21203
" /> 
<polyline style="fill-rule:evenodd;"
points="8696,21203
8710,21205
8724,21209
8738,21214
8752,21220
8764,21227
8776,21236
8787,21246
8797,21257
8806,21269
8813,21281
8819,21295
8824,21309
8828,21323
8830,21337
8831,21352
8831,21952
8830,21967
8828,21981
8824,21996
8819,22010
8813,22023
8806,22036
8797,22047
8787,22058
8776,22068
8764,22077
8752,22084
8738,22091
8724,22096
8710,22099
8696,22101
8681,22102
8381,22102
8366,22101
8352,22099
8337,22096
8323,22091
8310,22084
8297,22077
8286,22068
8275,22058
8265,22047
8256,22036
8249,22023
8242,22010
8237,21996
8234,21981
8232,21967
8231,21952
8231,21352
8232,21337
8234,21323
8237,21309
8242,21295
8249,21281
8256,21269
8265,21257
8275,21246
8286,21236
8297,21227
8310,21220
8323,21214
8337,21209
8352,21205
8366,21203
8381,21202
8681,21202
8696,21203
" /> 
<polyline style="fill-rule:evenodd;"
points="7831,21202
7831,22102
7231,22102
7231,21202
7831,21202
" /> 
<polyline style="fill-rule:evenodd;"
points="6831,21202
6831,22102
6231,22102
6231,21202
6831,21202
" /> 
</g>
<g style="fill:#840000; fill-opacity:1.0; 
stroke:#840000; stroke-width:0; stroke-opacity:1; 
stroke-linecap:round; stroke-linejoin:round;">
</g>
<g style="fill:#840000; fill-opacity:1.0; 
stroke:#840000; stroke-width:200; stroke-opacity:1; 
stroke-linecap:round; stroke-linejoin:round;">
</g>
<g style="fill:#840000; fill-opacity:0.0; 
stroke:#840000; stroke-width:200; stroke-opacity:1; 
stroke-linecap:round; stroke-linejoin:round;">
<path d="M12452 26258
L12606 26105
" />
<path d="M12606 26105
L14547 24164
" />
<path d="M12570 27164
L12570 27046
" />
<path d="M12570 27046
L12606 27010
" />
<path d="M12606 27010
L12606 26105
" />
<path d="M14165 29235
L14165 27703
" />
<path d="M10781 26258
L12452 26258
" />
<path d="M14547 24164
L14547 21093
" />
<path d="M14547 21093
L14192 20739
" />
<path d="M14192 20739
L8287 20739
" />
<path d="M14169 27699
L13649 27180
" />
<path d="M13649 27180
L12578 27180
" />
<path d="M10562 29684
L13043 29684
" />
<path d="M13043 29684
L13716 29684
" />
<path d="M13716 29684
L14161 29239
" />
<path d="M6531 21652
L6531 20999
" />
<path d="M8287 20739
L8531 20983
" />
<path d="M6531 20999
L6791 20739
" />
<path d="M6791 20739
L8287 20739
" />
<path d="M8531 20983
L8531 21652
" />
<path d="M10281 26258
L10281 26764
" />
<path d="M10681 27164
L11810 27164
" />
<path d="M10281 26764
L10681 27164
" />
<path d="M10281 26258
L10281 27009
" />
<path d="M10281 27009
L9499 27791
" />
<path d="M9499 27791
L9499 28188
" />
<path d="M8239 27164
L8239 28282
" />
<path d="M8239 28282
L8925 28967
" />
<path d="M8925 28967
L10216 28967
" />
<path d="M10216 28967
L10562 28621
" />
<path d="M10562 28621
L10562 28188
" />
<path d="M9781 26258
L9781 26764
" />
<path d="M9781 26764
L9380 27164
" />
<path d="M9380 27164
L8243 27164
" />
<path d="M8243 27164
L8220 27188
" />
<path d="M10562 28188
L13043 28188
" />
<path d="M9281 26258
L9281 25753
" />
<path d="M9281 25753
L9579 25455
" />
<path d="M9579 25455
L12066 25455
" />
<path d="M12066 25455
L13531 23991
" />
<path d="M13531 23991
L13531 22302
" />
<path d="M13531 22302
L13531 21652
" />
<path d="M10781 24132
L11043 24132
" />
<path d="M11043 24132
L11531 23644
" />
<path d="M11531 23644
L11531 22302
" />
<path d="M11531 22302
L11531 21652
" />
<path d="M10523 22739
L10527 22743
" />
<path d="M10527 22743
L10527 23109
" />
<path d="M10527 23109
L10281 23355
" />
<path d="M10281 23355
L10281 24132
" />
<path d="M10531 21652
L10531 22853
" />
<path d="M10523 21660
L10531 21652
" />
</g>
<g style="fill:#840000; fill-opacity:0.0; 
stroke:#840000; stroke-width:300; stroke-opacity:1; 
stroke-linecap:round; stroke-linejoin:round;">
<path d="M10566 21688
L10531 21652
" />
</g>
<g style="fill:#840000; fill-opacity:0.0; 
stroke:#840000; stroke-width:200; stroke-opacity:1; 
stroke-linecap:round; stroke-linejoin:round;">
<path d="M9781 24132
L9781 24638
" />
<path d="M9781 24638
L10059 24916
" />
<path d="M10059 24916
L11491 24916
" />
<path d="M12531 23877
L12531 22302
" />
<path d="M11491 24916
L12531 23877
" />
<path d="M12531 22302
L12531 21652
" />
<path d="M9531 21652
L9531 22211
" />
<path d="M9531 22211
L9791 22471
" />
<path d="M9791 22471
L9791 22723
" />
<path d="M9791 22723
L9775 22739
" />
</g>
<g style="fill:#840000; fill-opacity:0.0; 
stroke:#840000; stroke-width:300; stroke-opacity:1; 
stroke-linecap:round; stroke-linejoin:round;">
<path d="M9503 21680
L9531 21652
" />
</g>
<g style="fill:#840000; fill-opacity:0.0; 
stroke:#840000; stroke-width:200; stroke-opacity:1; 
stroke-linecap:round; stroke-linejoin:round;">
<path d="M7531 21652
L7531 23507
" />
<path d="M7531 23507
L8157 24132
" />
<path d="M8157 24132
L9281 24132
" />
<path d="M7491 27164
L7491 25944
" />
<path d="M7491 25944
L6956 25408
" />
<path d="M6956 25408
L6956 24003
" />
<path d="M6956 24003
L7531 23428
" />
<path d="M7531 23428
L7531 21652
" />
<path d="M7019 29684
L6306 29684
" />
<path d="M6306 29684
L5897 29274
" />
<path d="M5897 29274
L5897 27617
" />
<path d="M5897 27617
L6342 27172
" />
<path d="M6342 27172
L7484 27172
" />
<path d="M9281 24132
L9281 24320
" />
<path d="M7019 29684
L9499 29684
" />
<path d="M7531 21652
L7531 22613
" />
<path d="M9261 24152
L9281 24132
" />
<path d="M9265 24148
L9281 24132
" />
</g>
<g style="fill:#FFFFFF; fill-opacity:0.0; 
stroke:#FFFFFF; stroke-width:200; stroke-opacity:1; 
stroke-linecap:round; stroke-linejoin:round;">
</g>
<g style="fill:#FFFFFF; fill-opacity:1.0; 
stroke:#FFFFFF; stroke-width:0; stroke-opacity:1; 
stroke-linecap:round; stroke-linejoin:round;">
<circle cx="13531.3" cy="21652.7" r="177.165" /> 
</g>
<g style="fill:#FFFFFF; fill-opacity:1.0; 
stroke:#FFFFFF; stroke-width:39.3701; stroke-opacity:1; 
stroke-linecap:round; stroke-linejoin:round;">
</g>
<g style="fill:#FFFFFF; fill-opacity:1.0; 
stroke:#FFFFFF; stroke-width:0; stroke-opacity:1; 
stroke-linecap:round; stroke-linejoin:round;">
<circle cx="12531.3" cy="21652.7" r="177.165" /> 
</g>
<g style="fill:#FFFFFF; fill-opacity:1.0; 
stroke:#FFFFFF; stroke-width:39.3701; stroke-opacity:1; 
stroke-linecap:round; stroke-linejoin:round;">
</g>
<g style="fill:#FFFFFF; fill-opacity:1.0; 
stroke:#FFFFFF; stroke-width:0; stroke-opacity:1; 
stroke-linecap:round; stroke-linejoin:round;">
<circle cx="11531.3" cy="21652.7" r="177.165" /> 
</g>
<g style="fill:#FFFFFF; fill-opacity:1.0; 
stroke:#FFFFFF; stroke-width:39.3701; stroke-opacity:1; 
stroke-linecap:round; stroke-linejoin:round;">
</g>
<g style="fill:#FFFFFF; fill-opacity:1.0; 
stroke:#FFFFFF; stroke-width:0; stroke-opacity:1; 
stroke-linecap:round; stroke-linejoin:round;">
<circle cx="10531.3" cy="21652.7" r="177.165" /> 
</g>
<g style="fill:#FFFFFF; fill-opacity:1.0; 
stroke:#FFFFFF; stroke-width:39.3701; stroke-opacity:1; 
stroke-linecap:round; stroke-linejoin:round;">
</g>
<g style="fill:#FFFFFF; fill-opacity:1.0; 
stroke:#FFFFFF; stroke-width:0; stroke-opacity:1; 
stroke-linecap:round; stroke-linejoin:round;">
<circle cx="9531.3" cy="21652.7" r="177.165" /> 
</g>
<g style="fill:#FFFFFF; fill-opacity:1.0; 
stroke:#FFFFFF; stroke-width:39.3701; stroke-opacity:1; 
stroke-linecap:round; stroke-linejoin:round;">
</g>
<g style="fill:#FFFFFF; fill-opacity:1.0; 
stroke:#FFFFFF; stroke-width:0; stroke-opacity:1; 
stroke-linecap:round; stroke-linejoin:round;">
<circle cx="8531.3" cy="21652.7" r="177.165" /> 
</g>
<g style="fill:#FFFFFF; fill-opacity:1.0; 
stroke:#FFFFFF; stroke-width:39.3701; stroke-opacity:1; 
stroke-linecap:round; stroke-linejoin:round;">
</g>
<g style="fill:#FFFFFF; fill-opacity:1.0; 
stroke:#FFFFFF; stroke-width:0; stroke-opacity:1; 
stroke-linecap:round; stroke-linejoin:round;">
<circle cx="7531.3" cy="21652.7" r="177.165" /> 
</g>
<g style="fill:#FFFFFF; fill-opacity:1.0; 
stroke:#FFFFFF; stroke-width:39.3701; stroke-opacity:1; 
stroke-linecap:round; stroke-linejoin:round;">
</g>
<g style="fill:#FFFFFF; fill-opacity:1.0; 
stroke:#FFFFFF; stroke-width:0; stroke-opacity:1; 
stroke-linecap:round; stroke-linejoin:round;">
<circle cx="6531.3" cy="21652.7" r="177.165" /> 
</g>
<g style="fill:#FFFFFF; fill-opacity:1.0; 
stroke:#FFFFFF; stroke-width:39.3701; stroke-opacity:1; 
stroke-linecap:round; stroke-linejoin:round;">
</g>
<g style="fill:#000000; fill-opacity:1.0; 
stroke:#000000; stroke-width:39.3701; stroke-opacity:1; 
stroke-linecap:round; stroke-linejoin:round;">
</g>
<g style="fill:#840000; fill-opacity:1.0; 
stroke:#840000; stroke-width:39.3701; stroke-opacity:1; 
stroke-linecap:round; stroke-linejoin:round;">
</g>
<g style="fill:#840000; fill-opacity:1.0; 
stroke:#840000; stroke-width:0; stroke-opacity:1; 
stroke-linecap:round; stroke-linejoin:round;">
<polyline style="fill-rule:evenodd;"
points="12432,27420
12432,26908
12708,26908
12708,27420
12432,27420
" /> 
<polyline style="fill-rule:evenodd;"
points="11684,27420
11684,26908
11960,26908
11960,27420
11684,27420
" /> 
<polyline style="fill-rule:evenodd;"
points="8102,27420
8102,26908
8377,26908
8377,27420
8102,27420
" /> 
<polyline style="fill-rule:evenodd;"
points="7354,27420
7354,26908
7629,26908
7629,27420
7354,27420
" /> 
<polyline style="fill-rule:evenodd;"
points="10385,22995
10385,22483
10661,22483
10661,22995
10385,22995
" /> 
<polyline style="fill-rule:evenodd;"
points="9637,22995
9637,22483
9913,22483
9913,22995
9637,22995
" /> 
<polyline style="fill-rule:evenodd;"
points="13377,29487
13377,29881
12708,29881
12708,29487
13377,29487
" /> 
<polyline style="fill-rule:evenodd;"
points="10897,29487
10897,29881
10228,29881
10228,29487
10897,29487
" /> 
<polyline style="fill-rule:evenodd;"
points="13377,27991
13377,28384
12708,28384
12708,27991
13377,27991
" /> 
<polyline style="fill-rule:evenodd;"
points="10897,27991
10897,28384
10228,28384
10228,27991
10897,27991
" /> 
<polyline style="fill-rule:evenodd;"
points="6684,28384
6684,27991
7354,27991
7354,28384
6684,28384
" /> 
<polyline style="fill-rule:evenodd;"
points="9165,28384
9165,27991
9834,27991
9834,28384
9165,28384
" /> 
<polyline style="fill-rule:evenodd;"
points="6684,29881
6684,29487
7354,29487
7354,29881
6684,29881
" /> 
<polyline style="fill-rule:evenodd;"
points="9165,29881
9165,29487
9834,29487
9834,29881
9165,29881
" /> 
<polyline style="fill-rule:evenodd;"
points="9399,26564
9163,26564
9163,25953
9399,25953
9399,26564
" /> 
<polyline style="fill-rule:evenodd;"
points="9899,26564
9663,26564
9663,25953
9899,25953
9899,26564
" /> 
<polyline style="fill-rule:evenodd;"
points="10399,26564
10163,26564
10163,25953
10399,25953
10399,26564
" /> 
<polyline style="fill-rule:evenodd;"
points="10899,26564
10663,26564
10663,25953
10899,25953
10899,26564
" /> 
<polyline style="fill-rule:evenodd;"
points="10899,24438
10663,24438
10663,23827
10899,23827
10899,24438
" /> 
<polyline style="fill-rule:evenodd;"
points="10399,24438
10163,24438
10163,23827
10399,23827
10399,24438
" /> 
<polyline style="fill-rule:evenodd;"
points="9899,24438
9663,24438
9663,23827
9899,23827
9899,24438
" /> 
<polyline style="fill-rule:evenodd;"
points="9399,24438
9163,24438
9163,23827
9399,23827
9399,24438
" /> 
</g>
<g style="fill:#000000; fill-opacity:1.0; 
stroke:#000000; stroke-width:0; stroke-opacity:1; 
stroke-linecap:round; stroke-linejoin:round;">
</g>
<g style="fill:#008484; fill-opacity:1.0; 
stroke:#008484; stroke-width:0; stroke-opacity:1; 
stroke-linecap:round; stroke-linejoin:round;">
</g>
<g style="fill:#008484; fill-opacity:1.0; 
stroke:#008484; stroke-width:47.2441; stroke-opacity:1; 
stroke-linecap:round; stroke-linejoin:round;">
</g>
<g style="fill:#008484; fill-opacity:0.0; 
stroke:#008484; stroke-width:47.2441; stroke-opacity:1; 
stroke-linecap:round; stroke-linejoin:round;">
<path d="M11960 26818
L12432 26818
" />
<path d="M12432 27510
L11960 27510
" />
<path d="M7629 26818
L8102 26818
" />
<path d="M8102 27510
L7629 27510
" />
<path d="M9913 22392
L10385 22392
" />
<path d="M10385 23085
L9913 23085
" />
<path d="M12472 28030
L12295 27853
" />
<path d="M11133 28030
L11310 27853
" />
<path d="M11133 29841
L11310 30018
" />
<path d="M12472 29841
L12295 30018
" />
<path d="M10720 29329
L10720 28542
" />
<path d="M12295 27853
L11310 27853
" />
<path d="M12885 29329
L12885 28542
" />
<path d="M12295 30018
L11310 30018
" />
<path d="M7590 29841
L7767 30018
" />
<path d="M8928 29841
L8751 30018
" />
<path d="M8928 28030
L8751 27853
" />
<path d="M7590 28030
L7767 27853
" />
<path d="M9342 28542
L9342 29329
" />
<path d="M7767 30018
L8751 30018
" />
<path d="M7176 28542
L7176 29329
" />
<path d="M7767 27853
L8751 27853
" />
</g>
<g style="fill:#008484; fill-opacity:0.0; 
stroke:#008484; stroke-width:59.0551; stroke-opacity:1; 
stroke-linecap:round; stroke-linejoin:round;">
<path d="M9017 26012
L9037 26012
" />
<path d="M9017 24379
L9074 24379
" />
<path d="M11045 24379
L10987 24379
" />
<path d="M11045 26012
L10987 26012
" />
<path d="M9017 26012
L9017 24379
" />
<path d="M11045 26012
L11045 24379
" />
<path d="M9037 26012
L9037 26564
" />
</g>
<g style="fill:#008484; fill-opacity:0.0; 
stroke:#008484; stroke-width:137.795; stroke-opacity:1; 
stroke-linecap:round; stroke-linejoin:round;">
<path d="M14281 22402
L5781 22402
" />
<path d="M5781 22402
L5781 20902
" />
<path d="M5781 20902
L14281 20902
" />
<path d="M14281 20902
L14281 22402
" />
<path d="M13031 22402
L13031 20902
" />
</g>
<g style="fill:#008484; fill-opacity:0.0; 
stroke:#008484; stroke-width:59.0551; stroke-opacity:1; 
stroke-linecap:round; stroke-linejoin:round;">
<path d="M14281 20652
L13031 20652
" />
</g>
<g style="fill:#848484; fill-opacity:0.0; 
stroke:#848484; stroke-width:59.0551; stroke-opacity:1; 
stroke-linecap:round; stroke-linejoin:round;">
<path d="M12131 26692
L11999 26505
" />
<path d="M11906 26692
L11906 26299
L12056 26299
L12093 26318
L12112 26336
L12131 26374
L12131 26430
L12112 26468
L12093 26486
L12056 26505
L11906 26505
" />
<path d="M12281 26336
L12299 26318
L12337 26299
L12430 26299
L12468 26318
L12487 26336
L12505 26374
L12505 26411
L12487 26468
L12262 26692
L12505 26692
" />
<path d="M7800 26692
L7669 26505
" />
<path d="M7575 26692
L7575 26299
L7725 26299
L7762 26318
L7781 26336
L7800 26374
L7800 26430
L7781 26468
L7762 26486
L7725 26505
L7575 26505
" />
<path d="M8175 26692
L7950 26692
" />
<path d="M8062 26692
L8062 26299
L8025 26355
L7987 26393
L7950 26411
" />
<path d="M10083 22267
L9952 22080
" />
<path d="M9858 22267
L9858 21874
L10008 21874
L10046 21892
L10065 21911
L10083 21949
L10083 22005
L10065 22042
L10046 22061
L10008 22080
L9858 22080
" />
<path d="M10215 21874
L10458 21874
L10327 22024
L10383 22024
L10421 22042
L10439 22061
L10458 22099
L10458 22192
L10439 22230
L10421 22249
L10383 22267
L10271 22267
L10233 22249
L10215 22230
" />
<path d="M11297 29123
L11353 29141
L11447 29141
L11485 29123
L11503 29104
L11522 29066
L11522 29029
L11503 28991
L11485 28973
L11447 28954
L11372 28935
L11335 28916
L11316 28898
L11297 28860
L11297 28823
L11316 28785
L11335 28766
L11372 28748
L11466 28748
L11522 28766
" />
<path d="M11653 28748
L11747 29141
L11822 28860
L11897 29141
L11991 28748
" />
<path d="M12347 29141
L12122 29141
" />
<path d="M12235 29141
L12235 28748
L12197 28804
L12160 28841
L12122 28860
" />
<path d="M7825 29182
L7881 29200
L7975 29200
L8012 29182
L8031 29163
L8050 29125
L8050 29088
L8031 29050
L8012 29032
L7975 29013
L7900 28994
L7862 28975
L7844 28957
L7825 28919
L7825 28882
L7844 28844
L7862 28825
L7900 28807
L7993 28807
L8050 28825
" />
<path d="M8181 28807
L8275 29200
L8350 28919
L8425 29200
L8518 28807
" />
<path d="M8650 28844
L8668 28825
L8706 28807
L8800 28807
L8837 28825
L8856 28844
L8875 28882
L8875 28919
L8856 28975
L8631 29200
L8875 29200
" />
<path d="M8437 25495
L8756 25495
L8793 25477
L8812 25458
L8831 25420
L8831 25345
L8812 25308
L8793 25289
L8756 25270
L8437 25270
" />
<path d="M8831 24877
L8831 25102
" />
<path d="M8831 24989
L8437 24989
L8493 25027
L8531 25064
L8550 25102
" />
<path d="M9926 21480
L9926 21705
L9911 21750
L9881 21780
L9836 21795
L9806 21795
" />
<path d="M10241 21795
L10061 21795
" />
<path d="M10151 21795
L10151 21480
L10121 21525
L10091 21555
L10061 21570
" />
</g>
<g style="fill:#000000; fill-opacity:0.0; 
stroke:#000000; stroke-width:59.0551; stroke-opacity:1; 
stroke-linecap:round; stroke-linejoin:round;">
</g>
<g style="fill:#C2C200; fill-opacity:0.0; 
stroke:#C2C200; stroke-width:59.0551; stroke-opacity:1; 
stroke-linecap:round; stroke-linejoin:round;">
</g>
<g style="fill:#C2C200; fill-opacity:0.0; 
stroke:#C2C200; stroke-width:39.3701; stroke-opacity:1; 
stroke-linecap:round; stroke-linejoin:round;">
<path d="M5110 30235
L5110 20392
" />
<path d="M14952 30235
L5110 30235
" />
<path d="M14952 20392
L14952 30235
" />
<path d="M5110 20392
L14952 20392
" />
</g> 
</svg>
