<?xml version="1.0" standalone="no"?>
 <!DOCTYPE svg PUBLIC "-//W3C//DTD SVG 1.1//EN" 
 "http://www.w3.org/Graphics/SVG/1.1/DTD/svg11.dtd"> 
<svg xmlns="http://www.w3.org/2000/svg" version="1.1" 
    width="3.937cm" height="7.80542cm" viewBox="0 0 15500 30730 ">
<title>SVG Picture created as reference-project-brd.svg date 2017/11/01 00:44:30 </title>
  <desc>Picture generated by PCBNEW </desc>
<g style="fill:#000000; fill-opacity:1;stroke:#000000; stroke-opacity:1;
stroke-linecap:round; stroke-linejoin:round; "
 transform="translate(0 0) scale(1 1)">
</g>
<g style="fill:#000000; fill-opacity:0.0; 
stroke:#000000; stroke-width:-0.000393701; stroke-opacity:1; 
stroke-linecap:round; stroke-linejoin:round;">
</g>
<g style="fill:#840000; fill-opacity:0.0; 
stroke:#840000; stroke-width:-0.000393701; stroke-opacity:1; 
stroke-linecap:round; stroke-linejoin:round;">
</g>
<g style="fill:#840000; fill-opacity:0.0; 
stroke:#840000; stroke-width:0; stroke-opacity:1; 
stroke-linecap:round; stroke-linejoin:round;">
</g>
<g style="fill:#840000; fill-opacity:1.0; 
stroke:#840000; stroke-width:0; stroke-opacity:1; 
stroke-linecap:round; stroke-linejoin:round;">
<polyline style="fill-rule:evenodd;"
points="10495,26318
10495,25924
11165,25924
11165,26318
10495,26318
" /> 
<polyline style="fill-rule:evenodd;"
points="12976,26318
12976,25924
13645,25924
13645,26318
12976,26318
" /> 
<polyline style="fill-rule:evenodd;"
points="10495,27814
10495,27420
11165,27420
11165,27814
10495,27814
" /> 
<polyline style="fill-rule:evenodd;"
points="12976,27814
12976,27420
13645,27420
13645,27814
12976,27814
" /> 
<polyline style="fill-rule:evenodd;"
points="10086,27420
10086,27814
9417,27814
9417,27420
10086,27420
" /> 
<polyline style="fill-rule:evenodd;"
points="7606,27420
7606,27814
6936,27814
6936,27420
7606,27420
" /> 
<polyline style="fill-rule:evenodd;"
points="10086,25924
10086,26318
9417,26318
9417,25924
10086,25924
" /> 
<polyline style="fill-rule:evenodd;"
points="7606,25924
7606,26318
6936,26318
6936,25924
7606,25924
" /> 
<polyline style="fill-rule:evenodd;"
points="12117,25255
12117,24743
12393,24743
12393,25255
12117,25255
" /> 
<polyline style="fill-rule:evenodd;"
points="12865,25255
12865,24743
13141,24743
13141,25255
12865,25255
" /> 
<polyline style="fill-rule:evenodd;"
points="6267,23758
6267,23247
6543,23247
6543,23758
6267,23758
" /> 
<polyline style="fill-rule:evenodd;"
points="7015,23758
7015,23247
7291,23247
7291,23758
7015,23758
" /> 
</g>
<g style="fill:#848400; fill-opacity:1.0; 
stroke:#848400; stroke-width:0; stroke-opacity:1; 
stroke-linecap:round; stroke-linejoin:round;">
<polyline style="fill-rule:evenodd;"
points="10058,25487
9271,25487
9271,24503
10058,24503
10058,25487
" /> 
</g>
<g style="fill:#848400; fill-opacity:1.0; 
stroke:#848400; stroke-width:787.402; stroke-opacity:1; 
stroke-linecap:round; stroke-linejoin:round;">
</g>
<g style="fill:#848400; fill-opacity:0.0; 
stroke:#848400; stroke-width:787.402; stroke-opacity:1; 
stroke-linecap:round; stroke-linejoin:round;">
<path d="M6665 22093
L6665 21896
" />
<path d="M8665 25093
L8665 24896
" />
<path d="M7665 22093
L7665 21896
" />
<path d="M7665 25093
L7665 24896
" />
<path d="M8665 22093
L8665 21896
" />
<path d="M6665 25093
L6665 24896
" />
<path d="M9665 22093
L9665 21896
" />
</g>
<g style="fill:#848400; fill-opacity:0.0; 
stroke:#848400; stroke-width:0; stroke-opacity:1; 
stroke-linecap:round; stroke-linejoin:round;">
</g>
<g style="fill:#848400; fill-opacity:1.0; 
stroke:#848400; stroke-width:0; stroke-opacity:1; 
stroke-linecap:round; stroke-linejoin:round;">
<polyline style="fill-rule:evenodd;"
points="10641,25491
10641,24507
11625,24507
11625,25491
10641,25491
" /> 
</g>
<g style="fill:#848400; fill-opacity:1.0; 
stroke:#848400; stroke-width:787.402; stroke-opacity:1; 
stroke-linecap:round; stroke-linejoin:round;">
</g>
<g style="fill:#848400; fill-opacity:0.0; 
stroke:#848400; stroke-width:787.402; stroke-opacity:1; 
stroke-linecap:round; stroke-linejoin:round;">
<path d="M14125 24900
L14125 25097
" />
</g>
<g style="fill:#848400; fill-opacity:0.0; 
stroke:#848400; stroke-width:0; stroke-opacity:1; 
stroke-linecap:round; stroke-linejoin:round;">
</g>
<g style="fill:#848400; fill-opacity:1.0; 
stroke:#848400; stroke-width:0; stroke-opacity:1; 
stroke-linecap:round; stroke-linejoin:round;">
<polyline style="fill-rule:evenodd;"
points="11791,28755
11791,29739
10806,29739
10806,28755
11791,28755
" /> 
</g>
<g style="fill:#848400; fill-opacity:1.0; 
stroke:#848400; stroke-width:787.402; stroke-opacity:1; 
stroke-linecap:round; stroke-linejoin:round;">
</g>
<g style="fill:#848400; fill-opacity:0.0; 
stroke:#848400; stroke-width:787.402; stroke-opacity:1; 
stroke-linecap:round; stroke-linejoin:round;">
<path d="M9299 29345
L9299 29148
" />
</g>
<g style="fill:#840000; fill-opacity:0.0; 
stroke:#840000; stroke-width:787.402; stroke-opacity:1; 
stroke-linecap:round; stroke-linejoin:round;">
</g>
<g style="fill:#840000; fill-opacity:0.0; 
stroke:#840000; stroke-width:0; stroke-opacity:1; 
stroke-linecap:round; stroke-linejoin:round;">
</g>
<g style="fill:#840000; fill-opacity:1.0; 
stroke:#840000; stroke-width:0; stroke-opacity:1; 
stroke-linecap:round; stroke-linejoin:round;">
<polyline style="fill-rule:evenodd;"
points="10011,23247
10011,23758
9736,23758
9736,23247
10011,23247
" /> 
<polyline style="fill-rule:evenodd;"
points="9263,23247
9263,23758
8987,23758
8987,23247
9263,23247
" /> 
</g>
<g style="fill:#840000; fill-opacity:1.0; 
stroke:#840000; stroke-width:250; stroke-opacity:1; 
stroke-linecap:round; stroke-linejoin:round;">
</g>
<g style="fill:#840000; fill-opacity:0.0; 
stroke:#840000; stroke-width:250; stroke-opacity:1; 
stroke-linecap:round; stroke-linejoin:round;">
<path d="M14125 24999
L14125 26275
" />
<path d="M14125 26275
L13413 26987
" />
<path d="M13413 26987
L10519 26987
" />
<path d="M10519 26987
L9889 27617
" />
<path d="M9889 27617
L9751 27617
" />
<path d="M9751 27617
L9751 28794
" />
<path d="M9751 28794
L9299 29247
" />
<path d="M14125 24967
L14165 25007
" />
<path d="M13023 24999
L14125 24999
" />
<path d="M6665 24995
L6275 25384
" />
<path d="M6275 25384
L6275 26983
" />
<path d="M6275 26983
L6909 27617
" />
<path d="M6909 27617
L7271 27617
" />
<path d="M7271 27617
L9751 27617
" />
<path d="M10830 27617
L10830 28778
" />
<path d="M10830 28778
L11299 29247
" />
<path d="M5547 28227
L5547 22707
" />
<path d="M5547 22707
L5547 21538
" />
<path d="M6405 23503
L6017 23503
" />
<path d="M6017 23503
L5547 23032
" />
<path d="M5547 23032
L5547 22707
" />
<path d="M11299 29247
L11299 29989
" />
<path d="M11299 29989
L11009 30278
" />
<path d="M11009 30278
L7598 30278
" />
<path d="M6373 20711
L8972 20711
" />
<path d="M7598 30278
L5547 28227
" />
<path d="M8972 20711
L9665 21404
" />
<path d="M9665 21404
L9665 21995
" />
<path d="M5547 21538
L6373 20711
" />
<path d="M13310 27609
L13310 27617
" />
<path d="M10830 27617
L13310 27617
" />
<path d="M7665 24995
L7665 25491
" />
<path d="M7665 25491
L9092 26918
" />
<path d="M9092 26918
L9895 26918
" />
<path d="M9895 26918
L10692 26121
" />
<path d="M10692 26121
L10830 26121
" />
<path d="M12255 24999
L12255 25412
" />
<path d="M12255 25412
L12964 26121
" />
<path d="M12964 26121
L13310 26121
" />
<path d="M10830 26121
L12944 26121
" />
<path d="M12944 26121
L13310 26121
" />
<path d="M9873 23503
L10385 23503
" />
<path d="M10385 23503
L11133 24251
" />
<path d="M11133 24251
L11133 24967
" />
<path d="M7153 23503
L7487 23503
" />
<path d="M7487 23503
L8665 24680
" />
<path d="M8665 24680
L8665 24995
" />
<path d="M8665 24995
L8665 25737
" />
<path d="M9049 26121
L9167 26121
" />
<path d="M8665 25737
L9049 26121
" />
<path d="M9167 26121
L9751 26121
" />
<path d="M7665 21995
L7665 22475
" />
<path d="M7665 22475
L8692 23503
" />
<path d="M8692 23503
L9125 23503
" />
<path d="M7665 21995
L7665 21896
" />
</g>
<g style="fill:#FFFFFF; fill-opacity:0.0; 
stroke:#FFFFFF; stroke-width:250; stroke-opacity:1; 
stroke-linecap:round; stroke-linejoin:round;">
</g>
<g style="fill:#FFFFFF; fill-opacity:1.0; 
stroke:#FFFFFF; stroke-width:0; stroke-opacity:1; 
stroke-linecap:round; stroke-linejoin:round;">
<circle cx="9665.16" cy="24995.2" r="177.165" /> 
</g>
<g style="fill:#FFFFFF; fill-opacity:1.0; 
stroke:#FFFFFF; stroke-width:39.3701; stroke-opacity:1; 
stroke-linecap:round; stroke-linejoin:round;">
</g>
<g style="fill:#FFFFFF; fill-opacity:1.0; 
stroke:#FFFFFF; stroke-width:0; stroke-opacity:1; 
stroke-linecap:round; stroke-linejoin:round;">
<circle cx="6665.16" cy="21995.2" r="177.165" /> 
</g>
<g style="fill:#FFFFFF; fill-opacity:1.0; 
stroke:#FFFFFF; stroke-width:39.3701; stroke-opacity:1; 
stroke-linecap:round; stroke-linejoin:round;">
</g>
<g style="fill:#FFFFFF; fill-opacity:1.0; 
stroke:#FFFFFF; stroke-width:0; stroke-opacity:1; 
stroke-linecap:round; stroke-linejoin:round;">
<circle cx="8665.16" cy="24995.2" r="177.165" /> 
</g>
<g style="fill:#FFFFFF; fill-opacity:1.0; 
stroke:#FFFFFF; stroke-width:39.3701; stroke-opacity:1; 
stroke-linecap:round; stroke-linejoin:round;">
</g>
<g style="fill:#FFFFFF; fill-opacity:1.0; 
stroke:#FFFFFF; stroke-width:0; stroke-opacity:1; 
stroke-linecap:round; stroke-linejoin:round;">
<circle cx="7665.16" cy="21995.2" r="177.165" /> 
</g>
<g style="fill:#FFFFFF; fill-opacity:1.0; 
stroke:#FFFFFF; stroke-width:39.3701; stroke-opacity:1; 
stroke-linecap:round; stroke-linejoin:round;">
</g>
<g style="fill:#FFFFFF; fill-opacity:1.0; 
stroke:#FFFFFF; stroke-width:0; stroke-opacity:1; 
stroke-linecap:round; stroke-linejoin:round;">
<circle cx="7665.16" cy="24995.2" r="177.165" /> 
</g>
<g style="fill:#FFFFFF; fill-opacity:1.0; 
stroke:#FFFFFF; stroke-width:39.3701; stroke-opacity:1; 
stroke-linecap:round; stroke-linejoin:round;">
</g>
<g style="fill:#FFFFFF; fill-opacity:1.0; 
stroke:#FFFFFF; stroke-width:0; stroke-opacity:1; 
stroke-linecap:round; stroke-linejoin:round;">
<circle cx="8665.16" cy="21995.2" r="177.165" /> 
</g>
<g style="fill:#FFFFFF; fill-opacity:1.0; 
stroke:#FFFFFF; stroke-width:39.3701; stroke-opacity:1; 
stroke-linecap:round; stroke-linejoin:round;">
</g>
<g style="fill:#FFFFFF; fill-opacity:1.0; 
stroke:#FFFFFF; stroke-width:0; stroke-opacity:1; 
stroke-linecap:round; stroke-linejoin:round;">
<circle cx="6665.16" cy="24995.2" r="177.165" /> 
</g>
<g style="fill:#FFFFFF; fill-opacity:1.0; 
stroke:#FFFFFF; stroke-width:39.3701; stroke-opacity:1; 
stroke-linecap:round; stroke-linejoin:round;">
</g>
<g style="fill:#FFFFFF; fill-opacity:1.0; 
stroke:#FFFFFF; stroke-width:0; stroke-opacity:1; 
stroke-linecap:round; stroke-linejoin:round;">
<circle cx="9665.16" cy="21995.2" r="177.165" /> 
</g>
<g style="fill:#FFFFFF; fill-opacity:1.0; 
stroke:#FFFFFF; stroke-width:39.3701; stroke-opacity:1; 
stroke-linecap:round; stroke-linejoin:round;">
</g>
<g style="fill:#FFFFFF; fill-opacity:1.0; 
stroke:#FFFFFF; stroke-width:0; stroke-opacity:1; 
stroke-linecap:round; stroke-linejoin:round;">
<circle cx="11133.7" cy="24999.1" r="177.165" /> 
</g>
<g style="fill:#FFFFFF; fill-opacity:1.0; 
stroke:#FFFFFF; stroke-width:39.3701; stroke-opacity:1; 
stroke-linecap:round; stroke-linejoin:round;">
</g>
<g style="fill:#FFFFFF; fill-opacity:1.0; 
stroke:#FFFFFF; stroke-width:0; stroke-opacity:1; 
stroke-linecap:round; stroke-linejoin:round;">
<circle cx="14125.8" cy="24999.1" r="177.165" /> 
</g>
<g style="fill:#FFFFFF; fill-opacity:1.0; 
stroke:#FFFFFF; stroke-width:39.3701; stroke-opacity:1; 
stroke-linecap:round; stroke-linejoin:round;">
</g>
<g style="fill:#FFFFFF; fill-opacity:1.0; 
stroke:#FFFFFF; stroke-width:0; stroke-opacity:1; 
stroke-linecap:round; stroke-linejoin:round;">
<circle cx="11299" cy="29247.2" r="177.165" /> 
</g>
<g style="fill:#FFFFFF; fill-opacity:1.0; 
stroke:#FFFFFF; stroke-width:39.3701; stroke-opacity:1; 
stroke-linecap:round; stroke-linejoin:round;">
</g>
<g style="fill:#FFFFFF; fill-opacity:1.0; 
stroke:#FFFFFF; stroke-width:0; stroke-opacity:1; 
stroke-linecap:round; stroke-linejoin:round;">
<circle cx="9299.02" cy="29247.2" r="177.165" /> 
</g>
<g style="fill:#FFFFFF; fill-opacity:1.0; 
stroke:#FFFFFF; stroke-width:39.3701; stroke-opacity:1; 
stroke-linecap:round; stroke-linejoin:round;">
</g>
<g style="fill:#000000; fill-opacity:1.0; 
stroke:#000000; stroke-width:39.3701; stroke-opacity:1; 
stroke-linecap:round; stroke-linejoin:round;">
</g>
<g style="fill:#840000; fill-opacity:1.0; 
stroke:#840000; stroke-width:39.3701; stroke-opacity:1; 
stroke-linecap:round; stroke-linejoin:round;">
</g>
<g style="fill:#840000; fill-opacity:1.0; 
stroke:#840000; stroke-width:0; stroke-opacity:1; 
stroke-linecap:round; stroke-linejoin:round;">
<polyline style="fill-rule:evenodd;"
points="10495,26318
10495,25924
11165,25924
11165,26318
10495,26318
" /> 
<polyline style="fill-rule:evenodd;"
points="12976,26318
12976,25924
13645,25924
13645,26318
12976,26318
" /> 
<polyline style="fill-rule:evenodd;"
points="10495,27814
10495,27420
11165,27420
11165,27814
10495,27814
" /> 
<polyline style="fill-rule:evenodd;"
points="12976,27814
12976,27420
13645,27420
13645,27814
12976,27814
" /> 
<polyline style="fill-rule:evenodd;"
points="10086,27420
10086,27814
9417,27814
9417,27420
10086,27420
" /> 
<polyline style="fill-rule:evenodd;"
points="7606,27420
7606,27814
6936,27814
6936,27420
7606,27420
" /> 
<polyline style="fill-rule:evenodd;"
points="10086,25924
10086,26318
9417,26318
9417,25924
10086,25924
" /> 
<polyline style="fill-rule:evenodd;"
points="7606,25924
7606,26318
6936,26318
6936,25924
7606,25924
" /> 
<polyline style="fill-rule:evenodd;"
points="12117,25255
12117,24743
12393,24743
12393,25255
12117,25255
" /> 
<polyline style="fill-rule:evenodd;"
points="12865,25255
12865,24743
13141,24743
13141,25255
12865,25255
" /> 
<polyline style="fill-rule:evenodd;"
points="6267,23758
6267,23247
6543,23247
6543,23758
6267,23758
" /> 
<polyline style="fill-rule:evenodd;"
points="7015,23758
7015,23247
7291,23247
7291,23758
7015,23758
" /> 
<polyline style="fill-rule:evenodd;"
points="10011,23247
10011,23758
9736,23758
9736,23247
10011,23247
" /> 
<polyline style="fill-rule:evenodd;"
points="9263,23247
9263,23758
8987,23758
8987,23247
9263,23247
" /> 
</g>
<g style="fill:#000000; fill-opacity:1.0; 
stroke:#000000; stroke-width:0; stroke-opacity:1; 
stroke-linecap:round; stroke-linejoin:round;">
</g>
<g style="fill:#008484; fill-opacity:1.0; 
stroke:#008484; stroke-width:0; stroke-opacity:1; 
stroke-linecap:round; stroke-linejoin:round;">
</g>
<g style="fill:#008484; fill-opacity:1.0; 
stroke:#008484; stroke-width:47.2441; stroke-opacity:1; 
stroke-linecap:round; stroke-linejoin:round;">
</g>
<g style="fill:#008484; fill-opacity:0.0; 
stroke:#008484; stroke-width:47.2441; stroke-opacity:1; 
stroke-linecap:round; stroke-linejoin:round;">
<path d="M11401 27774
L11578 27951
" />
<path d="M12739 27774
L12562 27951
" />
<path d="M12739 25963
L12562 25786
" />
<path d="M11401 25963
L11578 25786
" />
<path d="M13153 26475
L13153 27262
" />
<path d="M11578 27951
L12562 27951
" />
<path d="M10987 26475
L10987 27262
" />
<path d="M11578 25786
L12562 25786
" />
<path d="M9180 25963
L9003 25786
" />
<path d="M7842 25963
L8019 25786
" />
<path d="M7842 27774
L8019 27951
" />
<path d="M9180 27774
L9003 27951
" />
<path d="M7428 27262
L7428 26475
" />
<path d="M9003 25786
L8019 25786
" />
<path d="M9594 27262
L9594 26475
" />
<path d="M9003 27951
L8019 27951
" />
<path d="M12865 25345
L12393 25345
" />
<path d="M12393 24652
L12865 24652
" />
<path d="M7015 23849
L6543 23849
" />
<path d="M6543 23156
L7015 23156
" />
<path d="M8299 27953
L8299 30497
" />
<path d="M8299 30497
L12299 30497
" />
<path d="M12299 30497
L12299 27953
" />
<path d="M12299 27953
L8299 27953
" />
<path d="M9263 23156
L9736 23156
" />
<path d="M9736 23849
L9263 23849
" />
</g>
<g style="fill:#848484; fill-opacity:0.0; 
stroke:#848484; stroke-width:47.2441; stroke-opacity:1; 
stroke-linecap:round; stroke-linejoin:round;">
</g>
<g style="fill:#848484; fill-opacity:0.0; 
stroke:#848484; stroke-width:59.0551; stroke-opacity:1; 
stroke-linecap:round; stroke-linejoin:round;">
<path d="M11636 27115
L11692 27133
L11786 27133
L11823 27115
L11842 27096
L11861 27058
L11861 27021
L11842 26983
L11823 26965
L11786 26946
L11711 26927
L11673 26908
L11655 26890
L11636 26852
L11636 26815
L11655 26777
L11673 26758
L11711 26740
L11805 26740
L11861 26758
" />
<path d="M11992 26740
L12086 27133
L12161 26852
L12236 27133
L12329 26740
" />
<path d="M12461 26777
L12479 26758
L12517 26740
L12611 26740
L12648 26758
L12667 26777
L12686 26815
L12686 26852
L12667 26908
L12442 27133
L12686 27133
" />
<path d="M8006 27056
L8062 27074
L8156 27074
L8193 27056
L8212 27037
L8231 26999
L8231 26962
L8212 26924
L8193 26906
L8156 26887
L8081 26868
L8043 26849
L8025 26831
L8006 26793
L8006 26756
L8025 26718
L8043 26699
L8081 26681
L8175 26681
L8231 26699
" />
<path d="M8362 26681
L8456 27074
L8531 26793
L8606 27074
L8700 26681
" />
<path d="M9056 27074
L8831 27074
" />
<path d="M8943 27074
L8943 26681
L8906 26737
L8868 26774
L8831 26793
" />
<path d="M12564 24527
L12432 24340
" />
<path d="M12339 24527
L12339 24133
L12489 24133
L12526 24152
L12545 24171
L12564 24208
L12564 24265
L12545 24302
L12526 24321
L12489 24340
L12339 24340
" />
<path d="M12714 24171
L12732 24152
L12770 24133
L12864 24133
L12901 24152
L12920 24171
L12939 24208
L12939 24246
L12920 24302
L12695 24527
L12939 24527
" />
<path d="M6713 23031
L6582 22844
" />
<path d="M6488 23031
L6488 22637
L6638 22637
L6676 22656
L6694 22675
L6713 22712
L6713 22769
L6694 22806
L6676 22825
L6638 22844
L6488 22844
" />
<path d="M7088 23031
L6863 23031
" />
<path d="M6976 23031
L6976 22637
L6938 22694
L6901 22731
L6863 22750
" />
<path d="M9889 29969
L9945 29987
L9964 30006
L9983 30044
L9983 30100
L9964 30137
L9945 30156
L9908 30175
L9758 30175
L9758 29781
L9889 29781
L9927 29800
L9945 29819
L9964 29856
L9964 29894
L9945 29931
L9927 29950
L9889 29969
L9758 29969
" />
<path d="M10095 29781
L10320 29781
" />
<path d="M10208 30175
L10208 29781
" />
<path d="M10658 30175
L10433 30175
" />
<path d="M10545 30175
L10545 29781
L10508 29837
L10470 29875
L10433 29894
" />
<path d="M9434 24330
L9302 24143
" />
<path d="M9209 24330
L9209 23937
L9359 23937
L9396 23955
L9415 23974
L9434 24012
L9434 24068
L9415 24105
L9396 24124
L9359 24143
L9209 24143
" />
<path d="M9565 23937
L9809 23937
L9677 24087
L9734 24087
L9771 24105
L9790 24124
L9809 24162
L9809 24255
L9790 24293
L9771 24312
L9734 24330
L9621 24330
L9584 24312
L9565 24293
" />
</g>
<g style="fill:#000000; fill-opacity:0.0; 
stroke:#000000; stroke-width:59.0551; stroke-opacity:1; 
stroke-linecap:round; stroke-linejoin:round;">
</g>
<g style="fill:#C2C2C2; fill-opacity:0.0; 
stroke:#C2C2C2; stroke-width:59.0551; stroke-opacity:1; 
stroke-linecap:round; stroke-linejoin:round;">
</g>
<g style="fill:#C2C2C2; fill-opacity:0.0; 
stroke:#C2C2C2; stroke-width:19.685; stroke-opacity:1; 
stroke-linecap:round; stroke-linejoin:round;">
<path d="M10397 25688
L13743 25688
" />
<path d="M13743 25688
L13743 28050
" />
<path d="M13743 28050
L10397 28050
" />
<path d="M10397 28050
L10397 25688
" />
<path d="M10184 28050
L6838 28050
" />
<path d="M6838 28050
L6838 25688
" />
<path d="M6838 25688
L10184 25688
" />
<path d="M10184 25688
L10184 28050
" />
<path d="M12019 24644
L13239 24644
" />
<path d="M12019 24644
L12019 25353
" />
<path d="M13239 25353
L13239 24644
" />
<path d="M13239 25353
L12019 25353
" />
<path d="M6169 23148
L7389 23148
" />
<path d="M6169 23148
L6169 23857
" />
<path d="M7389 23857
L7389 23148
" />
<path d="M7389 23857
L6169 23857
" />
<path d="M12365 30571
L8232 30571
" />
<path d="M12365 30571
L12365 27875
" />
<path d="M8232 27875
L8232 30571
" />
<path d="M8232 27875
L12365 27875
" />
<path d="M10110 23857
L8889 23857
" />
<path d="M10110 23857
L10110 23148
" />
<path d="M8889 23148
L8889 23857
" />
<path d="M8889 23148
L10110 23148
" />
</g>
<g style="fill:#000000; fill-opacity:0.0; 
stroke:#000000; stroke-width:19.685; stroke-opacity:1; 
stroke-linecap:round; stroke-linejoin:round;">
</g>
<g style="fill:#848484; fill-opacity:0.0; 
stroke:#848484; stroke-width:19.685; stroke-opacity:1; 
stroke-linecap:round; stroke-linejoin:round;">
</g>
<g style="fill:#848484; fill-opacity:0.0; 
stroke:#848484; stroke-width:39.3701; stroke-opacity:1; 
stroke-linecap:round; stroke-linejoin:round;">
<path d="M13330 27695
L13330 27499
" />
<path d="M13330 26042
L13330 26239
" />
<path d="M10810 27695
L10810 27499
" />
<path d="M10810 26042
L10810 26239
" />
<path d="M13133 26042
L13133 26239
" />
<path d="M12739 26042
L13330 26042
" />
<path d="M13330 26239
L12936 26239
" />
<path d="M11007 26042
L11007 26239
" />
<path d="M11401 26042
L10810 26042
" />
<path d="M10810 26239
L11204 26239
" />
<path d="M11007 27695
L11007 27499
" />
<path d="M10810 27499
L11204 27499
" />
<path d="M11401 27695
L10810 27695
" />
<path d="M12739 27695
L13330 27695
" />
<path d="M13133 27695
L13133 27499
" />
<path d="M13330 27499
L12936 27499
" />
<path d="M11283 26475
L11676 26081
" />
<path d="M11676 26081
L12464 26081
" />
<path d="M12464 26081
L12858 26475
" />
<path d="M12858 26475
L12858 27262
" />
<path d="M12858 27262
L12464 27656
" />
<path d="M12464 27656
L11676 27656
" />
<path d="M11676 27656
L11283 27262
" />
<path d="M11283 27262
L11283 26475
" />
<path d="M11047 26396
L11047 27341
" />
<path d="M11047 27341
L11598 27892
" />
<path d="M11598 27892
L12543 27892
" />
<path d="M12543 27892
L13094 27341
" />
<path d="M13094 27341
L13094 26396
" />
<path d="M13094 26396
L12543 25845
" />
<path d="M12543 25845
L11598 25845
" />
<path d="M11598 25845
L11047 26396
" />
<circle cx="12070.7" cy="26869.2" r="393.701" /> 
<path d="M7251 26042
L7251 26239
" />
<path d="M7251 27695
L7251 27499
" />
<path d="M9771 26042
L9771 26239
" />
<path d="M9771 27695
L9771 27499
" />
<path d="M7448 27695
L7448 27499
" />
<path d="M7842 27695
L7251 27695
" />
<path d="M7251 27499
L7645 27499
" />
<path d="M9574 27695
L9574 27499
" />
<path d="M9180 27695
L9771 27695
" />
<path d="M9771 27499
L9377 27499
" />
<path d="M9574 26042
L9574 26239
" />
<path d="M9771 26239
L9377 26239
" />
<path d="M9180 26042
L9771 26042
" />
<path d="M7842 26042
L7251 26042
" />
<path d="M7448 26042
L7448 26239
" />
<path d="M7251 26239
L7645 26239
" />
<path d="M9299 27262
L8905 27656
" />
<path d="M8905 27656
L8117 27656
" />
<path d="M8117 27656
L7724 27262
" />
<path d="M7724 27262
L7724 26475
" />
<path d="M7724 26475
L8117 26081
" />
<path d="M8117 26081
L8905 26081
" />
<path d="M8905 26081
L9299 26475
" />
<path d="M9299 26475
L9299 27262
" />
<path d="M9535 27341
L9535 26396
" />
<path d="M9535 26396
L8984 25845
" />
<path d="M8984 25845
L8039 25845
" />
<path d="M8039 25845
L7487 26396
" />
<path d="M7487 26396
L7487 27341
" />
<path d="M7487 27341
L8039 27892
" />
<path d="M8039 27892
L8984 27892
" />
<path d="M8984 27892
L9535 27341
" />
<circle cx="8511.61" cy="26869.2" r="393.701" /> 
<path d="M12236 25243
L12236 24755
" />
<path d="M13023 25243
L12236 25243
" />
<path d="M13023 24755
L13023 25243
" />
<path d="M12236 24755
L13023 24755
" />
<path d="M6385 23747
L6385 23258
" />
<path d="M7173 23747
L6385 23747
" />
<path d="M7173 23258
L7173 23747
" />
<path d="M6385 23258
L7173 23258
" />
<path d="M12247 27993
L8350 27993
" />
<path d="M12267 30473
L12267 27993
" />
<path d="M8330 27993
L8330 30473
" />
<path d="M8330 30473
L12267 30473
" />
<path d="M9893 23258
L9893 23747
" />
<path d="M9106 23258
L9893 23258
" />
<path d="M9106 23747
L9106 23258
" />
<path d="M9893 23747
L9106 23747
" />
</g>
<g style="fill:#848484; fill-opacity:0.0; 
stroke:#848484; stroke-width:59.0551; stroke-opacity:1; 
stroke-linecap:round; stroke-linejoin:round;">
<path d="M12625 28651
L12625 28257
" />
<path d="M12812 28651
L12812 28257
L13037 28651
L13037 28257
" />
<path d="M13225 28651
L13225 28257
L13375 28257
L13412 28276
L13431 28295
L13450 28332
L13450 28389
L13431 28426
L13412 28445
L13375 28464
L13225 28464
" />
<path d="M13619 28257
L13619 28576
L13637 28614
L13656 28632
L13694 28651
L13769 28651
L13806 28632
L13825 28614
L13844 28576
L13844 28257
" />
<path d="M13975 28257
L14200 28257
" />
<path d="M14087 28651
L14087 28257
" />
<path d="M14237 28689
L14537 28689
" />
<path d="M14818 28257
L14631 28257
L14612 28445
L14631 28426
L14669 28407
L14762 28407
L14800 28426
L14818 28445
L14837 28482
L14837 28576
L14818 28614
L14800 28632
L14762 28651
L14669 28651
L14631 28632
L14612 28614
" />
<path d="M12606 29233
L12663 29252
L12756 29252
L12794 29233
L12812 29214
L12831 29177
L12831 29139
L12812 29102
L12794 29083
L12756 29064
L12681 29045
L12644 29027
L12625 29008
L12606 28970
L12606 28933
L12625 28895
L12644 28877
L12681 28858
L12775 28858
L12831 28877
" />
<path d="M12962 28858
L13056 29252
L13131 28970
L13206 29252
L13300 28858
" />
<path d="M13431 28895
L13450 28877
L13487 28858
L13581 28858
L13619 28877
L13637 28895
L13656 28933
L13656 28970
L13637 29027
L13412 29252
L13656 29252
" />
<path d="M6418 28592
L6286 28405
" />
<path d="M6193 28592
L6193 28198
L6343 28198
L6380 28217
L6399 28236
L6418 28273
L6418 28330
L6399 28367
L6380 28386
L6343 28405
L6193 28405
" />
<path d="M6586 28386
L6718 28386
" />
<path d="M6774 28592
L6586 28592
L6586 28198
L6774 28198
" />
<path d="M6924 28573
L6980 28592
L7074 28592
L7111 28573
L7130 28555
L7149 28517
L7149 28480
L7130 28442
L7111 28423
L7074 28405
L6999 28386
L6961 28367
L6943 28348
L6924 28311
L6924 28273
L6943 28236
L6961 28217
L6999 28198
L7093 28198
L7149 28217
" />
<path d="M7318 28386
L7449 28386
" />
<path d="M7505 28592
L7318 28592
L7318 28198
L7505 28198
" />
<path d="M7618 28198
L7842 28198
" />
<path d="M7730 28592
L7730 28198
" />
<path d="M6779 29154
L6836 29173
L6929 29173
L6967 29154
L6986 29135
L7004 29098
L7004 29060
L6986 29023
L6967 29004
L6929 28985
L6854 28967
L6817 28948
L6798 28929
L6779 28892
L6779 28854
L6798 28817
L6817 28798
L6854 28779
L6948 28779
L7004 28798
" />
<path d="M7136 28779
L7229 29173
L7304 28892
L7379 29173
L7473 28779
" />
<path d="M7829 29173
L7604 29173
" />
<path d="M7717 29173
L7717 28779
L7679 28835
L7642 28873
L7604 28892
" />
<path d="M12357 25866
L12132 25866
" />
<path d="M12245 25866
L12245 25472
L12207 25528
L12170 25566
L12132 25584
" />
<path d="M12601 25472
L12639 25472
L12676 25491
L12695 25510
L12714 25547
L12732 25622
L12732 25716
L12714 25791
L12695 25828
L12676 25847
L12639 25866
L12601 25866
L12564 25847
L12545 25828
L12526 25791
L12507 25716
L12507 25622
L12526 25547
L12545 25510
L12564 25491
L12601 25472
" />
<path d="M12901 25866
L12901 25472
" />
<path d="M13126 25866
L12957 25641
" />
<path d="M13126 25472
L12901 25697
" />
</g>
<g style="fill:#848484; fill-opacity:0.0; 
stroke:#848484; stroke-width:29.5276; stroke-opacity:1; 
stroke-linecap:round; stroke-linejoin:round;">
<path d="M12596 25088
L12531 24994
" />
<path d="M12484 25088
L12484 24891
L12559 24891
L12578 24900
L12587 24910
L12596 24928
L12596 24956
L12587 24975
L12578 24985
L12559 24994
L12484 24994
" />
<path d="M12671 24910
L12681 24900
L12700 24891
L12746 24891
L12765 24900
L12775 24910
L12784 24928
L12784 24947
L12775 24975
L12662 25088
L12784 25088
" />
</g>
<g style="fill:#848484; fill-opacity:0.0; 
stroke:#848484; stroke-width:59.0551; stroke-opacity:1; 
stroke-linecap:round; stroke-linejoin:round;">
<path d="M6507 24370
L6282 24370
" />
<path d="M6395 24370
L6395 23976
L6357 24032
L6320 24070
L6282 24088
" />
<path d="M6751 23976
L6788 23976
L6826 23995
L6844 24013
L6863 24051
L6882 24126
L6882 24220
L6863 24295
L6844 24332
L6826 24351
L6788 24370
L6751 24370
L6713 24351
L6694 24332
L6676 24295
L6657 24220
L6657 24126
L6676 24051
L6694 24013
L6713 23995
L6751 23976
" />
<path d="M7051 24370
L7051 23976
" />
<path d="M7276 24370
L7107 24145
" />
<path d="M7276 23976
L7051 24201
" />
</g>
<g style="fill:#848484; fill-opacity:0.0; 
stroke:#848484; stroke-width:29.5276; stroke-opacity:1; 
stroke-linecap:round; stroke-linejoin:round;">
<path d="M6746 23592
L6680 23498
" />
<path d="M6634 23592
L6634 23395
L6709 23395
L6727 23404
L6737 23414
L6746 23432
L6746 23460
L6737 23479
L6727 23489
L6709 23498
L6634 23498
" />
<path d="M6933 23592
L6821 23592
" />
<path d="M6877 23592
L6877 23395
L6859 23423
L6840 23442
L6821 23451
" />
</g>
<g style="fill:#848484; fill-opacity:0.0; 
stroke:#848484; stroke-width:59.0551; stroke-opacity:1; 
stroke-linecap:round; stroke-linejoin:round;">
<path d="M9774 28537
L9755 28556
L9699 28575
L9661 28575
L9605 28556
L9567 28519
L9549 28481
L9530 28406
L9530 28350
L9549 28275
L9567 28237
L9605 28200
L9661 28181
L9699 28181
L9755 28200
L9774 28219
" />
<path d="M9942 28369
L10074 28369
" />
<path d="M10130 28575
L9942 28575
L9942 28181
L10130 28181
" />
<path d="M10486 28575
L10298 28575
L10298 28181
" />
<path d="M10805 28575
L10617 28575
L10617 28181
" />
<path d="M9012 22635
L9031 22617
L9068 22598
L9162 22598
L9199 22617
L9218 22635
L9237 22673
L9237 22710
L9218 22767
L8993 22992
L9237 22992
" />
<path d="M9387 22635
L9406 22617
L9443 22598
L9537 22598
L9574 22617
L9593 22635
L9612 22673
L9612 22710
L9593 22767
L9368 22992
L9612 22992
" />
<path d="M9856 22598
L9893 22598
L9930 22617
L9949 22635
L9968 22673
L9987 22748
L9987 22842
L9968 22917
L9949 22954
L9930 22973
L9893 22992
L9856 22992
L9818 22973
L9799 22954
L9781 22917
L9762 22842
L9762 22748
L9781 22673
L9799 22635
L9818 22617
L9856 22598
" />
</g>
<g style="fill:#848484; fill-opacity:0.0; 
stroke:#848484; stroke-width:29.5276; stroke-opacity:1; 
stroke-linecap:round; stroke-linejoin:round;">
<path d="M9466 23592
L9401 23498
" />
<path d="M9354 23592
L9354 23395
L9429 23395
L9448 23404
L9457 23414
L9466 23432
L9466 23460
L9457 23479
L9448 23489
L9429 23498
L9354 23498
" />
<path d="M9532 23395
L9654 23395
L9588 23470
L9616 23470
L9635 23479
L9645 23489
L9654 23507
L9654 23554
L9645 23573
L9635 23582
L9616 23592
L9560 23592
L9541 23582
L9532 23573
" />
</g>
<g style="fill:#000000; fill-opacity:0.0; 
stroke:#000000; stroke-width:29.5276; stroke-opacity:1; 
stroke-linecap:round; stroke-linejoin:round;">
</g>
<g style="fill:#C2C200; fill-opacity:0.0; 
stroke:#C2C200; stroke-width:29.5276; stroke-opacity:1; 
stroke-linecap:round; stroke-linejoin:round;">
</g>
<g style="fill:#C2C200; fill-opacity:0.0; 
stroke:#C2C200; stroke-width:59.0551; stroke-opacity:1; 
stroke-linecap:round; stroke-linejoin:round;">
<path d="M5110 30707
L5110 20274
" />
<path d="M15476 30707
L5110 30707
" />
<path d="M15476 20274
L15476 30707
" />
<path d="M5110 20274
L15476 20274
" />
</g> 
</svg>
