  0
SECTION
  2
HEADER
  9
$ANGBASE
  50
0.0
  9
$ANGDIR
  70
  1
  9
$MEASUREMENT
  70
0
  0
ENDSEC
  0
SECTION
  2
TABLES
  0
TABLE
  2
LTYPE
  70
1
  0
LTYPE
  2
CONTINUOUS
  70
0
  3
Solid line
  72
65
  73
0
  40
0.0
  0
ENDTAB
  0
TABLE
  2
STYLE
  70
4
  0
STYLE
  2
KICAD
  70
0
  40
0
  41
1
  42
1
  50
0
  71
0
  3
isocp.shx
  0
STYLE
  2
KICADB
  70
0
  40
0
  41
1
  42
1
  50
0
  71
0
  3
isocp.shx
  0
STYLE
  2
KICADI
  70
0
  40
0
  41
1
  42
1
  50
15
  71
0
  3
isocp.shx
  0
STYLE
  2
KICADBI
  70
0
  40
0
  41
1
  42
1
  50
15
  71
0
  3
isocp.shx
  0
ENDTAB
  0
TABLE
  2
LAYER
  70
30
  0
LAYER
  2
BLACK
  70
0
  62
7
  6
CONTINUOUS
  0
LAYER
  2
GRAY1
  70
0
  62
251
  6
CONTINUOUS
  0
LAYER
  2
GRAY2
  70
0
  62
8
  6
CONTINUOUS
  0
LAYER
  2
GRAY3
  70
0
  62
9
  6
CONTINUOUS
  0
LAYER
  2
WHITE
  70
0
  62
7
  6
CONTINUOUS
  0
LAYER
  2
LYELLOW
  70
0
  62
51
  6
CONTINUOUS
  0
LAYER
  2
BLUE1
  70
0
  62
178
  6
CONTINUOUS
  0
LAYER
  2
GREEN1
  70
0
  62
98
  6
CONTINUOUS
  0
LAYER
  2
CYAN1
  70
0
  62
138
  6
CONTINUOUS
  0
LAYER
  2
RED1
  70
0
  62
18
  6
CONTINUOUS
  0
LAYER
  2
MAGENTA1
  70
0
  62
228
  6
CONTINUOUS
  0
LAYER
  2
BROWN1
  70
0
  62
58
  6
CONTINUOUS
  0
LAYER
  2
BLUE2
  70
0
  62
5
  6
CONTINUOUS
  0
LAYER
  2
GREEN2
  70
0
  62
3
  6
CONTINUOUS
  0
LAYER
  2
CYAN2
  70
0
  62
4
  6
CONTINUOUS
  0
LAYER
  2
RED2
  70
0
  62
1
  6
CONTINUOUS
  0
LAYER
  2
MAGENTA2
  70
0
  62
6
  6
CONTINUOUS
  0
LAYER
  2
BROWN2
  70
0
  62
54
  6
CONTINUOUS
  0
LAYER
  2
BLUE3
  70
0
  62
171
  6
CONTINUOUS
  0
LAYER
  2
GREEN3
  70
0
  62
91
  6
CONTINUOUS
  0
LAYER
  2
CYAN3
  70
0
  62
131
  6
CONTINUOUS
  0
LAYER
  2
RED3
  70
0
  62
11
  6
CONTINUOUS
  0
LAYER
  2
MAGENTA3
  70
0
  62
221
  6
CONTINUOUS
  0
LAYER
  2
YELLOW3
  70
0
  62
2
  6
CONTINUOUS
  0
LAYER
  2
BLUE4
  70
0
  62
5
  6
CONTINUOUS
  0
LAYER
  2
GREEN4
  70
0
  62
3
  6
CONTINUOUS
  0
LAYER
  2
CYAN4
  70
0
  62
4
  6
CONTINUOUS
  0
LAYER
  2
RED4
  70
0
  62
1
  6
CONTINUOUS
  0
LAYER
  2
MAGENTA4
  70
0
  62
6
  6
CONTINUOUS
  0
LAYER
  2
YELLOW4
  70
0
  62
2
  6
CONTINUOUS
  0
ENDTAB
  0
ENDSEC
  0
SECTION
  2
ENTITIES
0
LINE
8
BLACK
10
5.39
20
8.43
11
5.39
21
7.13
0
LINE
8
BLACK
10
5.39
20
7.13
11
4.69
21
7.13
0
LINE
8
BLACK
10
4.69
20
7.13
11
4.69
21
7.526
0
LINE
8
BLACK
10
4.69
20
7.526
11
3.15521
21
7.526
0
LINE
8
BLACK
10
3.15521
20
7.526
11
2.244
21
6.61479
0
LINE
8
BLACK
10
2.244
20
6.61479
11
2.244
21
2.52521
0
LINE
8
BLACK
10
2.244
20
2.52521
11
3.13521
21
1.634
0
LINE
8
BLACK
10
3.13521
20
1.634
11
3.99
21
1.634
0
LINE
8
BLACK
10
3.99
20
1.634
11
3.99
21
1.88
0
LINE
8
BLACK
10
3.99
20
1.88
11
5.69
21
1.88
0
LINE
8
BLACK
10
5.69
20
1.88
11
5.69
21
1.634
0
LINE
8
BLACK
10
5.69
20
1.634
11
10.29
21
1.634
0
LINE
8
BLACK
10
10.29
20
1.634
11
10.29
21
1.88
0
LINE
8
BLACK
10
10.29
20
1.88
11
11.99
21
1.88
0
LINE
8
BLACK
10
11.99
20
1.88
11
11.99
21
0.88
0
LINE
8
BLACK
10
11.99
20
0.88
11
10.29
21
0.88
0
LINE
8
BLACK
10
10.29
20
0.88
11
10.29
21
1.126
0
LINE
8
BLACK
10
10.29
20
1.126
11
5.69
21
1.126
0
LINE
8
BLACK
10
5.69
20
1.126
11
5.69
21
0.88
0
LINE
8
BLACK
10
5.69
20
0.88
11
3.99
21
0.88
0
LINE
8
BLACK
10
3.99
20
0.88
11
3.99
21
1.126
0
LINE
8
BLACK
10
3.99
20
1.126
11
3.03
21
1.126
0
LINE
8
BLACK
10
3.03
20
1.126
11
3.01899
21
1.12794
0
LINE
8
BLACK
10
3.01899
20
1.12794
11
3.00786
21
1.12697
0
LINE
8
BLACK
10
3.00786
20
1.12697
11
2.97581
21
1.13555
0
LINE
8
BLACK
10
2.97581
20
1.13555
11
2.94313
21
1.14132
0
LINE
8
BLACK
10
2.94313
20
1.14132
11
2.93345
21
1.14691
0
LINE
8
BLACK
10
2.93345
20
1.14691
11
2.92265
21
1.1498
0
LINE
8
BLACK
10
2.92265
20
1.1498
11
2.89547
21
1.16883
0
LINE
8
BLACK
10
2.89547
20
1.16883
11
2.86673
21
1.18542
0
LINE
8
BLACK
10
2.86673
20
1.18542
11
2.85955
21
1.19398
0
LINE
8
BLACK
10
2.85955
20
1.19398
11
2.85039
21
1.20039
0
LINE
8
BLACK
10
2.85039
20
1.20039
11
1.81039
21
2.24039
0
LINE
8
BLACK
10
1.81039
20
2.24039
11
1.80398
21
2.24955
0
LINE
8
BLACK
10
1.80398
20
2.24955
11
1.79542
21
2.25673
0
LINE
8
BLACK
10
1.79542
20
2.25673
11
1.77883
21
2.28547
0
LINE
8
BLACK
10
1.77883
20
2.28547
11
1.7598
21
2.31265
0
LINE
8
BLACK
10
1.7598
20
2.31265
11
1.75691
21
2.32345
0
LINE
8
BLACK
10
1.75691
20
2.32345
11
1.75132
21
2.33313
0
LINE
8
BLACK
10
1.75132
20
2.33313
11
1.74555
21
2.36581
0
LINE
8
BLACK
10
1.74555
20
2.36581
11
1.73697
21
2.39786
0
LINE
8
BLACK
10
1.73697
20
2.39786
11
1.73794
21
2.40899
0
LINE
8
BLACK
10
1.73794
20
2.40899
11
1.736
21
2.42
0
LINE
8
BLACK
10
1.736
20
2.42
11
1.736
21
6.72
0
LINE
8
BLACK
10
1.736
20
6.72
11
1.73794
21
6.73101
0
LINE
8
BLACK
10
1.73794
20
6.73101
11
1.73697
21
6.74214
0
LINE
8
BLACK
10
1.73697
20
6.74214
11
1.74555
21
6.77419
0
LINE
8
BLACK
10
1.74555
20
6.77419
11
1.75132
21
6.80687
0
LINE
8
BLACK
10
1.75132
20
6.80687
11
1.75691
21
6.81655
0
LINE
8
BLACK
10
1.75691
20
6.81655
11
1.7598
21
6.82734
0
LINE
8
BLACK
10
1.7598
20
6.82734
11
1.77883
21
6.85453
0
LINE
8
BLACK
10
1.77883
20
6.85453
11
1.79542
21
6.88327
0
LINE
8
BLACK
10
1.79542
20
6.88327
11
1.80398
21
6.89045
0
LINE
8
BLACK
10
1.80398
20
6.89045
11
1.81039
21
6.8996
0
LINE
8
BLACK
10
1.81039
20
6.8996
11
2.87039
21
7.9596
0
LINE
8
BLACK
10
2.87039
20
7.9596
11
2.87955
21
7.96601
0
LINE
8
BLACK
10
2.87955
20
7.96601
11
2.88673
21
7.97457
0
LINE
8
BLACK
10
2.88673
20
7.97457
11
2.91547
21
7.99117
0
LINE
8
BLACK
10
2.91547
20
7.99117
11
2.94265
21
8.0102
0
LINE
8
BLACK
10
2.94265
20
8.0102
11
2.95345
21
8.01309
0
LINE
8
BLACK
10
2.95345
20
8.01309
11
2.96313
21
8.01868
0
LINE
8
BLACK
10
2.96313
20
8.01868
11
2.99581
21
8.02445
0
LINE
8
BLACK
10
2.99581
20
8.02445
11
3.02786
21
8.03303
0
LINE
8
BLACK
10
3.02786
20
8.03303
11
3.03899
21
8.03206
0
LINE
8
BLACK
10
3.03899
20
8.03206
11
3.05
21
8.034
0
LINE
8
BLACK
10
3.05
20
8.034
11
4.69
21
8.034
0
LINE
8
BLACK
10
4.69
20
8.034
11
4.69
21
8.43
0
LINE
8
BLACK
10
4.69
20
8.43
11
4.786
21
8.43
0
LINE
8
BLACK
10
4.786
20
8.43
11
4.786
21
12.53
0
LINE
8
BLACK
10
4.786
20
12.53
11
4.78794
21
12.541
0
LINE
8
BLACK
10
4.78794
20
12.541
11
4.78697
21
12.5521
0
LINE
8
BLACK
10
4.78697
20
12.5521
11
4.79555
21
12.5842
0
LINE
8
BLACK
10
4.79555
20
12.5842
11
4.80132
21
12.6169
0
LINE
8
BLACK
10
4.80132
20
12.6169
11
4.80691
21
12.6266
0
LINE
8
BLACK
10
4.80691
20
12.6266
11
4.8098
21
12.6373
0
LINE
8
BLACK
10
4.8098
20
12.6373
11
4.82883
21
12.6645
0
LINE
8
BLACK
10
4.82883
20
12.6645
11
4.84542
21
12.6933
0
LINE
8
BLACK
10
4.84542
20
12.6933
11
4.85398
21
12.7005
0
LINE
8
BLACK
10
4.85398
20
12.7005
11
4.86039
21
12.7096
0
LINE
8
BLACK
10
4.86039
20
12.7096
11
8.41579
21
16.265
0
LINE
8
BLACK
10
8.41579
20
16.265
11
5.9204
21
18.7604
0
LINE
8
BLACK
10
5.9204
20
18.7604
11
5.91398
21
18.7695
0
LINE
8
BLACK
10
5.91398
20
18.7695
11
5.90543
21
18.7767
0
LINE
8
BLACK
10
5.90543
20
18.7767
11
5.88883
21
18.8055
0
LINE
8
BLACK
10
5.88883
20
18.8055
11
5.8698
21
18.8327
0
LINE
8
BLACK
10
5.8698
20
18.8327
11
5.86691
21
18.8434
0
LINE
8
BLACK
10
5.86691
20
18.8434
11
5.86132
21
18.8531
0
LINE
8
BLACK
10
5.86132
20
18.8531
11
5.85555
21
18.8858
0
LINE
8
BLACK
10
5.85555
20
18.8858
11
5.84697
21
18.9179
0
LINE
8
BLACK
10
5.84697
20
18.9179
11
5.84794
21
18.929
0
LINE
8
BLACK
10
5.84794
20
18.929
11
5.846
21
18.94
0
LINE
8
BLACK
10
5.846
20
18.94
11
5.846
21
20.637
0
LINE
8
BLACK
10
5.846
20
20.637
11
5.378
21
20.637
0
LINE
8
BLACK
10
5.378
20
20.637
11
5.378
21
22.923
0
LINE
8
BLACK
10
5.378
20
22.923
11
6.902
21
22.923
0
LINE
8
BLACK
10
6.902
20
22.923
11
6.902
21
20.637
0
LINE
8
BLACK
10
6.902
20
20.637
11
6.354
21
20.637
0
LINE
8
BLACK
10
6.354
20
20.637
11
6.354
21
19.0452
0
LINE
8
BLACK
10
6.354
20
19.0452
11
8.86521
21
16.534
0
LINE
8
BLACK
10
8.86521
20
16.534
11
10.31
21
16.534
0
LINE
8
BLACK
10
10.31
20
16.534
11
10.31
21
17.155
0
LINE
8
BLACK
10
10.31
20
17.155
11
10.86
21
17.155
0
LINE
8
BLACK
10
10.86
20
17.155
11
10.86
21
15.405
0
LINE
8
BLACK
10
10.86
20
15.405
11
10.31
21
15.405
0
LINE
8
BLACK
10
10.31
20
15.405
11
10.31
21
16.026
0
LINE
8
BLACK
10
10.31
20
16.026
11
8.89521
21
16.026
0
LINE
8
BLACK
10
8.89521
20
16.026
11
5.294
21
12.4248
0
LINE
8
BLACK
10
5.294
20
12.4248
11
5.294
21
8.43
0
LINE
8
BLACK
10
5.294
20
8.43
11
5.39
21
8.43
0
LINE
8
BLACK
10
20.194
20
8.43
11
20.29
21
8.43
0
LINE
8
BLACK
10
20.29
20
8.43
11
20.29
21
8.034
0
LINE
8
BLACK
10
20.29
20
8.034
11
21.62
21
8.034
0
LINE
8
BLACK
10
21.62
20
8.034
11
21.631
21
8.03206
0
LINE
8
BLACK
10
21.631
20
8.03206
11
21.6421
21
8.03303
0
LINE
8
BLACK
10
21.6421
20
8.03303
11
21.6742
21
8.02445
0
LINE
8
BLACK
10
21.6742
20
8.02445
11
21.7069
21
8.01868
0
LINE
8
BLACK
10
21.7069
20
8.01868
11
21.7166
21
8.01309
0
LINE
8
BLACK
10
21.7166
20
8.01309
11
21.7273
21
8.0102
0
LINE
8
BLACK
10
21.7273
20
8.0102
11
21.7545
21
7.99117
0
LINE
8
BLACK
10
21.7545
20
7.99117
11
21.7833
21
7.97457
0
LINE
8
BLACK
10
21.7833
20
7.97457
11
21.7905
21
7.96601
0
LINE
8
BLACK
10
21.7905
20
7.96601
11
21.7996
21
7.9596
0
LINE
8
BLACK
10
21.7996
20
7.9596
11
23.1696
21
6.5896
0
LINE
8
BLACK
10
23.1696
20
6.5896
11
23.176
21
6.58045
0
LINE
8
BLACK
10
23.176
20
6.58045
11
23.1846
21
6.57327
0
LINE
8
BLACK
10
23.1846
20
6.57327
11
23.2012
21
6.54453
0
LINE
8
BLACK
10
23.2012
20
6.54453
11
23.2202
21
6.51734
0
LINE
8
BLACK
10
23.2202
20
6.51734
11
23.2231
21
6.50655
0
LINE
8
BLACK
10
23.2231
20
6.50655
11
23.2287
21
6.49687
0
LINE
8
BLACK
10
23.2287
20
6.49687
11
23.2344
21
6.46419
0
LINE
8
BLACK
10
23.2344
20
6.46419
11
23.243
21
6.43214
0
LINE
8
BLACK
10
23.243
20
6.43214
11
23.2421
21
6.421
0
LINE
8
BLACK
10
23.2421
20
6.421
11
23.244
21
6.41
0
LINE
8
BLACK
10
23.244
20
6.41
11
23.244
21
2.52
0
LINE
8
BLACK
10
23.244
20
2.52
11
23.2287
21
2.43313
0
LINE
8
BLACK
10
23.2287
20
2.43313
11
23.1846
21
2.35673
0
LINE
8
BLACK
10
23.1846
20
2.35673
11
23.1687
21
2.34345
0
LINE
8
BLACK
10
23.1687
20
2.34345
11
23.1596
21
2.33039
0
LINE
8
BLACK
10
23.1596
20
2.33039
11
22.0296
21
1.20039
0
LINE
8
BLACK
10
22.0296
20
1.20039
11
22.0205
21
1.19398
0
LINE
8
BLACK
10
22.0205
20
1.19398
11
22.0133
21
1.18542
0
LINE
8
BLACK
10
22.0133
20
1.18542
11
21.9845
21
1.16883
0
LINE
8
BLACK
10
21.9845
20
1.16883
11
21.9573
21
1.1498
0
LINE
8
BLACK
10
21.9573
20
1.1498
11
21.9466
21
1.14691
0
LINE
8
BLACK
10
21.9466
20
1.14691
11
21.9369
21
1.14132
0
LINE
8
BLACK
10
21.9369
20
1.14132
11
21.9042
21
1.13555
0
LINE
8
BLACK
10
21.9042
20
1.13555
11
21.8721
21
1.12697
0
LINE
8
BLACK
10
21.8721
20
1.12697
11
21.861
21
1.12794
0
LINE
8
BLACK
10
21.861
20
1.12794
11
21.85
21
1.126
0
LINE
8
BLACK
10
21.85
20
1.126
11
20.99
21
1.126
0
LINE
8
BLACK
10
20.99
20
1.126
11
20.99
21
0.88
0
LINE
8
BLACK
10
20.99
20
0.88
11
19.29
21
0.88
0
LINE
8
BLACK
10
19.29
20
0.88
11
19.29
21
1.126
0
LINE
8
BLACK
10
19.29
20
1.126
11
14.69
21
1.126
0
LINE
8
BLACK
10
14.69
20
1.126
11
14.69
21
0.88
0
LINE
8
BLACK
10
14.69
20
0.88
11
12.99
21
0.88
0
LINE
8
BLACK
10
12.99
20
0.88
11
12.99
21
1.88
0
LINE
8
BLACK
10
12.99
20
1.88
11
14.69
21
1.88
0
LINE
8
BLACK
10
14.69
20
1.88
11
14.69
21
1.634
0
LINE
8
BLACK
10
14.69
20
1.634
11
19.29
21
1.634
0
LINE
8
BLACK
10
19.29
20
1.634
11
19.29
21
1.88
0
LINE
8
BLACK
10
19.29
20
1.88
11
20.99
21
1.88
0
LINE
8
BLACK
10
20.99
20
1.88
11
20.99
21
1.634
0
LINE
8
BLACK
10
20.99
20
1.634
11
21.7448
21
1.634
0
LINE
8
BLACK
10
21.7448
20
1.634
11
22.736
21
2.62521
0
LINE
8
BLACK
10
22.736
20
2.62521
11
22.736
21
6.30479
0
LINE
8
BLACK
10
22.736
20
6.30479
11
21.5148
21
7.526
0
LINE
8
BLACK
10
21.5148
20
7.526
11
20.29
21
7.526
0
LINE
8
BLACK
10
20.29
20
7.526
11
20.29
21
7.13
0
LINE
8
BLACK
10
20.29
20
7.13
11
19.59
21
7.13
0
LINE
8
BLACK
10
19.59
20
7.13
11
19.59
21
8.43
0
LINE
8
BLACK
10
19.59
20
8.43
11
19.686
21
8.43
0
LINE
8
BLACK
10
19.686
20
8.43
11
19.686
21
10.4768
0
LINE
8
BLACK
10
19.686
20
10.4768
11
19.2996
21
10.0904
0
LINE
8
BLACK
10
19.2996
20
10.0904
11
19.2905
21
10.084
0
LINE
8
BLACK
10
19.2905
20
10.084
11
19.2833
21
10.0754
0
LINE
8
BLACK
10
19.2833
20
10.0754
11
19.2545
21
10.0588
0
LINE
8
BLACK
10
19.2545
20
10.0588
11
19.2273
21
10.0398
0
LINE
8
BLACK
10
19.2273
20
10.0398
11
19.2166
21
10.0369
0
LINE
8
BLACK
10
19.2166
20
10.0369
11
19.2069
21
10.0313
0
LINE
8
BLACK
10
19.2069
20
10.0313
11
19.1742
21
10.0256
0
LINE
8
BLACK
10
19.1742
20
10.0256
11
19.1421
21
10.017
0
LINE
8
BLACK
10
19.1421
20
10.017
11
19.131
21
10.0179
0
LINE
8
BLACK
10
19.131
20
10.0179
11
19.12
21
10.016
0
LINE
8
BLACK
10
19.12
20
10.016
11
17.3552
21
10.016
0
LINE
8
BLACK
10
17.3552
20
10.016
11
16.0396
21
8.7004
0
LINE
8
BLACK
10
16.0396
20
8.7004
11
16.0305
21
8.69398
0
LINE
8
BLACK
10
16.0305
20
8.69398
11
16.0233
21
8.68543
0
LINE
8
BLACK
10
16.0233
20
8.68543
11
15.9945
21
8.66883
0
LINE
8
BLACK
10
15.9945
20
8.66883
11
15.9673
21
8.6498
0
LINE
8
BLACK
10
15.9673
20
8.6498
11
15.9566
21
8.64691
0
LINE
8
BLACK
10
15.9566
20
8.64691
11
15.9469
21
8.64132
0
LINE
8
BLACK
10
15.9469
20
8.64132
11
15.9142
21
8.63556
0
LINE
8
BLACK
10
15.9142
20
8.63556
11
15.8821
21
8.62697
0
LINE
8
BLACK
10
15.8821
20
8.62697
11
15.871
21
8.62794
0
LINE
8
BLACK
10
15.871
20
8.62794
11
15.86
21
8.626
0
LINE
8
BLACK
10
15.86
20
8.626
11
14.67
21
8.626
0
LINE
8
BLACK
10
14.67
20
8.626
11
14.67
21
8.005
0
LINE
8
BLACK
10
14.67
20
8.005
11
14.12
21
8.005
0
LINE
8
BLACK
10
14.12
20
8.005
11
14.12
21
9.755
0
LINE
8
BLACK
10
14.12
20
9.755
11
14.67
21
9.755
0
LINE
8
BLACK
10
14.67
20
9.755
11
14.67
21
9.134
0
LINE
8
BLACK
10
14.67
20
9.134
11
15.7548
21
9.134
0
LINE
8
BLACK
10
15.7548
20
9.134
11
17.0704
21
10.4496
0
LINE
8
BLACK
10
17.0704
20
10.4496
11
17.0795
21
10.456
0
LINE
8
BLACK
10
17.0795
20
10.456
11
17.0867
21
10.4646
0
LINE
8
BLACK
10
17.0867
20
10.4646
11
17.1155
21
10.4812
0
LINE
8
BLACK
10
17.1155
20
10.4812
11
17.1427
21
10.5002
0
LINE
8
BLACK
10
17.1427
20
10.5002
11
17.1534
21
10.5031
0
LINE
8
BLACK
10
17.1534
20
10.5031
11
17.1631
21
10.5087
0
LINE
8
BLACK
10
17.1631
20
10.5087
11
17.1958
21
10.5144
0
LINE
8
BLACK
10
17.1958
20
10.5144
11
17.2279
21
10.523
0
LINE
8
BLACK
10
17.2279
20
10.523
11
17.239
21
10.5221
0
LINE
8
BLACK
10
17.239
20
10.5221
11
17.25
21
10.524
0
LINE
8
BLACK
10
17.25
20
10.524
11
19.0148
21
10.524
0
LINE
8
BLACK
10
19.0148
20
10.524
11
23.706
21
15.2152
0
LINE
8
BLACK
10
23.706
20
15.2152
11
23.706
21
23.0948
0
LINE
8
BLACK
10
23.706
20
23.0948
11
22.9548
21
23.846
0
LINE
8
BLACK
10
22.9548
20
23.846
11
8.67321
21
23.846
0
LINE
8
BLACK
10
8.67321
20
23.846
11
8.85961
21
23.6596
0
LINE
8
BLACK
10
8.85961
20
23.6596
11
8.86601
21
23.6505
0
LINE
8
BLACK
10
8.86601
20
23.6505
11
8.87458
21
23.6433
0
LINE
8
BLACK
10
8.87458
20
23.6433
11
8.89117
21
23.6145
0
LINE
8
BLACK
10
8.89117
20
23.6145
11
8.9102
21
23.5873
0
LINE
8
BLACK
10
8.9102
20
23.5873
11
8.91309
21
23.5766
0
LINE
8
BLACK
10
8.91309
20
23.5766
11
8.91868
21
23.5669
0
LINE
8
BLACK
10
8.91868
20
23.5669
11
8.92445
21
23.5342
0
LINE
8
BLACK
10
8.92445
20
23.5342
11
8.93303
21
23.5021
0
LINE
8
BLACK
10
8.93303
20
23.5021
11
8.93206
21
23.491
0
LINE
8
BLACK
10
8.93206
20
23.491
11
8.934
21
23.48
0
LINE
8
BLACK
10
8.934
20
23.48
11
8.934
21
22.923
0
LINE
8
BLACK
10
8.934
20
22.923
11
9.442
21
22.923
0
LINE
8
BLACK
10
9.442
20
22.923
11
9.442
21
20.637
0
LINE
8
BLACK
10
9.442
20
20.637
11
7.918
21
20.637
0
LINE
8
BLACK
10
7.918
20
20.637
11
7.918
21
22.923
0
LINE
8
BLACK
10
7.918
20
22.923
11
8.426
21
22.923
0
LINE
8
BLACK
10
8.426
20
22.923
11
8.426
21
23.3748
0
LINE
8
BLACK
10
8.426
20
23.3748
11
7.95479
21
23.846
0
LINE
8
BLACK
10
7.95479
20
23.846
11
4.36521
21
23.846
0
LINE
8
BLACK
10
4.36521
20
23.846
11
3.854
21
23.3348
0
LINE
8
BLACK
10
3.854
20
23.3348
11
3.854
21
22.923
0
LINE
8
BLACK
10
3.854
20
22.923
11
4.362
21
22.923
0
LINE
8
BLACK
10
4.362
20
22.923
11
4.362
21
20.637
0
LINE
8
BLACK
10
4.362
20
20.637
11
2.838
21
20.637
0
LINE
8
BLACK
10
2.838
20
20.637
11
2.838
21
22.923
0
LINE
8
BLACK
10
2.838
20
22.923
11
3.346
21
22.923
0
LINE
8
BLACK
10
3.346
20
22.923
11
3.346
21
23.44
0
LINE
8
BLACK
10
3.346
20
23.44
11
3.34794
21
23.451
0
LINE
8
BLACK
10
3.34794
20
23.451
11
3.34697
21
23.4621
0
LINE
8
BLACK
10
3.34697
20
23.4621
11
3.35555
21
23.4942
0
LINE
8
BLACK
10
3.35555
20
23.4942
11
3.36132
21
23.5269
0
LINE
8
BLACK
10
3.36132
20
23.5269
11
3.36691
21
23.5366
0
LINE
8
BLACK
10
3.36691
20
23.5366
11
3.3698
21
23.5473
0
LINE
8
BLACK
10
3.3698
20
23.5473
11
3.38883
21
23.5745
0
LINE
8
BLACK
10
3.38883
20
23.5745
11
3.40542
21
23.6033
0
LINE
8
BLACK
10
3.40542
20
23.6033
11
3.41398
21
23.6105
0
LINE
8
BLACK
10
3.41398
20
23.6105
11
3.42039
21
23.6196
0
LINE
8
BLACK
10
3.42039
20
23.6196
11
4.0804
21
24.2796
0
LINE
8
BLACK
10
4.0804
20
24.2796
11
4.08955
21
24.286
0
LINE
8
BLACK
10
4.08955
20
24.286
11
4.09673
21
24.2946
0
LINE
8
BLACK
10
4.09673
20
24.2946
11
4.12547
21
24.3112
0
LINE
8
BLACK
10
4.12547
20
24.3112
11
4.15266
21
24.3302
0
LINE
8
BLACK
10
4.15266
20
24.3302
11
4.16345
21
24.3331
0
LINE
8
BLACK
10
4.16345
20
24.3331
11
4.17313
21
24.3387
0
LINE
8
BLACK
10
4.17313
20
24.3387
11
4.20581
21
24.3444
0
LINE
8
BLACK
10
4.20581
20
24.3444
11
4.23786
21
24.353
0
LINE
8
BLACK
10
4.23786
20
24.353
11
4.24899
21
24.3521
0
LINE
8
BLACK
10
4.24899
20
24.3521
11
4.26
21
24.354
0
LINE
8
BLACK
10
4.26
20
24.354
11
23.06
21
24.354
0
LINE
8
BLACK
10
23.06
20
24.354
11
23.071
21
24.3521
0
LINE
8
BLACK
10
23.071
20
24.3521
11
23.0821
21
24.353
0
LINE
8
BLACK
10
23.0821
20
24.353
11
23.1142
21
24.3444
0
LINE
8
BLACK
10
23.1142
20
24.3444
11
23.1469
21
24.3387
0
LINE
8
BLACK
10
23.1469
20
24.3387
11
23.1566
21
24.3331
0
LINE
8
BLACK
10
23.1566
20
24.3331
11
23.1673
21
24.3302
0
LINE
8
BLACK
10
23.1673
20
24.3302
11
23.1945
21
24.3112
0
LINE
8
BLACK
10
23.1945
20
24.3112
11
23.2233
21
24.2946
0
LINE
8
BLACK
10
23.2233
20
24.2946
11
23.2305
21
24.286
0
LINE
8
BLACK
10
23.2305
20
24.286
11
23.2396
21
24.2796
0
LINE
8
BLACK
10
23.2396
20
24.2796
11
24.1396
21
23.3796
0
LINE
8
BLACK
10
24.1396
20
23.3796
11
24.146
21
23.3705
0
LINE
8
BLACK
10
24.146
20
23.3705
11
24.1546
21
23.3633
0
LINE
8
BLACK
10
24.1546
20
23.3633
11
24.1712
21
23.3345
0
LINE
8
BLACK
10
24.1712
20
23.3345
11
24.1902
21
23.3073
0
LINE
8
BLACK
10
24.1902
20
23.3073
11
24.1931
21
23.2966
0
LINE
8
BLACK
10
24.1931
20
23.2966
11
24.1987
21
23.2869
0
LINE
8
BLACK
10
24.1987
20
23.2869
11
24.2044
21
23.2542
0
LINE
8
BLACK
10
24.2044
20
23.2542
11
24.213
21
23.2221
0
LINE
8
BLACK
10
24.213
20
23.2221
11
24.2121
21
23.211
0
LINE
8
BLACK
10
24.2121
20
23.211
11
24.214
21
23.2
0
LINE
8
BLACK
10
24.214
20
23.2
11
24.214
21
15.11
0
LINE
8
BLACK
10
24.214
20
15.11
11
24.2121
21
15.099
0
LINE
8
BLACK
10
24.2121
20
15.099
11
24.213
21
15.0879
0
LINE
8
BLACK
10
24.213
20
15.0879
11
24.2044
21
15.0558
0
LINE
8
BLACK
10
24.2044
20
15.0558
11
24.1987
21
15.0231
0
LINE
8
BLACK
10
24.1987
20
15.0231
11
24.1931
21
15.0134
0
LINE
8
BLACK
10
24.1931
20
15.0134
11
24.1902
21
15.0027
0
LINE
8
BLACK
10
24.1902
20
15.0027
11
24.1712
21
14.9755
0
LINE
8
BLACK
10
24.1712
20
14.9755
11
24.1546
21
14.9467
0
LINE
8
BLACK
10
24.1546
20
14.9467
11
24.146
21
14.9395
0
LINE
8
BLACK
10
24.146
20
14.9395
11
24.1396
21
14.9304
0
LINE
8
BLACK
10
24.1396
20
14.9304
11
20.194
21
10.9848
0
LINE
8
BLACK
10
20.194
20
10.9848
11
20.194
21
8.43
0
LINE
8
BLACK
10
12.13
20
8.005
11
12.109
21
8.005
0
LINE
8
BLACK
10
12.109
20
8.005
11
12.109
21
7.497
0
LINE
8
BLACK
10
12.109
20
7.497
11
12.1071
21
7.48599
0
LINE
8
BLACK
10
12.1071
20
7.48599
11
12.108
21
7.47486
0
LINE
8
BLACK
10
12.108
20
7.47486
11
12.0994
21
7.44281
0
LINE
8
BLACK
10
12.0994
20
7.44281
11
12.0937
21
7.41013
0
LINE
8
BLACK
10
12.0937
20
7.41013
11
12.0881
21
7.40045
0
LINE
8
BLACK
10
12.0881
20
7.40045
11
12.0852
21
7.38965
0
LINE
8
BLACK
10
12.0852
20
7.38965
11
12.0662
21
7.36247
0
LINE
8
BLACK
10
12.0662
20
7.36247
11
12.0496
21
7.33373
0
LINE
8
BLACK
10
12.0496
20
7.33373
11
12.041
21
7.32655
0
LINE
8
BLACK
10
12.041
20
7.32655
11
12.0346
21
7.31739
0
LINE
8
BLACK
10
12.0346
20
7.31739
11
11.3376
21
6.62039
0
LINE
8
BLACK
10
11.3376
20
6.62039
11
11.3285
21
6.61398
0
LINE
8
BLACK
10
11.3285
20
6.61398
11
11.3213
21
6.60542
0
LINE
8
BLACK
10
11.3213
20
6.60542
11
11.2925
21
6.58883
0
LINE
8
BLACK
10
11.2925
20
6.58883
11
11.2653
21
6.5698
0
LINE
8
BLACK
10
11.2653
20
6.5698
11
11.2546
21
6.56691
0
LINE
8
BLACK
10
11.2546
20
6.56691
11
11.2449
21
6.56132
0
LINE
8
BLACK
10
11.2449
20
6.56132
11
11.2122
21
6.55556
0
LINE
8
BLACK
10
11.2122
20
6.55556
11
11.1801
21
6.54697
0
LINE
8
BLACK
10
11.1801
20
6.54697
11
11.169
21
6.54794
0
LINE
8
BLACK
10
11.169
20
6.54794
11
11.158
21
6.546
0
LINE
8
BLACK
10
11.158
20
6.546
11
9.778
21
6.546
0
LINE
8
BLACK
10
9.778
20
6.546
11
9.76699
21
6.54794
0
LINE
8
BLACK
10
9.76699
20
6.54794
11
9.75586
21
6.54697
0
LINE
8
BLACK
10
9.75586
20
6.54697
11
9.72381
21
6.55556
0
LINE
8
BLACK
10
9.72381
20
6.55556
11
9.69113
21
6.56132
0
LINE
8
BLACK
10
9.69113
20
6.56132
11
9.68145
21
6.56691
0
LINE
8
BLACK
10
9.68145
20
6.56691
11
9.67066
21
6.5698
0
LINE
8
BLACK
10
9.67066
20
6.5698
11
9.64347
21
6.58883
0
LINE
8
BLACK
10
9.64347
20
6.58883
11
9.61473
21
6.60542
0
LINE
8
BLACK
10
9.61473
20
6.60542
11
9.60755
21
6.61398
0
LINE
8
BLACK
10
9.60755
20
6.61398
11
9.5984
21
6.62039
0
LINE
8
BLACK
10
9.5984
20
6.62039
11
8.69279
21
7.526
0
LINE
8
BLACK
10
8.69279
20
7.526
11
7.29
21
7.526
0
LINE
8
BLACK
10
7.29
20
7.526
11
7.29
21
7.13
0
LINE
8
BLACK
10
7.29
20
7.13
11
7.194
21
7.13
0
LINE
8
BLACK
10
7.194
20
7.13
11
7.194
21
6.58521
0
LINE
8
BLACK
10
7.194
20
6.58521
11
8.3196
21
5.4596
0
LINE
8
BLACK
10
8.3196
20
5.4596
11
8.32601
21
5.45045
0
LINE
8
BLACK
10
8.32601
20
5.45045
11
8.33457
21
5.44327
0
LINE
8
BLACK
10
8.33457
20
5.44327
11
8.35117
21
5.41453
0
LINE
8
BLACK
10
8.35117
20
5.41453
11
8.3702
21
5.38734
0
LINE
8
BLACK
10
8.3702
20
5.38734
11
8.37309
21
5.37655
0
LINE
8
BLACK
10
8.37309
20
5.37655
11
8.37868
21
5.36687
0
LINE
8
BLACK
10
8.37868
20
5.36687
11
8.38444
21
5.33419
0
LINE
8
BLACK
10
8.38444
20
5.33419
11
8.39303
21
5.30214
0
LINE
8
BLACK
10
8.39303
20
5.30214
11
8.39206
21
5.29101
0
LINE
8
BLACK
10
8.39206
20
5.29101
11
8.394
21
5.28
0
LINE
8
BLACK
10
8.394
20
5.28
11
8.394
21
3.62521
0
LINE
8
BLACK
10
8.394
20
3.62521
11
8.56521
21
3.454
0
LINE
8
BLACK
10
8.56521
20
3.454
11
12.8548
21
3.454
0
LINE
8
BLACK
10
12.8548
20
3.454
11
13.586
21
4.18521
0
LINE
8
BLACK
10
13.586
20
4.18521
11
13.586
21
4.68
0
LINE
8
BLACK
10
13.586
20
4.68
11
12.99
21
4.68
0
LINE
8
BLACK
10
12.99
20
4.68
11
12.99
21
5.68
0
LINE
8
BLACK
10
12.99
20
5.68
11
14.69
21
5.68
0
LINE
8
BLACK
10
14.69
20
5.68
11
14.69
21
5.434
0
LINE
8
BLACK
10
14.69
20
5.434
11
19.29
21
5.434
0
LINE
8
BLACK
10
19.29
20
5.434
11
19.29
21
5.68
0
LINE
8
BLACK
10
19.29
20
5.68
11
20.99
21
5.68
0
LINE
8
BLACK
10
20.99
20
5.68
11
20.99
21
4.68
0
LINE
8
BLACK
10
20.99
20
4.68
11
19.29
21
4.68
0
LINE
8
BLACK
10
19.29
20
4.68
11
19.29
21
4.926
0
LINE
8
BLACK
10
19.29
20
4.926
11
14.69
21
4.926
0
LINE
8
BLACK
10
14.69
20
4.926
11
14.69
21
4.68
0
LINE
8
BLACK
10
14.69
20
4.68
11
14.094
21
4.68
0
LINE
8
BLACK
10
14.094
20
4.68
11
14.094
21
4.08
0
LINE
8
BLACK
10
14.094
20
4.08
11
14.0921
21
4.06899
0
LINE
8
BLACK
10
14.0921
20
4.06899
11
14.093
21
4.05786
0
LINE
8
BLACK
10
14.093
20
4.05786
11
14.0844
21
4.02581
0
LINE
8
BLACK
10
14.0844
20
4.02581
11
14.0787
21
3.99313
0
LINE
8
BLACK
10
14.0787
20
3.99313
11
14.0731
21
3.98345
0
LINE
8
BLACK
10
14.0731
20
3.98345
11
14.0702
21
3.97265
0
LINE
8
BLACK
10
14.0702
20
3.97265
11
14.0512
21
3.94547
0
LINE
8
BLACK
10
14.0512
20
3.94547
11
14.0346
21
3.91673
0
LINE
8
BLACK
10
14.0346
20
3.91673
11
14.026
21
3.90955
0
LINE
8
BLACK
10
14.026
20
3.90955
11
14.0196
21
3.90039
0
LINE
8
BLACK
10
14.0196
20
3.90039
11
13.1396
21
3.02039
0
LINE
8
BLACK
10
13.1396
20
3.02039
11
13.1305
21
3.01398
0
LINE
8
BLACK
10
13.1305
20
3.01398
11
13.1233
21
3.00542
0
LINE
8
BLACK
10
13.1233
20
3.00542
11
13.0945
21
2.98883
0
LINE
8
BLACK
10
13.0945
20
2.98883
11
13.0673
21
2.9698
0
LINE
8
BLACK
10
13.0673
20
2.9698
11
13.0566
21
2.96691
0
LINE
8
BLACK
10
13.0566
20
2.96691
11
13.0469
21
2.96132
0
LINE
8
BLACK
10
13.0469
20
2.96132
11
13.0142
21
2.95555
0
LINE
8
BLACK
10
13.0142
20
2.95555
11
12.9821
21
2.94697
0
LINE
8
BLACK
10
12.9821
20
2.94697
11
12.971
21
2.94794
0
LINE
8
BLACK
10
12.971
20
2.94794
11
12.96
21
2.946
0
LINE
8
BLACK
10
12.96
20
2.946
11
8.46
21
2.946
0
LINE
8
BLACK
10
8.46
20
2.946
11
8.44899
21
2.94794
0
LINE
8
BLACK
10
8.44899
20
2.94794
11
8.43786
21
2.94697
0
LINE
8
BLACK
10
8.43786
20
2.94697
11
8.40581
21
2.95555
0
LINE
8
BLACK
10
8.40581
20
2.95555
11
8.37313
21
2.96132
0
LINE
8
BLACK
10
8.37313
20
2.96132
11
8.36345
21
2.96691
0
LINE
8
BLACK
10
8.36345
20
2.96691
11
8.35266
21
2.9698
0
LINE
8
BLACK
10
8.35266
20
2.9698
11
8.32547
21
2.98883
0
LINE
8
BLACK
10
8.32547
20
2.98883
11
8.29673
21
3.00542
0
LINE
8
BLACK
10
8.29673
20
3.00542
11
8.28955
21
3.01398
0
LINE
8
BLACK
10
8.28955
20
3.01398
11
8.2804
21
3.02039
0
LINE
8
BLACK
10
8.2804
20
3.02039
11
7.96039
21
3.3404
0
LINE
8
BLACK
10
7.96039
20
3.3404
11
7.95398
21
3.34955
0
LINE
8
BLACK
10
7.95398
20
3.34955
11
7.94542
21
3.35673
0
LINE
8
BLACK
10
7.94542
20
3.35673
11
7.92883
21
3.38547
0
LINE
8
BLACK
10
7.92883
20
3.38547
11
7.9098
21
3.41265
0
LINE
8
BLACK
10
7.9098
20
3.41265
11
7.90691
21
3.42345
0
LINE
8
BLACK
10
7.90691
20
3.42345
11
7.90132
21
3.43313
0
LINE
8
BLACK
10
7.90132
20
3.43313
11
7.89555
21
3.46581
0
LINE
8
BLACK
10
7.89555
20
3.46581
11
7.88697
21
3.49786
0
LINE
8
BLACK
10
7.88697
20
3.49786
11
7.88794
21
3.50899
0
LINE
8
BLACK
10
7.88794
20
3.50899
11
7.886
21
3.52
0
LINE
8
BLACK
10
7.886
20
3.52
11
7.886
21
5.17479
0
LINE
8
BLACK
10
7.886
20
5.17479
11
6.76039
21
6.30039
0
LINE
8
BLACK
10
6.76039
20
6.30039
11
6.75399
21
6.30955
0
LINE
8
BLACK
10
6.75399
20
6.30955
11
6.74543
21
6.31673
0
LINE
8
BLACK
10
6.74543
20
6.31673
11
6.72883
21
6.34547
0
LINE
8
BLACK
10
6.72883
20
6.34547
11
6.7098
21
6.37265
0
LINE
8
BLACK
10
6.7098
20
6.37265
11
6.70691
21
6.38345
0
LINE
8
BLACK
10
6.70691
20
6.38345
11
6.70132
21
6.39313
0
LINE
8
BLACK
10
6.70132
20
6.39313
11
6.69555
21
6.42581
0
LINE
8
BLACK
10
6.69555
20
6.42581
11
6.68697
21
6.45786
0
LINE
8
BLACK
10
6.68697
20
6.45786
11
6.68794
21
6.46899
0
LINE
8
BLACK
10
6.68794
20
6.46899
11
6.686
21
6.48
0
LINE
8
BLACK
10
6.686
20
6.48
11
6.686
21
7.13
0
LINE
8
BLACK
10
6.686
20
7.13
11
6.59
21
7.13
0
LINE
8
BLACK
10
6.59
20
7.13
11
6.59
21
8.43
0
LINE
8
BLACK
10
6.59
20
8.43
11
7.29
21
8.43
0
LINE
8
BLACK
10
7.29
20
8.43
11
7.29
21
8.034
0
LINE
8
BLACK
10
7.29
20
8.034
11
8.798
21
8.034
0
LINE
8
BLACK
10
8.798
20
8.034
11
8.80901
21
8.03206
0
LINE
8
BLACK
10
8.80901
20
8.03206
11
8.82014
21
8.03303
0
LINE
8
BLACK
10
8.82014
20
8.03303
11
8.85219
21
8.02445
0
LINE
8
BLACK
10
8.85219
20
8.02445
11
8.88487
21
8.01868
0
LINE
8
BLACK
10
8.88487
20
8.01868
11
8.89455
21
8.01309
0
LINE
8
BLACK
10
8.89455
20
8.01309
11
8.90534
21
8.0102
0
LINE
8
BLACK
10
8.90534
20
8.0102
11
8.93253
21
7.99117
0
LINE
8
BLACK
10
8.93253
20
7.99117
11
8.96127
21
7.97457
0
LINE
8
BLACK
10
8.96127
20
7.97457
11
8.96845
21
7.96601
0
LINE
8
BLACK
10
8.96845
20
7.96601
11
8.9776
21
7.9596
0
LINE
8
BLACK
10
8.9776
20
7.9596
11
9.88321
21
7.054
0
LINE
8
BLACK
10
9.88321
20
7.054
11
11.0528
21
7.054
0
LINE
8
BLACK
10
11.0528
20
7.054
11
11.601
21
7.60221
0
LINE
8
BLACK
10
11.601
20
7.60221
11
11.601
21
8.005
0
LINE
8
BLACK
10
11.601
20
8.005
11
11.58
21
8.005
0
LINE
8
BLACK
10
11.58
20
8.005
11
11.58
21
9.755
0
LINE
8
BLACK
10
11.58
20
9.755
11
12.13
21
9.755
0
LINE
8
BLACK
10
12.13
20
9.755
11
12.13
21
8.005
0
LINE
8
BLACK
10
5.69
20
4.68
11
3.99
21
4.68
0
LINE
8
BLACK
10
3.99
20
4.68
11
3.99
21
5.68
0
LINE
8
BLACK
10
3.99
20
5.68
11
5.69
21
5.68
0
LINE
8
BLACK
10
5.69
20
5.68
11
5.69
21
4.68
0
LINE
8
BLACK
10
13.4
20
8.005
11
13.379
21
8.005
0
LINE
8
BLACK
10
13.379
20
8.005
11
13.379
21
7.27021
0
LINE
8
BLACK
10
13.379
20
7.27021
11
13.6452
21
7.004
0
LINE
8
BLACK
10
13.6452
20
7.004
11
15.0468
21
7.004
0
LINE
8
BLACK
10
15.0468
20
7.004
11
16.0024
21
7.9596
0
LINE
8
BLACK
10
16.0024
20
7.9596
11
16.0115
21
7.96601
0
LINE
8
BLACK
10
16.0115
20
7.96601
11
16.0187
21
7.97457
0
LINE
8
BLACK
10
16.0187
20
7.97457
11
16.0475
21
7.99117
0
LINE
8
BLACK
10
16.0475
20
7.99117
11
16.0747
21
8.0102
0
LINE
8
BLACK
10
16.0747
20
8.0102
11
16.0854
21
8.01309
0
LINE
8
BLACK
10
16.0854
20
8.01309
11
16.0951
21
8.01868
0
LINE
8
BLACK
10
16.0951
20
8.01868
11
16.1278
21
8.02445
0
LINE
8
BLACK
10
16.1278
20
8.02445
11
16.1599
21
8.03303
0
LINE
8
BLACK
10
16.1599
20
8.03303
11
16.171
21
8.03206
0
LINE
8
BLACK
10
16.171
20
8.03206
11
16.182
21
8.034
0
LINE
8
BLACK
10
16.182
20
8.034
11
17.69
21
8.034
0
LINE
8
BLACK
10
17.69
20
8.034
11
17.69
21
8.43
0
LINE
8
BLACK
10
17.69
20
8.43
11
18.39
21
8.43
0
LINE
8
BLACK
10
18.39
20
8.43
11
18.39
21
7.13
0
LINE
8
BLACK
10
18.39
20
7.13
11
17.69
21
7.13
0
LINE
8
BLACK
10
17.69
20
7.13
11
17.69
21
7.526
0
LINE
8
BLACK
10
17.69
20
7.526
11
16.2872
21
7.526
0
LINE
8
BLACK
10
16.2872
20
7.526
11
15.3316
21
6.57039
0
LINE
8
BLACK
10
15.3316
20
6.57039
11
15.3225
21
6.56398
0
LINE
8
BLACK
10
15.3225
20
6.56398
11
15.3153
21
6.55542
0
LINE
8
BLACK
10
15.3153
20
6.55542
11
15.2865
21
6.53883
0
LINE
8
BLACK
10
15.2865
20
6.53883
11
15.2593
21
6.5198
0
LINE
8
BLACK
10
15.2593
20
6.5198
11
15.2486
21
6.51691
0
LINE
8
BLACK
10
15.2486
20
6.51691
11
15.2389
21
6.51132
0
LINE
8
BLACK
10
15.2389
20
6.51132
11
15.2062
21
6.50555
0
LINE
8
BLACK
10
15.2062
20
6.50555
11
15.1741
21
6.49697
0
LINE
8
BLACK
10
15.1741
20
6.49697
11
15.163
21
6.49794
0
LINE
8
BLACK
10
15.163
20
6.49794
11
15.152
21
6.496
0
LINE
8
BLACK
10
15.152
20
6.496
11
13.54
21
6.496
0
LINE
8
BLACK
10
13.54
20
6.496
11
13.529
21
6.49794
0
LINE
8
BLACK
10
13.529
20
6.49794
11
13.5179
21
6.49697
0
LINE
8
BLACK
10
13.5179
20
6.49697
11
13.4858
21
6.50555
0
LINE
8
BLACK
10
13.4858
20
6.50555
11
13.4531
21
6.51132
0
LINE
8
BLACK
10
13.4531
20
6.51132
11
13.4434
21
6.51691
0
LINE
8
BLACK
10
13.4434
20
6.51691
11
13.4327
21
6.5198
0
LINE
8
BLACK
10
13.4327
20
6.5198
11
13.4055
21
6.53883
0
LINE
8
BLACK
10
13.4055
20
6.53883
11
13.3767
21
6.55542
0
LINE
8
BLACK
10
13.3767
20
6.55542
11
13.3695
21
6.56398
0
LINE
8
BLACK
10
13.3695
20
6.56398
11
13.3604
21
6.57039
0
LINE
8
BLACK
10
13.3604
20
6.57039
11
13.125
21
6.80579
0
LINE
8
BLACK
10
13.125
20
6.80579
11
11.99
21
5.67079
0
LINE
8
BLACK
10
11.99
20
5.67079
11
11.99
21
4.68
0
LINE
8
BLACK
10
11.99
20
4.68
11
10.29
21
4.68
0
LINE
8
BLACK
10
10.29
20
4.68
11
10.29
21
5.68
0
LINE
8
BLACK
10
10.29
20
5.68
11
11.2808
21
5.68
0
LINE
8
BLACK
10
11.2808
20
5.68
11
12.871
21
7.27021
0
LINE
8
BLACK
10
12.871
20
7.27021
11
12.871
21
8.005
0
LINE
8
BLACK
10
12.871
20
8.005
11
12.85
21
8.005
0
LINE
8
BLACK
10
12.85
20
8.005
11
12.85
21
9.755
0
LINE
8
BLACK
10
12.85
20
9.755
11
13.4
21
9.755
0
LINE
8
BLACK
10
13.4
20
9.755
11
13.4
21
8.005
0
LINE
8
BLACK
10
22.142
20
20.637
11
21.634
21
20.637
0
LINE
8
BLACK
10
21.634
20
20.637
11
21.634
21
15.84
0
LINE
8
BLACK
10
21.634
20
15.84
11
21.6321
21
15.829
0
LINE
8
BLACK
10
21.6321
20
15.829
11
21.633
21
15.8179
0
LINE
8
BLACK
10
21.633
20
15.8179
11
21.6244
21
15.7858
0
LINE
8
BLACK
10
21.6244
20
15.7858
11
21.6187
21
15.7531
0
LINE
8
BLACK
10
21.6187
20
15.7531
11
21.6131
21
15.7434
0
LINE
8
BLACK
10
21.6131
20
15.7434
11
21.6102
21
15.7327
0
LINE
8
BLACK
10
21.6102
20
15.7327
11
21.5912
21
15.7055
0
LINE
8
BLACK
10
21.5912
20
15.7055
11
21.5746
21
15.6767
0
LINE
8
BLACK
10
21.5746
20
15.6767
11
21.566
21
15.6695
0
LINE
8
BLACK
10
21.566
20
15.6695
11
21.5596
21
15.6604
0
LINE
8
BLACK
10
21.5596
20
15.6604
11
17.2196
21
11.3204
0
LINE
8
BLACK
10
17.2196
20
11.3204
11
17.2105
21
11.314
0
LINE
8
BLACK
10
17.2105
20
11.314
11
17.2033
21
11.3054
0
LINE
8
BLACK
10
17.2033
20
11.3054
11
17.1745
21
11.2888
0
LINE
8
BLACK
10
17.1745
20
11.2888
11
17.1473
21
11.2698
0
LINE
8
BLACK
10
17.1473
20
11.2698
11
17.1366
21
11.2669
0
LINE
8
BLACK
10
17.1366
20
11.2669
11
17.1269
21
11.2613
0
LINE
8
BLACK
10
17.1269
20
11.2613
11
17.0942
21
11.2556
0
LINE
8
BLACK
10
17.0942
20
11.2556
11
17.0621
21
11.247
0
LINE
8
BLACK
10
17.0621
20
11.247
11
17.051
21
11.2479
0
LINE
8
BLACK
10
17.051
20
11.2479
11
17.04
21
11.246
0
LINE
8
BLACK
10
17.04
20
11.246
11
11.4052
21
11.246
0
LINE
8
BLACK
10
11.4052
20
11.246
11
10.839
21
10.6798
0
LINE
8
BLACK
10
10.839
20
10.6798
11
10.839
21
9.755
0
LINE
8
BLACK
10
10.839
20
9.755
11
10.86
21
9.755
0
LINE
8
BLACK
10
10.86
20
9.755
11
10.86
21
8.005
0
LINE
8
BLACK
10
10.86
20
8.005
11
10.31
21
8.005
0
LINE
8
BLACK
10
10.31
20
8.005
11
10.31
21
9.755
0
LINE
8
BLACK
10
10.31
20
9.755
11
10.331
21
9.755
0
LINE
8
BLACK
10
10.331
20
9.755
11
10.331
21
10.785
0
LINE
8
BLACK
10
10.331
20
10.785
11
10.3329
21
10.796
0
LINE
8
BLACK
10
10.3329
20
10.796
11
10.332
21
10.8071
0
LINE
8
BLACK
10
10.332
20
10.8071
11
10.3406
21
10.8392
0
LINE
8
BLACK
10
10.3406
20
10.8392
11
10.3463
21
10.8719
0
LINE
8
BLACK
10
10.3463
20
10.8719
11
10.3519
21
10.8816
0
LINE
8
BLACK
10
10.3519
20
10.8816
11
10.3548
21
10.8923
0
LINE
8
BLACK
10
10.3548
20
10.8923
11
10.3738
21
10.9195
0
LINE
8
BLACK
10
10.3738
20
10.9195
11
10.3904
21
10.9483
0
LINE
8
BLACK
10
10.3904
20
10.9483
11
10.399
21
10.9555
0
LINE
8
BLACK
10
10.399
20
10.9555
11
10.4054
21
10.9646
0
LINE
8
BLACK
10
10.4054
20
10.9646
11
11.1204
21
11.6796
0
LINE
8
BLACK
10
11.1204
20
11.6796
11
11.1295
21
11.686
0
LINE
8
BLACK
10
11.1295
20
11.686
11
11.1367
21
11.6946
0
LINE
8
BLACK
10
11.1367
20
11.6946
11
11.1655
21
11.7112
0
LINE
8
BLACK
10
11.1655
20
11.7112
11
11.1927
21
11.7302
0
LINE
8
BLACK
10
11.1927
20
11.7302
11
11.2034
21
11.7331
0
LINE
8
BLACK
10
11.2034
20
11.7331
11
11.2131
21
11.7387
0
LINE
8
BLACK
10
11.2131
20
11.7387
11
11.2458
21
11.7444
0
LINE
8
BLACK
10
11.2458
20
11.7444
11
11.2779
21
11.753
0
LINE
8
BLACK
10
11.2779
20
11.753
11
11.289
21
11.7521
0
LINE
8
BLACK
10
11.289
20
11.7521
11
11.3
21
11.754
0
LINE
8
BLACK
10
11.3
20
11.754
11
16.9348
21
11.754
0
LINE
8
BLACK
10
16.9348
20
11.754
11
21.126
21
15.9452
0
LINE
8
BLACK
10
21.126
20
15.9452
11
21.126
21
20.637
0
LINE
8
BLACK
10
21.126
20
20.637
11
20.618
21
20.637
0
LINE
8
BLACK
10
20.618
20
20.637
11
20.618
21
22.923
0
LINE
8
BLACK
10
20.618
20
22.923
11
22.142
21
22.923
0
LINE
8
BLACK
10
22.142
20
22.923
11
22.142
21
20.637
0
LINE
8
BLACK
10
19.0921
20
16.119
11
19.093
21
16.1079
0
LINE
8
BLACK
10
19.093
20
16.1079
11
19.0844
21
16.0758
0
LINE
8
BLACK
10
19.0844
20
16.0758
11
19.0787
21
16.0431
0
LINE
8
BLACK
10
19.0787
20
16.0431
11
19.0731
21
16.0334
0
LINE
8
BLACK
10
19.0731
20
16.0334
11
19.0702
21
16.0227
0
LINE
8
BLACK
10
19.0702
20
16.0227
11
19.0512
21
15.9955
0
LINE
8
BLACK
10
19.0512
20
15.9955
11
19.0346
21
15.9667
0
LINE
8
BLACK
10
19.0346
20
15.9667
11
19.026
21
15.9595
0
LINE
8
BLACK
10
19.026
20
15.9595
11
19.0196
21
15.9504
0
LINE
8
BLACK
10
19.0196
20
15.9504
11
15.9196
21
12.8504
0
LINE
8
BLACK
10
15.9196
20
12.8504
11
15.9105
21
12.844
0
LINE
8
BLACK
10
15.9105
20
12.844
11
15.9033
21
12.8354
0
LINE
8
BLACK
10
15.9033
20
12.8354
11
15.8745
21
12.8188
0
LINE
8
BLACK
10
15.8745
20
12.8188
11
15.8473
21
12.7998
0
LINE
8
BLACK
10
15.8473
20
12.7998
11
15.8366
21
12.7969
0
LINE
8
BLACK
10
15.8366
20
12.7969
11
15.8269
21
12.7913
0
LINE
8
BLACK
10
15.8269
20
12.7913
11
15.7942
21
12.7856
0
LINE
8
BLACK
10
15.7942
20
12.7856
11
15.7621
21
12.777
0
LINE
8
BLACK
10
15.7621
20
12.777
11
15.751
21
12.7779
0
LINE
8
BLACK
10
15.751
20
12.7779
11
15.74
21
12.776
0
LINE
8
BLACK
10
15.74
20
12.776
11
13.022
21
12.776
0
LINE
8
BLACK
10
13.022
20
12.776
11
13.011
21
12.7779
0
LINE
8
BLACK
10
13.011
20
12.7779
11
12.9999
21
12.777
0
LINE
8
BLACK
10
12.9999
20
12.777
11
12.9678
21
12.7856
0
LINE
8
BLACK
10
12.9678
20
12.7856
11
12.9351
21
12.7913
0
LINE
8
BLACK
10
12.9351
20
12.7913
11
12.9254
21
12.7969
0
LINE
8
BLACK
10
12.9254
20
12.7969
11
12.9147
21
12.7998
0
LINE
8
BLACK
10
12.9147
20
12.7998
11
12.8875
21
12.8188
0
LINE
8
BLACK
10
12.8875
20
12.8188
11
12.8587
21
12.8354
0
LINE
8
BLACK
10
12.8587
20
12.8354
11
12.8515
21
12.844
0
LINE
8
BLACK
10
12.8515
20
12.844
11
12.8424
21
12.8504
0
LINE
8
BLACK
10
12.8424
20
12.8504
11
11.6754
21
14.0174
0
LINE
8
BLACK
10
11.6754
20
14.0174
11
11.669
21
14.0265
0
LINE
8
BLACK
10
11.669
20
14.0265
11
11.6604
21
14.0337
0
LINE
8
BLACK
10
11.6604
20
14.0337
11
11.6438
21
14.0625
0
LINE
8
BLACK
10
11.6438
20
14.0625
11
11.6248
21
14.0897
0
LINE
8
BLACK
10
11.6248
20
14.0897
11
11.6219
21
14.1004
0
LINE
8
BLACK
10
11.6219
20
14.1004
11
11.6163
21
14.1101
0
LINE
8
BLACK
10
11.6163
20
14.1101
11
11.6106
21
14.1428
0
LINE
8
BLACK
10
11.6106
20
14.1428
11
11.602
21
14.1749
0
LINE
8
BLACK
10
11.602
20
14.1749
11
11.6029
21
14.186
0
LINE
8
BLACK
10
11.6029
20
14.186
11
11.601
21
14.197
0
LINE
8
BLACK
10
11.601
20
14.197
11
11.601
21
15.405
0
LINE
8
BLACK
10
11.601
20
15.405
11
11.58
21
15.405
0
LINE
8
BLACK
10
11.58
20
15.405
11
11.58
21
17.155
0
LINE
8
BLACK
10
11.58
20
17.155
11
12.13
21
17.155
0
LINE
8
BLACK
10
12.13
20
17.155
11
12.13
21
15.405
0
LINE
8
BLACK
10
12.13
20
15.405
11
12.109
21
15.405
0
LINE
8
BLACK
10
12.109
20
15.405
11
12.109
21
14.3022
0
LINE
8
BLACK
10
12.109
20
14.3022
11
13.1272
21
13.284
0
LINE
8
BLACK
10
13.1272
20
13.284
11
15.6348
21
13.284
0
LINE
8
BLACK
10
15.6348
20
13.284
11
18.586
21
16.2352
0
LINE
8
BLACK
10
18.586
20
16.2352
11
18.586
21
20.637
0
LINE
8
BLACK
10
18.586
20
20.637
11
18.078
21
20.637
0
LINE
8
BLACK
10
18.078
20
20.637
11
18.078
21
22.923
0
LINE
8
BLACK
10
18.078
20
22.923
11
19.602
21
22.923
0
LINE
8
BLACK
10
19.602
20
22.923
11
19.602
21
20.637
0
LINE
8
BLACK
10
19.602
20
20.637
11
19.094
21
20.637
0
LINE
8
BLACK
10
19.094
20
20.637
11
19.094
21
16.13
0
LINE
8
BLACK
10
19.094
20
16.13
11
19.0921
21
16.119
0
LINE
8
BLACK
10
14.522
20
20.637
11
14.194
21
20.637
0
LINE
8
BLACK
10
14.194
20
20.637
11
14.194
21
19.65
0
LINE
8
BLACK
10
14.194
20
19.65
11
14.1921
21
19.639
0
LINE
8
BLACK
10
14.1921
20
19.639
11
14.193
21
19.6279
0
LINE
8
BLACK
10
14.193
20
19.6279
11
14.1844
21
19.5958
0
LINE
8
BLACK
10
14.1844
20
19.5958
11
14.1787
21
19.5631
0
LINE
8
BLACK
10
14.1787
20
19.5631
11
14.1731
21
19.5534
0
LINE
8
BLACK
10
14.1731
20
19.5534
11
14.1702
21
19.5427
0
LINE
8
BLACK
10
14.1702
20
19.5427
11
14.1512
21
19.5155
0
LINE
8
BLACK
10
14.1512
20
19.5155
11
14.1346
21
19.4867
0
LINE
8
BLACK
10
14.1346
20
19.4867
11
14.126
21
19.4795
0
LINE
8
BLACK
10
14.126
20
19.4795
11
14.1196
21
19.4704
0
LINE
8
BLACK
10
14.1196
20
19.4704
11
13.76
21
19.1108
0
LINE
8
BLACK
10
13.76
20
19.1108
11
13.76
21
18.47
0
LINE
8
BLACK
10
13.76
20
18.47
11
13.664
21
18.47
0
LINE
8
BLACK
10
13.664
20
18.47
11
13.664
21
18.26
0
LINE
8
BLACK
10
13.664
20
18.26
11
13.6621
21
18.249
0
LINE
8
BLACK
10
13.6621
20
18.249
11
13.663
21
18.2379
0
LINE
8
BLACK
10
13.663
20
18.2379
11
13.6544
21
18.2058
0
LINE
8
BLACK
10
13.6544
20
18.2058
11
13.6487
21
18.1731
0
LINE
8
BLACK
10
13.6487
20
18.1731
11
13.6431
21
18.1634
0
LINE
8
BLACK
10
13.6431
20
18.1634
11
13.6402
21
18.1527
0
LINE
8
BLACK
10
13.6402
20
18.1527
11
13.6212
21
18.1255
0
LINE
8
BLACK
10
13.6212
20
18.1255
11
13.6046
21
18.0967
0
LINE
8
BLACK
10
13.6046
20
18.0967
11
13.596
21
18.0895
0
LINE
8
BLACK
10
13.596
20
18.0895
11
13.5896
21
18.0804
0
LINE
8
BLACK
10
13.5896
20
18.0804
11
13.379
21
17.8698
0
LINE
8
BLACK
10
13.379
20
17.8698
11
13.379
21
17.155
0
LINE
8
BLACK
10
13.379
20
17.155
11
13.4
21
17.155
0
LINE
8
BLACK
10
13.4
20
17.155
11
13.4
21
15.405
0
LINE
8
BLACK
10
13.4
20
15.405
11
12.85
21
15.405
0
LINE
8
BLACK
10
12.85
20
15.405
11
12.85
21
17.155
0
LINE
8
BLACK
10
12.85
20
17.155
11
12.871
21
17.155
0
LINE
8
BLACK
10
12.871
20
17.155
11
12.871
21
17.975
0
LINE
8
BLACK
10
12.871
20
17.975
11
12.8729
21
17.986
0
LINE
8
BLACK
10
12.8729
20
17.986
11
12.872
21
17.9971
0
LINE
8
BLACK
10
12.872
20
17.9971
11
12.8806
21
18.0292
0
LINE
8
BLACK
10
12.8806
20
18.0292
11
12.8863
21
18.0619
0
LINE
8
BLACK
10
12.8863
20
18.0619
11
12.8919
21
18.0716
0
LINE
8
BLACK
10
12.8919
20
18.0716
11
12.8948
21
18.0823
0
LINE
8
BLACK
10
12.8948
20
18.0823
11
12.9138
21
18.1095
0
LINE
8
BLACK
10
12.9138
20
18.1095
11
12.9304
21
18.1383
0
LINE
8
BLACK
10
12.9304
20
18.1383
11
12.939
21
18.1455
0
LINE
8
BLACK
10
12.939
20
18.1455
11
12.9454
21
18.1546
0
LINE
8
BLACK
10
12.9454
20
18.1546
11
13.156
21
18.3652
0
LINE
8
BLACK
10
13.156
20
18.3652
11
13.156
21
18.47
0
LINE
8
BLACK
10
13.156
20
18.47
11
13.06
21
18.47
0
LINE
8
BLACK
10
13.06
20
18.47
11
13.06
21
19.77
0
LINE
8
BLACK
10
13.06
20
19.77
11
13.686
21
19.77
0
LINE
8
BLACK
10
13.686
20
19.77
11
13.686
21
20.637
0
LINE
8
BLACK
10
13.686
20
20.637
11
12.998
21
20.637
0
LINE
8
BLACK
10
12.998
20
20.637
11
12.998
21
22.923
0
LINE
8
BLACK
10
12.998
20
22.923
11
14.522
21
22.923
0
LINE
8
BLACK
10
14.522
20
22.923
11
14.522
21
20.637
0
LINE
8
BLACK
10
16.5521
20
17.199
11
16.553
21
17.1879
0
LINE
8
BLACK
10
16.553
20
17.1879
11
16.5444
21
17.1558
0
LINE
8
BLACK
10
16.5444
20
17.1558
11
16.5387
21
17.1231
0
LINE
8
BLACK
10
16.5387
20
17.1231
11
16.5331
21
17.1134
0
LINE
8
BLACK
10
16.5331
20
17.1134
11
16.5302
21
17.1027
0
LINE
8
BLACK
10
16.5302
20
17.1027
11
16.5112
21
17.0755
0
LINE
8
BLACK
10
16.5112
20
17.0755
11
16.4946
21
17.0467
0
LINE
8
BLACK
10
16.4946
20
17.0467
11
16.486
21
17.0395
0
LINE
8
BLACK
10
16.486
20
17.0395
11
16.4796
21
17.0304
0
LINE
8
BLACK
10
16.4796
20
17.0304
11
15.5496
21
16.1004
0
LINE
8
BLACK
10
15.5496
20
16.1004
11
15.5405
21
16.094
0
LINE
8
BLACK
10
15.5405
20
16.094
11
15.5333
21
16.0854
0
LINE
8
BLACK
10
15.5333
20
16.0854
11
15.5045
21
16.0688
0
LINE
8
BLACK
10
15.5045
20
16.0688
11
15.4773
21
16.0498
0
LINE
8
BLACK
10
15.4773
20
16.0498
11
15.4666
21
16.0469
0
LINE
8
BLACK
10
15.4666
20
16.0469
11
15.4569
21
16.0413
0
LINE
8
BLACK
10
15.4569
20
16.0413
11
15.4242
21
16.0356
0
LINE
8
BLACK
10
15.4242
20
16.0356
11
15.3921
21
16.027
0
LINE
8
BLACK
10
15.3921
20
16.027
11
15.381
21
16.0279
0
LINE
8
BLACK
10
15.381
20
16.0279
11
15.37
21
16.026
0
LINE
8
BLACK
10
15.37
20
16.026
11
14.67
21
16.026
0
LINE
8
BLACK
10
14.67
20
16.026
11
14.67
21
15.405
0
LINE
8
BLACK
10
14.67
20
15.405
11
14.12
21
15.405
0
LINE
8
BLACK
10
14.12
20
15.405
11
14.12
21
17.155
0
LINE
8
BLACK
10
14.12
20
17.155
11
14.67
21
17.155
0
LINE
8
BLACK
10
14.67
20
17.155
11
14.67
21
16.534
0
LINE
8
BLACK
10
14.67
20
16.534
11
15.2648
21
16.534
0
LINE
8
BLACK
10
15.2648
20
16.534
11
16.046
21
17.3152
0
LINE
8
BLACK
10
16.046
20
17.3152
11
16.046
21
20.637
0
LINE
8
BLACK
10
16.046
20
20.637
11
15.538
21
20.637
0
LINE
8
BLACK
10
15.538
20
20.637
11
15.538
21
22.923
0
LINE
8
BLACK
10
15.538
20
22.923
11
17.062
21
22.923
0
LINE
8
BLACK
10
17.062
20
22.923
11
17.062
21
20.637
0
LINE
8
BLACK
10
17.062
20
20.637
11
16.554
21
20.637
0
LINE
8
BLACK
10
16.554
20
20.637
11
16.554
21
17.21
0
LINE
8
BLACK
10
16.554
20
17.21
11
16.5521
21
17.199
0
LINE
8
BLACK
10
11.982
20
20.637
11
11.244
21
20.637
0
LINE
8
BLACK
10
11.244
20
20.637
11
11.244
21
19.77
0
LINE
8
BLACK
10
11.244
20
19.77
11
11.86
21
19.77
0
LINE
8
BLACK
10
11.86
20
19.77
11
11.86
21
18.47
0
LINE
8
BLACK
10
11.86
20
18.47
11
11.16
21
18.47
0
LINE
8
BLACK
10
11.16
20
18.47
11
11.16
21
19.1108
0
LINE
8
BLACK
10
11.16
20
19.1108
11
10.8104
21
19.4604
0
LINE
8
BLACK
10
10.8104
20
19.4604
11
10.804
21
19.4695
0
LINE
8
BLACK
10
10.804
20
19.4695
11
10.7954
21
19.4767
0
LINE
8
BLACK
10
10.7954
20
19.4767
11
10.7788
21
19.5055
0
LINE
8
BLACK
10
10.7788
20
19.5055
11
10.7598
21
19.5327
0
LINE
8
BLACK
10
10.7598
20
19.5327
11
10.7569
21
19.5434
0
LINE
8
BLACK
10
10.7569
20
19.5434
11
10.7513
21
19.5531
0
LINE
8
BLACK
10
10.7513
20
19.5531
11
10.7456
21
19.5858
0
LINE
8
BLACK
10
10.7456
20
19.5858
11
10.737
21
19.6179
0
LINE
8
BLACK
10
10.737
20
19.6179
11
10.7379
21
19.629
0
LINE
8
BLACK
10
10.7379
20
19.629
11
10.736
21
19.64
0
LINE
8
BLACK
10
10.736
20
19.64
11
10.736
21
20.637
0
LINE
8
BLACK
10
10.736
20
20.637
11
10.458
21
20.637
0
LINE
8
BLACK
10
10.458
20
20.637
11
10.458
21
22.923
0
LINE
8
BLACK
10
10.458
20
22.923
11
11.982
21
22.923
0
LINE
8
BLACK
10
11.982
20
22.923
11
11.982
21
20.637
0
CIRCLE
8
BLACK
10
21.38
20
21.78
40
0.45
0
CIRCLE
8
BLACK
10
18.84
20
21.78
40
0.45
0
CIRCLE
8
BLACK
10
16.3
20
21.78
40
0.45
0
CIRCLE
8
BLACK
10
13.76
20
21.78
40
0.45
0
CIRCLE
8
BLACK
10
11.22
20
21.78
40
0.45
0
CIRCLE
8
BLACK
10
8.68
20
21.78
40
0.45
0
CIRCLE
8
BLACK
10
6.14
20
21.78
40
0.45
0
CIRCLE
8
BLACK
10
3.6
20
21.78
40
0.45
  0
ENDSEC
  0
EOF
