G04 #@! TF.FileFunction,Copper,L1,Top,Signal*
%FSLAX46Y46*%
G04 Gerber Fmt 4.6, Leading zero omitted, Abs format (unit mm)*
G04 Created by KiCad (PCBNEW 4.0.7) date Wed Oct 25 20:42:36 2017*
%MOMM*%
%LPD*%
G01*
G04 APERTURE LIST*
%ADD10C,0.100000*%
%ADD11R,1.600000X1.600000*%
%ADD12O,1.600000X1.600000*%
%ADD13R,1.700000X1.000000*%
%ADD14R,1.550000X0.600000*%
%ADD15R,0.900000X1.300000*%
%ADD16R,0.800000X1.300000*%
%ADD17R,0.800000X0.900000*%
%ADD18R,1.500000X1.300000*%
%ADD19R,1.300000X1.500000*%
%ADD20O,1.854200X2.540000*%
%ADD21R,1.854200X2.540000*%
%ADD22R,2.000000X2.000000*%
%ADD23C,2.000000*%
%ADD24R,3.000000X3.000000*%
%ADD25C,3.000000*%
%ADD26C,1.500000*%
%ADD27C,0.381000*%
%ADD28C,0.508000*%
%ADD29C,0.254000*%
G04 APERTURE END LIST*
D10*
D11*
X17373340Y47597000D03*
D12*
X9753340Y39977000D03*
X14833340Y47597000D03*
X12293340Y39977000D03*
X12293340Y47597000D03*
X14833340Y39977000D03*
X9753340Y47597000D03*
X17373340Y39977000D03*
D13*
X13563600Y16901000D03*
X7263600Y16901000D03*
X13563600Y20701000D03*
X7263600Y20701000D03*
D14*
X16328582Y37350206D03*
X16328582Y36080206D03*
X16328582Y34810206D03*
X16328582Y33540206D03*
X16328582Y32270206D03*
X16328582Y31000206D03*
X16328582Y29730206D03*
X16328582Y28460206D03*
X21728582Y28460206D03*
X21728582Y29730206D03*
X21728582Y31000206D03*
X21728582Y32270206D03*
X21728582Y33540206D03*
X21728582Y34810206D03*
X21728582Y36080206D03*
X21728582Y37350206D03*
D15*
X26643600Y48825000D03*
X28543600Y48825000D03*
D16*
X27593600Y51025000D03*
D17*
X21423600Y49065000D03*
X23323600Y49065000D03*
X22373600Y51065000D03*
D18*
X21094700Y26225500D03*
X23794700Y26225500D03*
X21090900Y24269700D03*
X23790900Y24269700D03*
X17030700Y24269700D03*
X14330700Y24269700D03*
X17034500Y26225500D03*
X14334500Y26225500D03*
X6993600Y26225000D03*
X4293600Y26225000D03*
X9303600Y26225000D03*
X12003600Y26225000D03*
D19*
X14763600Y52925000D03*
X14763600Y50225000D03*
D18*
X17553600Y43395000D03*
X14853600Y43395000D03*
X22453600Y54725000D03*
X25153600Y54725000D03*
D20*
X29403600Y55185000D03*
D21*
X31943600Y55185000D03*
D22*
X22753600Y44195000D03*
D23*
X30353600Y44195000D03*
D13*
X24414480Y14198600D03*
X30714480Y14198600D03*
X24414480Y10398600D03*
X30714480Y10398600D03*
X22137600Y16904000D03*
X15837600Y16904000D03*
X22137600Y20704000D03*
X15837600Y20704000D03*
X15836900Y14198600D03*
X22136900Y14198600D03*
X15836900Y10398600D03*
X22136900Y10398600D03*
X30708600Y16901000D03*
X24408600Y16901000D03*
X30708600Y20701000D03*
X24408600Y20701000D03*
X7263600Y14198600D03*
X13563600Y14198600D03*
X7263600Y10398600D03*
X13563600Y10398600D03*
X22137600Y2743500D03*
X15837600Y2743500D03*
X22137600Y6543500D03*
X15837600Y6543500D03*
D24*
X16593600Y58475000D03*
D25*
X11513600Y58475000D03*
D26*
X5333600Y29695000D03*
X14144620Y29730700D03*
D27*
X21423600Y49065000D02*
X19783600Y50705000D01*
X19783600Y50705000D02*
X19783600Y53415000D01*
X19783600Y53415000D02*
X21093600Y54725000D01*
X21093600Y54725000D02*
X22453600Y54725000D01*
X22373600Y51065000D02*
X24133600Y51065000D01*
X28123600Y55055000D02*
X29503600Y55055000D01*
X24133600Y51065000D02*
X28123600Y55055000D01*
X15837600Y2743500D02*
X8695100Y2743500D01*
X8695100Y2743500D02*
X1862590Y9576010D01*
X1862590Y9576010D02*
X1862590Y47413990D01*
X1862590Y47413990D02*
X4193600Y49745000D01*
X4193600Y49745000D02*
X14423600Y49745000D01*
X14423600Y49745000D02*
X14843600Y50165000D01*
X14833340Y47597000D02*
X14833340Y50155260D01*
X16328582Y36080206D02*
X12748394Y36080206D01*
X12748394Y36080206D02*
X9753340Y39075260D01*
X9753340Y39075260D02*
X9753340Y39977000D01*
X14833340Y39977000D02*
X14833340Y38845448D01*
X14833340Y38845448D02*
X16328582Y37350206D01*
X31733600Y8343900D02*
X33014700Y9625000D01*
X33014700Y9625000D02*
X33243600Y9853900D01*
X34833600Y17086720D02*
X34833600Y11443900D01*
X34833600Y11443900D02*
X33014700Y9625000D01*
X34833600Y27305000D02*
X34833600Y56525000D01*
X34833600Y56525000D02*
X32263600Y59095000D01*
X32263600Y59095000D02*
X17193600Y59095000D01*
X17193600Y59095000D02*
X16593600Y58495000D01*
X16593600Y58495000D02*
X16593600Y58475000D01*
X30714480Y14198600D02*
X31945480Y14198600D01*
X31945480Y14198600D02*
X34833600Y17086720D01*
X34833600Y17086720D02*
X34833600Y27305000D01*
X34833600Y27305000D02*
X24788394Y37350206D01*
X24788394Y37350206D02*
X21728582Y37350206D01*
X14763600Y52925000D02*
X14763600Y56645000D01*
X14763600Y56645000D02*
X16593600Y58475000D01*
X21123600Y8343900D02*
X31733600Y8343900D01*
X15836900Y14198600D02*
X15836900Y13531700D01*
X15836900Y13531700D02*
X21024700Y8343900D01*
X21024700Y8343900D02*
X21123600Y8343900D01*
X6014700Y8343900D02*
X21123600Y8343900D01*
X7263600Y14198600D02*
X5327200Y14198600D01*
X5327200Y14198600D02*
X4223600Y13095000D01*
X4223600Y13095000D02*
X4223600Y10135000D01*
X4223600Y10135000D02*
X6014700Y8343900D01*
X17373340Y39977000D02*
X20000134Y37350206D01*
X20000134Y37350206D02*
X21728582Y37350206D01*
X15836100Y14224000D02*
X15836100Y13615200D01*
X15836100Y14224000D02*
X15836100Y13793000D01*
D28*
X7263600Y16901000D02*
X7263600Y14198600D01*
X13563600Y14198600D02*
X15810700Y14198600D01*
X15810700Y14198600D02*
X15836100Y14224000D01*
X13563600Y16901000D02*
X13563600Y14198600D01*
X15837600Y16904000D02*
X13566600Y16904000D01*
X13566600Y16904000D02*
X13563600Y16901000D01*
X15836100Y14224000D02*
X15836100Y16902500D01*
X15836100Y16902500D02*
X15837600Y16904000D01*
X30708600Y16901000D02*
X30708600Y14224000D01*
X22136100Y14224000D02*
X22136100Y16902500D01*
X22136100Y16902500D02*
X22137600Y16904000D01*
X24408600Y14224000D02*
X22136100Y14224000D01*
X24408600Y16901000D02*
X24408600Y14224000D01*
X22137600Y16904000D02*
X24405600Y16904000D01*
X24405600Y16904000D02*
X24408600Y16901000D01*
X24408600Y14224000D02*
X24758600Y14224000D01*
X24758600Y14224000D02*
X27457400Y11525200D01*
X27457400Y11525200D02*
X27457400Y10007600D01*
X27457400Y10007600D02*
X29019500Y8445500D01*
D27*
X23323600Y49065000D02*
X26383600Y49065000D01*
X26383600Y49065000D02*
X26623600Y48825000D01*
X14853600Y43395000D02*
X14853600Y44426000D01*
X14853600Y44426000D02*
X16122600Y45695000D01*
X16122600Y45695000D02*
X20133600Y45695000D01*
X20133600Y45695000D02*
X23323600Y48885000D01*
X23323600Y48885000D02*
X23323600Y49065000D01*
X14853600Y43395000D02*
X14953600Y43395000D01*
X14853600Y43395000D02*
X15283600Y43395000D01*
X12293340Y39977000D02*
X12293340Y42304740D01*
X12293340Y42304740D02*
X13413600Y43425000D01*
X13413600Y43425000D02*
X14923600Y43425000D01*
X27553600Y50965000D02*
X28066500Y50965000D01*
X31943600Y54842100D02*
X31943600Y55185000D01*
X28066500Y50965000D02*
X31943600Y54842100D01*
X25153600Y54725000D02*
X25153600Y56825000D01*
X25153600Y56825000D02*
X26143600Y57815000D01*
X30613600Y57815000D02*
X31943600Y56485000D01*
X26143600Y57815000D02*
X30613600Y57815000D01*
X31943600Y56485000D02*
X31943600Y55185000D01*
X21728582Y31000206D02*
X22884582Y31000206D01*
X22884582Y31000206D02*
X28102560Y25782228D01*
X28102560Y25782228D02*
X28102560Y13086080D01*
X28102560Y13086080D02*
X30714480Y10474160D01*
X30714480Y10474160D02*
X30714480Y10398600D01*
X21094700Y26225500D02*
X21079460Y26225500D01*
X20198080Y30625704D02*
X20572582Y31000206D01*
X21079460Y26225500D02*
X20198080Y27106880D01*
X20198080Y27106880D02*
X20198080Y30625704D01*
X20572582Y31000206D02*
X21728582Y31000206D01*
X21090900Y24269700D02*
X19959900Y24269700D01*
X19959900Y24269700D02*
X19400520Y24829080D01*
X19400520Y24829080D02*
X19400520Y31631920D01*
X19400520Y31631920D02*
X20038806Y32270206D01*
X20038806Y32270206D02*
X21728582Y32270206D01*
X21090900Y24269700D02*
X21090900Y21750700D01*
X21090900Y21750700D02*
X22137600Y20704000D01*
X22137600Y20704000D02*
X22304200Y20704000D01*
X17030700Y24269700D02*
X18161700Y24269700D01*
X18161700Y24269700D02*
X18572480Y24680480D01*
X18572480Y24680480D02*
X18572480Y32523880D01*
X18572480Y32523880D02*
X19588806Y33540206D01*
X19588806Y33540206D02*
X21728582Y33540206D01*
X17030700Y24269700D02*
X17030700Y23238700D01*
X17030700Y23238700D02*
X18277840Y21991560D01*
X18277840Y21991560D02*
X18277840Y14274800D01*
X18277840Y14274800D02*
X22136900Y10415740D01*
X22136900Y10415740D02*
X22136900Y10398600D01*
X17729200Y26898600D02*
X17729200Y33400600D01*
X19157080Y34828480D02*
X21757640Y34828480D01*
X17729200Y33400600D02*
X19157080Y34828480D01*
X21728582Y34810206D02*
X22884582Y34810206D01*
X22884582Y34810206D02*
X30708600Y26986188D01*
X30708600Y26986188D02*
X30708600Y21582000D01*
X30708600Y21582000D02*
X30708600Y20701000D01*
X7263600Y10398600D02*
X8494600Y10398600D01*
X8494600Y10398600D02*
X13563600Y10398600D01*
X16328582Y34810206D02*
X13258806Y34810206D01*
X13258806Y34810206D02*
X6993600Y28545000D01*
X6993600Y28545000D02*
X6993600Y26225000D01*
X6993600Y26225000D02*
X6993600Y24775000D01*
X6993600Y24775000D02*
X9803600Y21965000D01*
X9803600Y21965000D02*
X9803600Y13635000D01*
X9803600Y13635000D02*
X13040000Y10398600D01*
X13040000Y10398600D02*
X13563600Y10398600D01*
X16328582Y33540206D02*
X14068806Y33540206D01*
X14068806Y33540206D02*
X9303600Y28775000D01*
X9303600Y28775000D02*
X9303600Y27256000D01*
X9303600Y27256000D02*
X9303600Y26225000D01*
X9303600Y26225000D02*
X9303600Y24611000D01*
X9303600Y24611000D02*
X13213600Y20701000D01*
X13213600Y20701000D02*
X13563600Y20701000D01*
X17553600Y43395000D02*
X21953600Y43395000D01*
X21953600Y43395000D02*
X22753600Y44195000D01*
X22483600Y44575000D02*
X22493600Y44585000D01*
X12303600Y47535000D02*
X12303600Y46475000D01*
X12303600Y46475000D02*
X5333600Y39505000D01*
X5333600Y39505000D02*
X5333600Y30755660D01*
X5333600Y30755660D02*
X5333600Y29695000D01*
X14145114Y29730206D02*
X14144620Y29730700D01*
X16328582Y29730206D02*
X14145114Y29730206D01*
D29*
G36*
X37291600Y647000D02*
X695600Y647000D01*
X695600Y47413990D01*
X1195090Y47413990D01*
X1195090Y9576010D01*
X1245900Y9320568D01*
X1390596Y9104016D01*
X8223106Y2271506D01*
X8439658Y2126810D01*
X8695100Y2076000D01*
X14532774Y2076000D01*
X14534517Y2066735D01*
X14638985Y1904387D01*
X14798385Y1795473D01*
X14987600Y1757156D01*
X16687600Y1757156D01*
X16864365Y1790417D01*
X17026713Y1894885D01*
X17135627Y2054285D01*
X17173944Y2243500D01*
X17173944Y3243500D01*
X20801256Y3243500D01*
X20801256Y2243500D01*
X20834517Y2066735D01*
X20938985Y1904387D01*
X21098385Y1795473D01*
X21287600Y1757156D01*
X22987600Y1757156D01*
X23164365Y1790417D01*
X23326713Y1894885D01*
X23435627Y2054285D01*
X23473944Y2243500D01*
X23473944Y3243500D01*
X23440683Y3420265D01*
X23336215Y3582613D01*
X23176815Y3691527D01*
X22987600Y3729844D01*
X21287600Y3729844D01*
X21110835Y3696583D01*
X20948487Y3592115D01*
X20839573Y3432715D01*
X20801256Y3243500D01*
X17173944Y3243500D01*
X17140683Y3420265D01*
X17036215Y3582613D01*
X16876815Y3691527D01*
X16687600Y3729844D01*
X14987600Y3729844D01*
X14810835Y3696583D01*
X14648487Y3592115D01*
X14539573Y3432715D01*
X14535176Y3411000D01*
X8971588Y3411000D01*
X6118838Y6263750D01*
X14360600Y6263750D01*
X14360600Y5918782D01*
X14456055Y5688333D01*
X14632433Y5511955D01*
X14862882Y5416500D01*
X15557850Y5416500D01*
X15714600Y5573250D01*
X15714600Y6420500D01*
X15960600Y6420500D01*
X15960600Y5573250D01*
X16117350Y5416500D01*
X16812318Y5416500D01*
X17042767Y5511955D01*
X17219145Y5688333D01*
X17314600Y5918782D01*
X17314600Y6263750D01*
X20660600Y6263750D01*
X20660600Y5918782D01*
X20756055Y5688333D01*
X20932433Y5511955D01*
X21162882Y5416500D01*
X21857850Y5416500D01*
X22014600Y5573250D01*
X22014600Y6420500D01*
X22260600Y6420500D01*
X22260600Y5573250D01*
X22417350Y5416500D01*
X23112318Y5416500D01*
X23342767Y5511955D01*
X23519145Y5688333D01*
X23614600Y5918782D01*
X23614600Y6263750D01*
X23457850Y6420500D01*
X22260600Y6420500D01*
X22014600Y6420500D01*
X20817350Y6420500D01*
X20660600Y6263750D01*
X17314600Y6263750D01*
X17157850Y6420500D01*
X15960600Y6420500D01*
X15714600Y6420500D01*
X14517350Y6420500D01*
X14360600Y6263750D01*
X6118838Y6263750D01*
X5214370Y7168218D01*
X14360600Y7168218D01*
X14360600Y6823250D01*
X14517350Y6666500D01*
X15714600Y6666500D01*
X15714600Y7513750D01*
X15960600Y7513750D01*
X15960600Y6666500D01*
X17157850Y6666500D01*
X17314600Y6823250D01*
X17314600Y7168218D01*
X20660600Y7168218D01*
X20660600Y6823250D01*
X20817350Y6666500D01*
X22014600Y6666500D01*
X22014600Y7513750D01*
X22260600Y7513750D01*
X22260600Y6666500D01*
X23457850Y6666500D01*
X23614600Y6823250D01*
X23614600Y7168218D01*
X23519145Y7398667D01*
X23342767Y7575045D01*
X23112318Y7670500D01*
X22417350Y7670500D01*
X22260600Y7513750D01*
X22014600Y7513750D01*
X21857850Y7670500D01*
X21162882Y7670500D01*
X20932433Y7575045D01*
X20756055Y7398667D01*
X20660600Y7168218D01*
X17314600Y7168218D01*
X17219145Y7398667D01*
X17042767Y7575045D01*
X16812318Y7670500D01*
X16117350Y7670500D01*
X15960600Y7513750D01*
X15714600Y7513750D01*
X15557850Y7670500D01*
X14862882Y7670500D01*
X14632433Y7575045D01*
X14456055Y7398667D01*
X14360600Y7168218D01*
X5214370Y7168218D01*
X2530090Y9852498D01*
X2530090Y21201000D01*
X5927256Y21201000D01*
X5927256Y20201000D01*
X5960517Y20024235D01*
X6064985Y19861887D01*
X6224385Y19752973D01*
X6413600Y19714656D01*
X8113600Y19714656D01*
X8290365Y19747917D01*
X8452713Y19852385D01*
X8561627Y20011785D01*
X8599944Y20201000D01*
X8599944Y21201000D01*
X8566683Y21377765D01*
X8462215Y21540113D01*
X8302815Y21649027D01*
X8113600Y21687344D01*
X6413600Y21687344D01*
X6236835Y21654083D01*
X6074487Y21549615D01*
X5965573Y21390215D01*
X5927256Y21201000D01*
X2530090Y21201000D01*
X2530090Y25945250D01*
X2916600Y25945250D01*
X2916600Y25450282D01*
X3012055Y25219833D01*
X3188433Y25043455D01*
X3418882Y24948000D01*
X4013850Y24948000D01*
X4170600Y25104750D01*
X4170600Y26102000D01*
X4416600Y26102000D01*
X4416600Y25104750D01*
X4573350Y24948000D01*
X5168318Y24948000D01*
X5398767Y25043455D01*
X5575145Y25219833D01*
X5670600Y25450282D01*
X5670600Y25945250D01*
X5513850Y26102000D01*
X4416600Y26102000D01*
X4170600Y26102000D01*
X3073350Y26102000D01*
X2916600Y25945250D01*
X2530090Y25945250D01*
X2530090Y26999718D01*
X2916600Y26999718D01*
X2916600Y26504750D01*
X3073350Y26348000D01*
X4170600Y26348000D01*
X4170600Y27345250D01*
X4416600Y27345250D01*
X4416600Y26348000D01*
X5513850Y26348000D01*
X5670600Y26504750D01*
X5670600Y26999718D01*
X5575145Y27230167D01*
X5398767Y27406545D01*
X5168318Y27502000D01*
X4573350Y27502000D01*
X4416600Y27345250D01*
X4170600Y27345250D01*
X4013850Y27502000D01*
X3418882Y27502000D01*
X3188433Y27406545D01*
X3012055Y27230167D01*
X2916600Y26999718D01*
X2530090Y26999718D01*
X2530090Y47137502D01*
X2645700Y47253112D01*
X8368386Y47253112D01*
X8605410Y46749290D01*
X9017196Y46374524D01*
X9409453Y46212056D01*
X9630340Y46332719D01*
X9630340Y47474000D01*
X8488391Y47474000D01*
X8368386Y47253112D01*
X2645700Y47253112D01*
X3333476Y47940888D01*
X8368386Y47940888D01*
X8488391Y47720000D01*
X9630340Y47720000D01*
X9630340Y48861281D01*
X9409453Y48981944D01*
X9017196Y48819476D01*
X8605410Y48444710D01*
X8368386Y47940888D01*
X3333476Y47940888D01*
X4470088Y49077500D01*
X13850437Y49077500D01*
X13924385Y49026973D01*
X14113600Y48988656D01*
X14165840Y48988656D01*
X14165840Y48682333D01*
X13930365Y48524993D01*
X13653546Y48110705D01*
X13563340Y47657209D01*
X13473134Y48110705D01*
X13196315Y48524993D01*
X12782027Y48801812D01*
X12293340Y48899018D01*
X11804653Y48801812D01*
X11390365Y48524993D01*
X11113546Y48110705D01*
X11097159Y48028324D01*
X10901270Y48444710D01*
X10489484Y48819476D01*
X10097227Y48981944D01*
X9876340Y48861281D01*
X9876340Y47720000D01*
X9896340Y47720000D01*
X9896340Y47474000D01*
X9876340Y47474000D01*
X9876340Y46332719D01*
X10097227Y46212056D01*
X10489484Y46374524D01*
X10901270Y46749290D01*
X11097159Y47165676D01*
X11113546Y47083295D01*
X11390365Y46669007D01*
X11488229Y46603616D01*
X4861606Y39976994D01*
X4716910Y39760442D01*
X4716910Y39760441D01*
X4666100Y39505000D01*
X4666100Y30746810D01*
X4639469Y30735806D01*
X4294007Y30390947D01*
X4106814Y29940136D01*
X4106388Y29452005D01*
X4292794Y29000869D01*
X4637653Y28655407D01*
X5088464Y28468214D01*
X5576595Y28467788D01*
X6027731Y28654194D01*
X6373193Y28999053D01*
X6560386Y29449864D01*
X6560812Y29937995D01*
X6374406Y30389131D01*
X6029547Y30734593D01*
X6001100Y30746405D01*
X6001100Y39228512D01*
X12775591Y46003004D01*
X12775594Y46003006D01*
X12920290Y46219559D01*
X12971101Y46475000D01*
X12971100Y46475005D01*
X12971100Y46518523D01*
X13196315Y46669007D01*
X13473134Y47083295D01*
X13563340Y47536791D01*
X13653546Y47083295D01*
X13930365Y46669007D01*
X14344653Y46392188D01*
X14833340Y46294982D01*
X15322027Y46392188D01*
X15736315Y46669007D01*
X16013134Y47083295D01*
X16086996Y47454624D01*
X16086996Y46797000D01*
X16120257Y46620235D01*
X16224725Y46457887D01*
X16364328Y46362500D01*
X16122600Y46362500D01*
X15867158Y46311690D01*
X15650606Y46166994D01*
X14381606Y44897994D01*
X14236910Y44681442D01*
X14236910Y44681441D01*
X14207054Y44531344D01*
X14103600Y44531344D01*
X13926835Y44498083D01*
X13764487Y44393615D01*
X13655573Y44234215D01*
X13626875Y44092500D01*
X13413600Y44092500D01*
X13158158Y44041690D01*
X12941606Y43896994D01*
X11821346Y42776734D01*
X11676650Y42560182D01*
X11645959Y42405887D01*
X11625840Y42304740D01*
X11625840Y41062333D01*
X11390365Y40904993D01*
X11113546Y40490705D01*
X11023340Y40037209D01*
X10933134Y40490705D01*
X10656315Y40904993D01*
X10242027Y41181812D01*
X9753340Y41279018D01*
X9264653Y41181812D01*
X8850365Y40904993D01*
X8573546Y40490705D01*
X8476340Y40002018D01*
X8476340Y39951982D01*
X8573546Y39463295D01*
X8850365Y39049007D01*
X9127956Y38863526D01*
X9136650Y38819818D01*
X9281346Y38603266D01*
X12276400Y35608212D01*
X12492952Y35463516D01*
X12748394Y35412706D01*
X12982127Y35412706D01*
X12786812Y35282200D01*
X6521606Y29016994D01*
X6376910Y28800442D01*
X6368907Y28760206D01*
X6326100Y28545000D01*
X6326100Y27361344D01*
X6243600Y27361344D01*
X6066835Y27328083D01*
X5904487Y27223615D01*
X5795573Y27064215D01*
X5757256Y26875000D01*
X5757256Y25575000D01*
X5790517Y25398235D01*
X5894985Y25235887D01*
X6054385Y25126973D01*
X6243600Y25088656D01*
X6326100Y25088656D01*
X6326100Y24775000D01*
X6376910Y24519558D01*
X6521606Y24303006D01*
X9136100Y21688512D01*
X9136100Y13635000D01*
X9186910Y13379558D01*
X9331606Y13163006D01*
X11428512Y11066100D01*
X8568426Y11066100D01*
X8566683Y11075365D01*
X8462215Y11237713D01*
X8302815Y11346627D01*
X8113600Y11384944D01*
X6413600Y11384944D01*
X6236835Y11351683D01*
X6074487Y11247215D01*
X5965573Y11087815D01*
X5927256Y10898600D01*
X5927256Y9898600D01*
X5960517Y9721835D01*
X6064985Y9559487D01*
X6224385Y9450573D01*
X6413600Y9412256D01*
X8113600Y9412256D01*
X8290365Y9445517D01*
X8452713Y9549985D01*
X8561627Y9709385D01*
X8566024Y9731100D01*
X12258774Y9731100D01*
X12260517Y9721835D01*
X12364985Y9559487D01*
X12524385Y9450573D01*
X12713600Y9412256D01*
X14413600Y9412256D01*
X14590365Y9445517D01*
X14700945Y9516673D01*
X14797685Y9450573D01*
X14986900Y9412256D01*
X16686900Y9412256D01*
X16863665Y9445517D01*
X17026013Y9549985D01*
X17134927Y9709385D01*
X17173244Y9898600D01*
X17173244Y10898600D01*
X17139983Y11075365D01*
X17035515Y11237713D01*
X16876115Y11346627D01*
X16686900Y11384944D01*
X14986900Y11384944D01*
X14810135Y11351683D01*
X14699555Y11280527D01*
X14602815Y11346627D01*
X14413600Y11384944D01*
X12997644Y11384944D01*
X10471100Y13911488D01*
X10471100Y21965000D01*
X10420290Y22220441D01*
X10420290Y22220442D01*
X10275594Y22436994D01*
X7661100Y25051488D01*
X7661100Y25088656D01*
X7743600Y25088656D01*
X7920365Y25121917D01*
X8082713Y25226385D01*
X8148832Y25323152D01*
X8204985Y25235887D01*
X8364385Y25126973D01*
X8553600Y25088656D01*
X8636100Y25088656D01*
X8636100Y24611000D01*
X8686910Y24355558D01*
X8831606Y24139006D01*
X12227256Y20743356D01*
X12227256Y20201000D01*
X12260517Y20024235D01*
X12364985Y19861887D01*
X12524385Y19752973D01*
X12713600Y19714656D01*
X14413600Y19714656D01*
X14590365Y19747917D01*
X14703566Y19820760D01*
X14798385Y19755973D01*
X14987600Y19717656D01*
X16687600Y19717656D01*
X16864365Y19750917D01*
X17026713Y19855385D01*
X17135627Y20014785D01*
X17173944Y20204000D01*
X17173944Y21204000D01*
X17140683Y21380765D01*
X17036215Y21543113D01*
X16876815Y21652027D01*
X16687600Y21690344D01*
X14987600Y21690344D01*
X14810835Y21657083D01*
X14697634Y21584240D01*
X14602815Y21649027D01*
X14413600Y21687344D01*
X13171244Y21687344D01*
X10868638Y23989950D01*
X12953700Y23989950D01*
X12953700Y23494982D01*
X13049155Y23264533D01*
X13225533Y23088155D01*
X13455982Y22992700D01*
X14050950Y22992700D01*
X14207700Y23149450D01*
X14207700Y24146700D01*
X14453700Y24146700D01*
X14453700Y23149450D01*
X14610450Y22992700D01*
X15205418Y22992700D01*
X15435867Y23088155D01*
X15612245Y23264533D01*
X15707700Y23494982D01*
X15707700Y23989950D01*
X15550950Y24146700D01*
X14453700Y24146700D01*
X14207700Y24146700D01*
X13110450Y24146700D01*
X12953700Y23989950D01*
X10868638Y23989950D01*
X9971100Y24887488D01*
X9971100Y25088656D01*
X10053600Y25088656D01*
X10230365Y25121917D01*
X10392713Y25226385D01*
X10501627Y25385785D01*
X10539944Y25575000D01*
X10539944Y25945250D01*
X10626600Y25945250D01*
X10626600Y25450282D01*
X10722055Y25219833D01*
X10898433Y25043455D01*
X11128882Y24948000D01*
X11723850Y24948000D01*
X11880600Y25104750D01*
X11880600Y26102000D01*
X12126600Y26102000D01*
X12126600Y25104750D01*
X12283350Y24948000D01*
X12878318Y24948000D01*
X12953700Y24979224D01*
X12953700Y24549450D01*
X13110450Y24392700D01*
X14207700Y24392700D01*
X14207700Y25101450D01*
X14211500Y25105250D01*
X14211500Y25389950D01*
X14453700Y25389950D01*
X14453700Y24392700D01*
X15550950Y24392700D01*
X15707700Y24549450D01*
X15707700Y25044418D01*
X15625439Y25243013D01*
X15711500Y25450782D01*
X15711500Y25945750D01*
X15554750Y26102500D01*
X14457500Y26102500D01*
X14457500Y25393750D01*
X14453700Y25389950D01*
X14211500Y25389950D01*
X14211500Y26102500D01*
X13114250Y26102500D01*
X13113750Y26102000D01*
X12126600Y26102000D01*
X11880600Y26102000D01*
X10783350Y26102000D01*
X10626600Y25945250D01*
X10539944Y25945250D01*
X10539944Y26875000D01*
X10516477Y26999718D01*
X10626600Y26999718D01*
X10626600Y26504750D01*
X10783350Y26348000D01*
X11880600Y26348000D01*
X11880600Y27345250D01*
X12126600Y27345250D01*
X12126600Y26348000D01*
X13223850Y26348000D01*
X13224350Y26348500D01*
X14211500Y26348500D01*
X14211500Y27345750D01*
X14457500Y27345750D01*
X14457500Y26348500D01*
X15554750Y26348500D01*
X15711500Y26505250D01*
X15711500Y27000218D01*
X15616045Y27230667D01*
X15439667Y27407045D01*
X15209218Y27502500D01*
X14614250Y27502500D01*
X14457500Y27345750D01*
X14211500Y27345750D01*
X14054750Y27502500D01*
X13459782Y27502500D01*
X13229333Y27407045D01*
X13168800Y27346512D01*
X13108767Y27406545D01*
X12878318Y27502000D01*
X12283350Y27502000D01*
X12126600Y27345250D01*
X11880600Y27345250D01*
X11723850Y27502000D01*
X11128882Y27502000D01*
X10898433Y27406545D01*
X10722055Y27230167D01*
X10626600Y26999718D01*
X10516477Y26999718D01*
X10506683Y27051765D01*
X10402215Y27214113D01*
X10242815Y27323027D01*
X10053600Y27361344D01*
X9971100Y27361344D01*
X9971100Y28180456D01*
X14926582Y28180456D01*
X14926582Y28035488D01*
X15022037Y27805039D01*
X15198415Y27628661D01*
X15428864Y27533206D01*
X16048832Y27533206D01*
X16205582Y27689956D01*
X16205582Y28337206D01*
X15083332Y28337206D01*
X14926582Y28180456D01*
X9971100Y28180456D01*
X9971100Y28498512D01*
X13463044Y31990456D01*
X14926582Y31990456D01*
X14926582Y31845488D01*
X15013684Y31635206D01*
X14926582Y31424924D01*
X14926582Y31279956D01*
X15083332Y31123206D01*
X16205582Y31123206D01*
X16205582Y32147206D01*
X15083332Y32147206D01*
X14926582Y31990456D01*
X13463044Y31990456D01*
X14345294Y32872706D01*
X15000222Y32872706D01*
X14926582Y32694924D01*
X14926582Y32549956D01*
X15083332Y32393206D01*
X16205582Y32393206D01*
X16205582Y32413206D01*
X16451582Y32413206D01*
X16451582Y32393206D01*
X16471582Y32393206D01*
X16471582Y32147206D01*
X16451582Y32147206D01*
X16451582Y31123206D01*
X16471582Y31123206D01*
X16471582Y30877206D01*
X16451582Y30877206D01*
X16451582Y30857206D01*
X16205582Y30857206D01*
X16205582Y30877206D01*
X15083332Y30877206D01*
X14926582Y30720456D01*
X14926582Y30684128D01*
X14840567Y30770293D01*
X14389756Y30957486D01*
X13901625Y30957912D01*
X13450489Y30771506D01*
X13105027Y30426647D01*
X12917834Y29975836D01*
X12917408Y29487705D01*
X13103814Y29036569D01*
X13448673Y28691107D01*
X13899484Y28503914D01*
X14387615Y28503488D01*
X14838751Y28689894D01*
X14926582Y28777572D01*
X14926582Y28739956D01*
X15083332Y28583206D01*
X16205582Y28583206D01*
X16205582Y28603206D01*
X16451582Y28603206D01*
X16451582Y28583206D01*
X16471582Y28583206D01*
X16471582Y28337206D01*
X16451582Y28337206D01*
X16451582Y27689956D01*
X16608332Y27533206D01*
X17061700Y27533206D01*
X17061700Y27361844D01*
X16284500Y27361844D01*
X16107735Y27328583D01*
X15945387Y27224115D01*
X15836473Y27064715D01*
X15798156Y26875500D01*
X15798156Y25575500D01*
X15831417Y25398735D01*
X15928070Y25248532D01*
X15832673Y25108915D01*
X15794356Y24919700D01*
X15794356Y23619700D01*
X15827617Y23442935D01*
X15932085Y23280587D01*
X16091485Y23171673D01*
X16280700Y23133356D01*
X16384154Y23133356D01*
X16414010Y22983258D01*
X16558706Y22766706D01*
X17610340Y21715072D01*
X17610340Y14274800D01*
X17661150Y14019358D01*
X17805846Y13802806D01*
X20800556Y10808096D01*
X20800556Y9898600D01*
X20833817Y9721835D01*
X20938285Y9559487D01*
X21097685Y9450573D01*
X21286900Y9412256D01*
X22986900Y9412256D01*
X23163665Y9445517D01*
X23276449Y9518091D01*
X23375265Y9450573D01*
X23564480Y9412256D01*
X25264480Y9412256D01*
X25441245Y9445517D01*
X25603593Y9549985D01*
X25712507Y9709385D01*
X25750824Y9898600D01*
X25750824Y10898600D01*
X25717563Y11075365D01*
X25613095Y11237713D01*
X25453695Y11346627D01*
X25264480Y11384944D01*
X23564480Y11384944D01*
X23387715Y11351683D01*
X23274931Y11279109D01*
X23176115Y11346627D01*
X22986900Y11384944D01*
X22111684Y11384944D01*
X18945340Y14551288D01*
X18945340Y21991560D01*
X18894530Y22247001D01*
X18894530Y22247002D01*
X18749834Y22463554D01*
X18011805Y23201583D01*
X18119813Y23271085D01*
X18228727Y23430485D01*
X18267044Y23619700D01*
X18267044Y23623154D01*
X18417142Y23653010D01*
X18633694Y23797706D01*
X19044474Y24208486D01*
X19057553Y24228059D01*
X19487906Y23797706D01*
X19704459Y23653010D01*
X19854556Y23623154D01*
X19854556Y23619700D01*
X19887817Y23442935D01*
X19992285Y23280587D01*
X20151685Y23171673D01*
X20340900Y23133356D01*
X20423400Y23133356D01*
X20423400Y21750700D01*
X20474210Y21495258D01*
X20618906Y21278706D01*
X20801256Y21096356D01*
X20801256Y20204000D01*
X20834517Y20027235D01*
X20938985Y19864887D01*
X21098385Y19755973D01*
X21287600Y19717656D01*
X22987600Y19717656D01*
X23164365Y19750917D01*
X23271499Y19819856D01*
X23369385Y19752973D01*
X23558600Y19714656D01*
X25258600Y19714656D01*
X25435365Y19747917D01*
X25597713Y19852385D01*
X25706627Y20011785D01*
X25744944Y20201000D01*
X25744944Y21201000D01*
X25711683Y21377765D01*
X25607215Y21540113D01*
X25447815Y21649027D01*
X25258600Y21687344D01*
X23558600Y21687344D01*
X23381835Y21654083D01*
X23274701Y21585144D01*
X23176815Y21652027D01*
X22987600Y21690344D01*
X22095244Y21690344D01*
X21758400Y22027188D01*
X21758400Y23133356D01*
X21840900Y23133356D01*
X22017665Y23166617D01*
X22180013Y23271085D01*
X22288927Y23430485D01*
X22327244Y23619700D01*
X22327244Y23989950D01*
X22413900Y23989950D01*
X22413900Y23494982D01*
X22509355Y23264533D01*
X22685733Y23088155D01*
X22916182Y22992700D01*
X23511150Y22992700D01*
X23667900Y23149450D01*
X23667900Y24146700D01*
X23913900Y24146700D01*
X23913900Y23149450D01*
X24070650Y22992700D01*
X24665618Y22992700D01*
X24896067Y23088155D01*
X25072445Y23264533D01*
X25167900Y23494982D01*
X25167900Y23989950D01*
X25011150Y24146700D01*
X23913900Y24146700D01*
X23667900Y24146700D01*
X22570650Y24146700D01*
X22413900Y23989950D01*
X22327244Y23989950D01*
X22327244Y24919700D01*
X22303777Y25044418D01*
X22413900Y25044418D01*
X22413900Y24549450D01*
X22570650Y24392700D01*
X23667900Y24392700D01*
X23667900Y25101450D01*
X23671700Y25105250D01*
X23671700Y25389950D01*
X23913900Y25389950D01*
X23913900Y24392700D01*
X25011150Y24392700D01*
X25167900Y24549450D01*
X25167900Y25044418D01*
X25085639Y25243013D01*
X25171700Y25450782D01*
X25171700Y25945750D01*
X25014950Y26102500D01*
X23917700Y26102500D01*
X23917700Y25393750D01*
X23913900Y25389950D01*
X23671700Y25389950D01*
X23671700Y26102500D01*
X22574450Y26102500D01*
X22417700Y25945750D01*
X22417700Y25450782D01*
X22499961Y25252187D01*
X22413900Y25044418D01*
X22303777Y25044418D01*
X22293983Y25096465D01*
X22197330Y25246668D01*
X22292727Y25386285D01*
X22331044Y25575500D01*
X22331044Y26875500D01*
X22307577Y27000218D01*
X22417700Y27000218D01*
X22417700Y26505250D01*
X22574450Y26348500D01*
X23671700Y26348500D01*
X23671700Y27345750D01*
X23917700Y27345750D01*
X23917700Y26348500D01*
X25014950Y26348500D01*
X25171700Y26505250D01*
X25171700Y27000218D01*
X25076245Y27230667D01*
X24899867Y27407045D01*
X24669418Y27502500D01*
X24074450Y27502500D01*
X23917700Y27345750D01*
X23671700Y27345750D01*
X23514950Y27502500D01*
X22919982Y27502500D01*
X22689533Y27407045D01*
X22513155Y27230667D01*
X22417700Y27000218D01*
X22307577Y27000218D01*
X22297783Y27052265D01*
X22193315Y27214613D01*
X22033915Y27323527D01*
X21844700Y27361844D01*
X20887104Y27361844D01*
X20865580Y27383368D01*
X20865580Y27691683D01*
X20953582Y27673862D01*
X22503582Y27673862D01*
X22680347Y27707123D01*
X22842695Y27811591D01*
X22951609Y27970991D01*
X22989926Y28160206D01*
X22989926Y28760206D01*
X22956665Y28936971D01*
X22853463Y29097351D01*
X22951609Y29240991D01*
X22989926Y29430206D01*
X22989926Y29950874D01*
X27435060Y25505740D01*
X27435060Y13086080D01*
X27485870Y12830638D01*
X27630566Y12614086D01*
X29378136Y10866516D01*
X29378136Y9898600D01*
X29411397Y9721835D01*
X29515865Y9559487D01*
X29675265Y9450573D01*
X29864480Y9412256D01*
X31564480Y9412256D01*
X31741245Y9445517D01*
X31903593Y9549985D01*
X32012507Y9709385D01*
X32050824Y9898600D01*
X32050824Y10898600D01*
X32017563Y11075365D01*
X31913095Y11237713D01*
X31753695Y11346627D01*
X31564480Y11384944D01*
X30747684Y11384944D01*
X28770060Y13362568D01*
X28770060Y25782228D01*
X28732699Y25970058D01*
X28719250Y26037670D01*
X28574554Y26254222D01*
X23356576Y31472200D01*
X23140024Y31616896D01*
X22884582Y31667706D01*
X22874204Y31667706D01*
X22951609Y31780991D01*
X22989926Y31970206D01*
X22989926Y32570206D01*
X22956665Y32746971D01*
X22853463Y32907351D01*
X22951609Y33050991D01*
X22989926Y33240206D01*
X22989926Y33760874D01*
X30041100Y26709700D01*
X30041100Y21687344D01*
X29858600Y21687344D01*
X29681835Y21654083D01*
X29519487Y21549615D01*
X29410573Y21390215D01*
X29372256Y21201000D01*
X29372256Y20201000D01*
X29405517Y20024235D01*
X29509985Y19861887D01*
X29669385Y19752973D01*
X29858600Y19714656D01*
X31558600Y19714656D01*
X31735365Y19747917D01*
X31897713Y19852385D01*
X32006627Y20011785D01*
X32044944Y20201000D01*
X32044944Y21201000D01*
X32011683Y21377765D01*
X31907215Y21540113D01*
X31747815Y21649027D01*
X31558600Y21687344D01*
X31376100Y21687344D01*
X31376100Y26986188D01*
X31325290Y27241629D01*
X31180594Y27458182D01*
X23356576Y35282200D01*
X23140024Y35426896D01*
X23043822Y35446031D01*
X23130582Y35655488D01*
X23130582Y35800456D01*
X22973832Y35957206D01*
X21851582Y35957206D01*
X21851582Y35937206D01*
X21605582Y35937206D01*
X21605582Y35957206D01*
X20483332Y35957206D01*
X20326582Y35800456D01*
X20326582Y35655488D01*
X20392652Y35495980D01*
X19157080Y35495980D01*
X18901638Y35445170D01*
X18685086Y35300474D01*
X17495945Y34111333D01*
X17453463Y34177351D01*
X17551609Y34320991D01*
X17589926Y34510206D01*
X17589926Y35110206D01*
X17556665Y35286971D01*
X17453463Y35447351D01*
X17551609Y35590991D01*
X17589926Y35780206D01*
X17589926Y36380206D01*
X17556665Y36556971D01*
X17453463Y36717351D01*
X17551609Y36860991D01*
X17589926Y37050206D01*
X17589926Y37650206D01*
X17556665Y37826971D01*
X17452197Y37989319D01*
X17292797Y38098233D01*
X17103582Y38136550D01*
X16486225Y38136550D01*
X15638876Y38983900D01*
X15736315Y39049007D01*
X16013134Y39463295D01*
X16103340Y39916791D01*
X16193546Y39463295D01*
X16470365Y39049007D01*
X16884653Y38772188D01*
X17373340Y38674982D01*
X17671969Y38734383D01*
X19528140Y36878212D01*
X19744693Y36733516D01*
X20000134Y36682705D01*
X20000139Y36682706D01*
X20400222Y36682706D01*
X20326582Y36504924D01*
X20326582Y36359956D01*
X20483332Y36203206D01*
X21605582Y36203206D01*
X21605582Y36223206D01*
X21851582Y36223206D01*
X21851582Y36203206D01*
X22973832Y36203206D01*
X23130582Y36359956D01*
X23130582Y36504924D01*
X23056942Y36682706D01*
X24511906Y36682706D01*
X34166100Y27028513D01*
X34166100Y17363207D01*
X31870030Y15067138D01*
X31753695Y15146627D01*
X31564480Y15184944D01*
X31439600Y15184944D01*
X31439600Y15914656D01*
X31558600Y15914656D01*
X31735365Y15947917D01*
X31897713Y16052385D01*
X32006627Y16211785D01*
X32044944Y16401000D01*
X32044944Y17401000D01*
X32011683Y17577765D01*
X31907215Y17740113D01*
X31747815Y17849027D01*
X31558600Y17887344D01*
X29858600Y17887344D01*
X29681835Y17854083D01*
X29519487Y17749615D01*
X29410573Y17590215D01*
X29372256Y17401000D01*
X29372256Y16401000D01*
X29405517Y16224235D01*
X29509985Y16061887D01*
X29669385Y15952973D01*
X29858600Y15914656D01*
X29977600Y15914656D01*
X29977600Y15184944D01*
X29864480Y15184944D01*
X29687715Y15151683D01*
X29525367Y15047215D01*
X29416453Y14887815D01*
X29378136Y14698600D01*
X29378136Y13698600D01*
X29411397Y13521835D01*
X29515865Y13359487D01*
X29675265Y13250573D01*
X29864480Y13212256D01*
X31564480Y13212256D01*
X31741245Y13245517D01*
X31903593Y13349985D01*
X32012507Y13509385D01*
X32019902Y13545903D01*
X32200922Y13581910D01*
X32417474Y13726606D01*
X34166100Y15475233D01*
X34166100Y11720388D01*
X31457112Y9011400D01*
X29487390Y9011400D01*
X28188400Y10310390D01*
X28188400Y11525200D01*
X28132757Y11804941D01*
X27974295Y12042095D01*
X25750824Y14265566D01*
X25750824Y14698600D01*
X25717563Y14875365D01*
X25613095Y15037713D01*
X25453695Y15146627D01*
X25264480Y15184944D01*
X25139600Y15184944D01*
X25139600Y15914656D01*
X25258600Y15914656D01*
X25435365Y15947917D01*
X25597713Y16052385D01*
X25706627Y16211785D01*
X25744944Y16401000D01*
X25744944Y17401000D01*
X25711683Y17577765D01*
X25607215Y17740113D01*
X25447815Y17849027D01*
X25258600Y17887344D01*
X23558600Y17887344D01*
X23381835Y17854083D01*
X23274701Y17785144D01*
X23176815Y17852027D01*
X22987600Y17890344D01*
X21287600Y17890344D01*
X21110835Y17857083D01*
X20948487Y17752615D01*
X20839573Y17593215D01*
X20801256Y17404000D01*
X20801256Y16404000D01*
X20834517Y16227235D01*
X20938985Y16064887D01*
X21098385Y15955973D01*
X21287600Y15917656D01*
X21405100Y15917656D01*
X21405100Y15184944D01*
X21286900Y15184944D01*
X21110135Y15151683D01*
X20947787Y15047215D01*
X20838873Y14887815D01*
X20800556Y14698600D01*
X20800556Y13698600D01*
X20833817Y13521835D01*
X20938285Y13359487D01*
X21097685Y13250573D01*
X21286900Y13212256D01*
X22986900Y13212256D01*
X23163665Y13245517D01*
X23276449Y13318091D01*
X23375265Y13250573D01*
X23564480Y13212256D01*
X24736554Y13212256D01*
X26726400Y11222410D01*
X26726400Y10007600D01*
X26782044Y9727858D01*
X26825377Y9663006D01*
X26940505Y9490705D01*
X27419810Y9011400D01*
X21301188Y9011400D01*
X16987430Y13325158D01*
X17026013Y13349985D01*
X17134927Y13509385D01*
X17173244Y13698600D01*
X17173244Y14698600D01*
X17139983Y14875365D01*
X17035515Y15037713D01*
X16876115Y15146627D01*
X16686900Y15184944D01*
X16567100Y15184944D01*
X16567100Y15917656D01*
X16687600Y15917656D01*
X16864365Y15950917D01*
X17026713Y16055385D01*
X17135627Y16214785D01*
X17173944Y16404000D01*
X17173944Y17404000D01*
X17140683Y17580765D01*
X17036215Y17743113D01*
X16876815Y17852027D01*
X16687600Y17890344D01*
X14987600Y17890344D01*
X14810835Y17857083D01*
X14697634Y17784240D01*
X14602815Y17849027D01*
X14413600Y17887344D01*
X12713600Y17887344D01*
X12536835Y17854083D01*
X12374487Y17749615D01*
X12265573Y17590215D01*
X12227256Y17401000D01*
X12227256Y16401000D01*
X12260517Y16224235D01*
X12364985Y16061887D01*
X12524385Y15952973D01*
X12713600Y15914656D01*
X12832600Y15914656D01*
X12832600Y15184944D01*
X12713600Y15184944D01*
X12536835Y15151683D01*
X12374487Y15047215D01*
X12265573Y14887815D01*
X12227256Y14698600D01*
X12227256Y13698600D01*
X12260517Y13521835D01*
X12364985Y13359487D01*
X12524385Y13250573D01*
X12713600Y13212256D01*
X14413600Y13212256D01*
X14590365Y13245517D01*
X14700945Y13316673D01*
X14797685Y13250573D01*
X14986900Y13212256D01*
X15262975Y13212256D01*
X15364906Y13059706D01*
X19413212Y9011400D01*
X6291188Y9011400D01*
X4891100Y10411488D01*
X4891100Y12818512D01*
X5603688Y13531100D01*
X5958774Y13531100D01*
X5960517Y13521835D01*
X6064985Y13359487D01*
X6224385Y13250573D01*
X6413600Y13212256D01*
X8113600Y13212256D01*
X8290365Y13245517D01*
X8452713Y13349985D01*
X8561627Y13509385D01*
X8599944Y13698600D01*
X8599944Y14698600D01*
X8566683Y14875365D01*
X8462215Y15037713D01*
X8302815Y15146627D01*
X8113600Y15184944D01*
X7994600Y15184944D01*
X7994600Y15914656D01*
X8113600Y15914656D01*
X8290365Y15947917D01*
X8452713Y16052385D01*
X8561627Y16211785D01*
X8599944Y16401000D01*
X8599944Y17401000D01*
X8566683Y17577765D01*
X8462215Y17740113D01*
X8302815Y17849027D01*
X8113600Y17887344D01*
X6413600Y17887344D01*
X6236835Y17854083D01*
X6074487Y17749615D01*
X5965573Y17590215D01*
X5927256Y17401000D01*
X5927256Y16401000D01*
X5960517Y16224235D01*
X6064985Y16061887D01*
X6224385Y15952973D01*
X6413600Y15914656D01*
X6532600Y15914656D01*
X6532600Y15184944D01*
X6413600Y15184944D01*
X6236835Y15151683D01*
X6074487Y15047215D01*
X5965573Y14887815D01*
X5961176Y14866100D01*
X5327200Y14866100D01*
X5071758Y14815290D01*
X4855206Y14670594D01*
X3751606Y13566994D01*
X3606910Y13350442D01*
X3606910Y13350441D01*
X3556100Y13095000D01*
X3556100Y10135000D01*
X3606910Y9879558D01*
X3751606Y9663006D01*
X5542706Y7871906D01*
X5759258Y7727210D01*
X6014700Y7676400D01*
X31733600Y7676400D01*
X31989042Y7727210D01*
X32205594Y7871906D01*
X35305594Y10971906D01*
X35450290Y11188458D01*
X35501100Y11443900D01*
X35501100Y27304995D01*
X35501101Y27305000D01*
X35501100Y27305005D01*
X35501100Y56525000D01*
X35476030Y56651036D01*
X35450290Y56780442D01*
X35305594Y56996994D01*
X32735594Y59566994D01*
X32519042Y59711690D01*
X32263600Y59762500D01*
X18579944Y59762500D01*
X18579944Y59975000D01*
X18546683Y60151765D01*
X18442215Y60314113D01*
X18282815Y60423027D01*
X18093600Y60461344D01*
X15093600Y60461344D01*
X14916835Y60428083D01*
X14754487Y60323615D01*
X14645573Y60164215D01*
X14607256Y59975000D01*
X14607256Y57432644D01*
X14291606Y57116994D01*
X14146910Y56900442D01*
X14131904Y56825000D01*
X14096100Y56645000D01*
X14096100Y54158051D01*
X13936835Y54128083D01*
X13774487Y54023615D01*
X13665573Y53864215D01*
X13627256Y53675000D01*
X13627256Y52175000D01*
X13660517Y51998235D01*
X13764985Y51835887D01*
X13924385Y51726973D01*
X14113600Y51688656D01*
X15413600Y51688656D01*
X15590365Y51721917D01*
X15752713Y51826385D01*
X15861627Y51985785D01*
X15899944Y52175000D01*
X15899944Y53675000D01*
X15866683Y53851765D01*
X15762215Y54014113D01*
X15602815Y54123027D01*
X15431100Y54157800D01*
X15431100Y56368512D01*
X15551244Y56488656D01*
X18093600Y56488656D01*
X18270365Y56521917D01*
X18432713Y56626385D01*
X18541627Y56785785D01*
X18579944Y56975000D01*
X18579944Y58427500D01*
X25881888Y58427500D01*
X25671606Y58286994D01*
X25671604Y58286991D01*
X24681606Y57296994D01*
X24536910Y57080442D01*
X24536910Y57080441D01*
X24486100Y56825000D01*
X24486100Y55861344D01*
X24403600Y55861344D01*
X24226835Y55828083D01*
X24064487Y55723615D01*
X23955573Y55564215D01*
X23917256Y55375000D01*
X23917256Y54075000D01*
X23950517Y53898235D01*
X24054985Y53735887D01*
X24214385Y53626973D01*
X24403600Y53588656D01*
X25713268Y53588656D01*
X23857112Y51732500D01*
X23200471Y51732500D01*
X23122215Y51854113D01*
X22962815Y51963027D01*
X22773600Y52001344D01*
X21973600Y52001344D01*
X21796835Y51968083D01*
X21634487Y51863615D01*
X21525573Y51704215D01*
X21487256Y51515000D01*
X21487256Y50615000D01*
X21520517Y50438235D01*
X21624985Y50275887D01*
X21784385Y50166973D01*
X21973600Y50128656D01*
X22773600Y50128656D01*
X22950365Y50161917D01*
X23112713Y50266385D01*
X23202301Y50397500D01*
X24133600Y50397500D01*
X24389042Y50448310D01*
X24605594Y50593006D01*
X28177179Y54164591D01*
X28410751Y53815025D01*
X28866274Y53510655D01*
X29403600Y53403774D01*
X29600441Y53442928D01*
X28240871Y52083359D01*
X28182815Y52123027D01*
X27993600Y52161344D01*
X27193600Y52161344D01*
X27016835Y52128083D01*
X26854487Y52023615D01*
X26745573Y51864215D01*
X26707256Y51675000D01*
X26707256Y50375000D01*
X26740517Y50198235D01*
X26844985Y50035887D01*
X26954082Y49961344D01*
X26193600Y49961344D01*
X26016835Y49928083D01*
X25854487Y49823615D01*
X25792230Y49732500D01*
X24150471Y49732500D01*
X24072215Y49854113D01*
X23912815Y49963027D01*
X23723600Y50001344D01*
X22923600Y50001344D01*
X22746835Y49968083D01*
X22584487Y49863615D01*
X22475573Y49704215D01*
X22437256Y49515000D01*
X22437256Y48942644D01*
X22309944Y48815332D01*
X22309944Y49515000D01*
X22276683Y49691765D01*
X22172215Y49854113D01*
X22012815Y49963027D01*
X21823600Y50001344D01*
X21431244Y50001344D01*
X20451100Y50981488D01*
X20451100Y53138512D01*
X21244231Y53931643D01*
X21250517Y53898235D01*
X21354985Y53735887D01*
X21514385Y53626973D01*
X21703600Y53588656D01*
X23203600Y53588656D01*
X23380365Y53621917D01*
X23542713Y53726385D01*
X23651627Y53885785D01*
X23689944Y54075000D01*
X23689944Y55375000D01*
X23656683Y55551765D01*
X23552215Y55714113D01*
X23392815Y55823027D01*
X23203600Y55861344D01*
X21703600Y55861344D01*
X21526835Y55828083D01*
X21364487Y55723615D01*
X21255573Y55564215D01*
X21220800Y55392500D01*
X21093600Y55392500D01*
X20838159Y55341690D01*
X20621606Y55196994D01*
X19311606Y53886994D01*
X19166910Y53670442D01*
X19166910Y53670441D01*
X19116100Y53415000D01*
X19116100Y50705000D01*
X19166910Y50449558D01*
X19311606Y50233006D01*
X20537256Y49007356D01*
X20537256Y48615000D01*
X20570517Y48438235D01*
X20674985Y48275887D01*
X20834385Y48166973D01*
X21023600Y48128656D01*
X21623268Y48128656D01*
X19857112Y46362500D01*
X18378984Y46362500D01*
X18512453Y46448385D01*
X18621367Y46607785D01*
X18659684Y46797000D01*
X18659684Y48397000D01*
X18626423Y48573765D01*
X18521955Y48736113D01*
X18362555Y48845027D01*
X18173340Y48883344D01*
X16573340Y48883344D01*
X16396575Y48850083D01*
X16234227Y48745615D01*
X16125313Y48586215D01*
X16086996Y48397000D01*
X16086996Y47739376D01*
X16013134Y48110705D01*
X15736315Y48524993D01*
X15500840Y48682333D01*
X15500840Y49005072D01*
X15590365Y49021917D01*
X15752713Y49126385D01*
X15861627Y49285785D01*
X15899944Y49475000D01*
X15899944Y50975000D01*
X15866683Y51151765D01*
X15762215Y51314113D01*
X15602815Y51423027D01*
X15413600Y51461344D01*
X14113600Y51461344D01*
X13936835Y51428083D01*
X13774487Y51323615D01*
X13665573Y51164215D01*
X13627256Y50975000D01*
X13627256Y50412500D01*
X4193600Y50412500D01*
X3938158Y50361690D01*
X3721606Y50216994D01*
X1390596Y47885984D01*
X1245900Y47669432D01*
X1245900Y47669431D01*
X1195090Y47413990D01*
X695600Y47413990D01*
X695600Y56968044D01*
X10180593Y56968044D01*
X10340448Y56651036D01*
X11127750Y56340931D01*
X11973794Y56355718D01*
X12686752Y56651036D01*
X12846607Y56968044D01*
X11513600Y58301052D01*
X10180593Y56968044D01*
X695600Y56968044D01*
X695600Y58860850D01*
X9379531Y58860850D01*
X9394318Y58014806D01*
X9689636Y57301848D01*
X10006644Y57141993D01*
X11339652Y58475000D01*
X11687548Y58475000D01*
X13020556Y57141993D01*
X13337564Y57301848D01*
X13647669Y58089150D01*
X13632882Y58935194D01*
X13337564Y59648152D01*
X13020556Y59808007D01*
X11687548Y58475000D01*
X11339652Y58475000D01*
X10006644Y59808007D01*
X9689636Y59648152D01*
X9379531Y58860850D01*
X695600Y58860850D01*
X695600Y59981956D01*
X10180593Y59981956D01*
X11513600Y58648948D01*
X12846607Y59981956D01*
X12686752Y60298964D01*
X11899450Y60609069D01*
X11053406Y60594282D01*
X10340448Y60298964D01*
X10180593Y59981956D01*
X695600Y59981956D01*
X695600Y62543000D01*
X37291600Y62543000D01*
X37291600Y647000D01*
X37291600Y647000D01*
G37*
X37291600Y647000D02*
X695600Y647000D01*
X695600Y47413990D01*
X1195090Y47413990D01*
X1195090Y9576010D01*
X1245900Y9320568D01*
X1390596Y9104016D01*
X8223106Y2271506D01*
X8439658Y2126810D01*
X8695100Y2076000D01*
X14532774Y2076000D01*
X14534517Y2066735D01*
X14638985Y1904387D01*
X14798385Y1795473D01*
X14987600Y1757156D01*
X16687600Y1757156D01*
X16864365Y1790417D01*
X17026713Y1894885D01*
X17135627Y2054285D01*
X17173944Y2243500D01*
X17173944Y3243500D01*
X20801256Y3243500D01*
X20801256Y2243500D01*
X20834517Y2066735D01*
X20938985Y1904387D01*
X21098385Y1795473D01*
X21287600Y1757156D01*
X22987600Y1757156D01*
X23164365Y1790417D01*
X23326713Y1894885D01*
X23435627Y2054285D01*
X23473944Y2243500D01*
X23473944Y3243500D01*
X23440683Y3420265D01*
X23336215Y3582613D01*
X23176815Y3691527D01*
X22987600Y3729844D01*
X21287600Y3729844D01*
X21110835Y3696583D01*
X20948487Y3592115D01*
X20839573Y3432715D01*
X20801256Y3243500D01*
X17173944Y3243500D01*
X17140683Y3420265D01*
X17036215Y3582613D01*
X16876815Y3691527D01*
X16687600Y3729844D01*
X14987600Y3729844D01*
X14810835Y3696583D01*
X14648487Y3592115D01*
X14539573Y3432715D01*
X14535176Y3411000D01*
X8971588Y3411000D01*
X6118838Y6263750D01*
X14360600Y6263750D01*
X14360600Y5918782D01*
X14456055Y5688333D01*
X14632433Y5511955D01*
X14862882Y5416500D01*
X15557850Y5416500D01*
X15714600Y5573250D01*
X15714600Y6420500D01*
X15960600Y6420500D01*
X15960600Y5573250D01*
X16117350Y5416500D01*
X16812318Y5416500D01*
X17042767Y5511955D01*
X17219145Y5688333D01*
X17314600Y5918782D01*
X17314600Y6263750D01*
X20660600Y6263750D01*
X20660600Y5918782D01*
X20756055Y5688333D01*
X20932433Y5511955D01*
X21162882Y5416500D01*
X21857850Y5416500D01*
X22014600Y5573250D01*
X22014600Y6420500D01*
X22260600Y6420500D01*
X22260600Y5573250D01*
X22417350Y5416500D01*
X23112318Y5416500D01*
X23342767Y5511955D01*
X23519145Y5688333D01*
X23614600Y5918782D01*
X23614600Y6263750D01*
X23457850Y6420500D01*
X22260600Y6420500D01*
X22014600Y6420500D01*
X20817350Y6420500D01*
X20660600Y6263750D01*
X17314600Y6263750D01*
X17157850Y6420500D01*
X15960600Y6420500D01*
X15714600Y6420500D01*
X14517350Y6420500D01*
X14360600Y6263750D01*
X6118838Y6263750D01*
X5214370Y7168218D01*
X14360600Y7168218D01*
X14360600Y6823250D01*
X14517350Y6666500D01*
X15714600Y6666500D01*
X15714600Y7513750D01*
X15960600Y7513750D01*
X15960600Y6666500D01*
X17157850Y6666500D01*
X17314600Y6823250D01*
X17314600Y7168218D01*
X20660600Y7168218D01*
X20660600Y6823250D01*
X20817350Y6666500D01*
X22014600Y6666500D01*
X22014600Y7513750D01*
X22260600Y7513750D01*
X22260600Y6666500D01*
X23457850Y6666500D01*
X23614600Y6823250D01*
X23614600Y7168218D01*
X23519145Y7398667D01*
X23342767Y7575045D01*
X23112318Y7670500D01*
X22417350Y7670500D01*
X22260600Y7513750D01*
X22014600Y7513750D01*
X21857850Y7670500D01*
X21162882Y7670500D01*
X20932433Y7575045D01*
X20756055Y7398667D01*
X20660600Y7168218D01*
X17314600Y7168218D01*
X17219145Y7398667D01*
X17042767Y7575045D01*
X16812318Y7670500D01*
X16117350Y7670500D01*
X15960600Y7513750D01*
X15714600Y7513750D01*
X15557850Y7670500D01*
X14862882Y7670500D01*
X14632433Y7575045D01*
X14456055Y7398667D01*
X14360600Y7168218D01*
X5214370Y7168218D01*
X2530090Y9852498D01*
X2530090Y21201000D01*
X5927256Y21201000D01*
X5927256Y20201000D01*
X5960517Y20024235D01*
X6064985Y19861887D01*
X6224385Y19752973D01*
X6413600Y19714656D01*
X8113600Y19714656D01*
X8290365Y19747917D01*
X8452713Y19852385D01*
X8561627Y20011785D01*
X8599944Y20201000D01*
X8599944Y21201000D01*
X8566683Y21377765D01*
X8462215Y21540113D01*
X8302815Y21649027D01*
X8113600Y21687344D01*
X6413600Y21687344D01*
X6236835Y21654083D01*
X6074487Y21549615D01*
X5965573Y21390215D01*
X5927256Y21201000D01*
X2530090Y21201000D01*
X2530090Y25945250D01*
X2916600Y25945250D01*
X2916600Y25450282D01*
X3012055Y25219833D01*
X3188433Y25043455D01*
X3418882Y24948000D01*
X4013850Y24948000D01*
X4170600Y25104750D01*
X4170600Y26102000D01*
X4416600Y26102000D01*
X4416600Y25104750D01*
X4573350Y24948000D01*
X5168318Y24948000D01*
X5398767Y25043455D01*
X5575145Y25219833D01*
X5670600Y25450282D01*
X5670600Y25945250D01*
X5513850Y26102000D01*
X4416600Y26102000D01*
X4170600Y26102000D01*
X3073350Y26102000D01*
X2916600Y25945250D01*
X2530090Y25945250D01*
X2530090Y26999718D01*
X2916600Y26999718D01*
X2916600Y26504750D01*
X3073350Y26348000D01*
X4170600Y26348000D01*
X4170600Y27345250D01*
X4416600Y27345250D01*
X4416600Y26348000D01*
X5513850Y26348000D01*
X5670600Y26504750D01*
X5670600Y26999718D01*
X5575145Y27230167D01*
X5398767Y27406545D01*
X5168318Y27502000D01*
X4573350Y27502000D01*
X4416600Y27345250D01*
X4170600Y27345250D01*
X4013850Y27502000D01*
X3418882Y27502000D01*
X3188433Y27406545D01*
X3012055Y27230167D01*
X2916600Y26999718D01*
X2530090Y26999718D01*
X2530090Y47137502D01*
X2645700Y47253112D01*
X8368386Y47253112D01*
X8605410Y46749290D01*
X9017196Y46374524D01*
X9409453Y46212056D01*
X9630340Y46332719D01*
X9630340Y47474000D01*
X8488391Y47474000D01*
X8368386Y47253112D01*
X2645700Y47253112D01*
X3333476Y47940888D01*
X8368386Y47940888D01*
X8488391Y47720000D01*
X9630340Y47720000D01*
X9630340Y48861281D01*
X9409453Y48981944D01*
X9017196Y48819476D01*
X8605410Y48444710D01*
X8368386Y47940888D01*
X3333476Y47940888D01*
X4470088Y49077500D01*
X13850437Y49077500D01*
X13924385Y49026973D01*
X14113600Y48988656D01*
X14165840Y48988656D01*
X14165840Y48682333D01*
X13930365Y48524993D01*
X13653546Y48110705D01*
X13563340Y47657209D01*
X13473134Y48110705D01*
X13196315Y48524993D01*
X12782027Y48801812D01*
X12293340Y48899018D01*
X11804653Y48801812D01*
X11390365Y48524993D01*
X11113546Y48110705D01*
X11097159Y48028324D01*
X10901270Y48444710D01*
X10489484Y48819476D01*
X10097227Y48981944D01*
X9876340Y48861281D01*
X9876340Y47720000D01*
X9896340Y47720000D01*
X9896340Y47474000D01*
X9876340Y47474000D01*
X9876340Y46332719D01*
X10097227Y46212056D01*
X10489484Y46374524D01*
X10901270Y46749290D01*
X11097159Y47165676D01*
X11113546Y47083295D01*
X11390365Y46669007D01*
X11488229Y46603616D01*
X4861606Y39976994D01*
X4716910Y39760442D01*
X4716910Y39760441D01*
X4666100Y39505000D01*
X4666100Y30746810D01*
X4639469Y30735806D01*
X4294007Y30390947D01*
X4106814Y29940136D01*
X4106388Y29452005D01*
X4292794Y29000869D01*
X4637653Y28655407D01*
X5088464Y28468214D01*
X5576595Y28467788D01*
X6027731Y28654194D01*
X6373193Y28999053D01*
X6560386Y29449864D01*
X6560812Y29937995D01*
X6374406Y30389131D01*
X6029547Y30734593D01*
X6001100Y30746405D01*
X6001100Y39228512D01*
X12775591Y46003004D01*
X12775594Y46003006D01*
X12920290Y46219559D01*
X12971101Y46475000D01*
X12971100Y46475005D01*
X12971100Y46518523D01*
X13196315Y46669007D01*
X13473134Y47083295D01*
X13563340Y47536791D01*
X13653546Y47083295D01*
X13930365Y46669007D01*
X14344653Y46392188D01*
X14833340Y46294982D01*
X15322027Y46392188D01*
X15736315Y46669007D01*
X16013134Y47083295D01*
X16086996Y47454624D01*
X16086996Y46797000D01*
X16120257Y46620235D01*
X16224725Y46457887D01*
X16364328Y46362500D01*
X16122600Y46362500D01*
X15867158Y46311690D01*
X15650606Y46166994D01*
X14381606Y44897994D01*
X14236910Y44681442D01*
X14236910Y44681441D01*
X14207054Y44531344D01*
X14103600Y44531344D01*
X13926835Y44498083D01*
X13764487Y44393615D01*
X13655573Y44234215D01*
X13626875Y44092500D01*
X13413600Y44092500D01*
X13158158Y44041690D01*
X12941606Y43896994D01*
X11821346Y42776734D01*
X11676650Y42560182D01*
X11645959Y42405887D01*
X11625840Y42304740D01*
X11625840Y41062333D01*
X11390365Y40904993D01*
X11113546Y40490705D01*
X11023340Y40037209D01*
X10933134Y40490705D01*
X10656315Y40904993D01*
X10242027Y41181812D01*
X9753340Y41279018D01*
X9264653Y41181812D01*
X8850365Y40904993D01*
X8573546Y40490705D01*
X8476340Y40002018D01*
X8476340Y39951982D01*
X8573546Y39463295D01*
X8850365Y39049007D01*
X9127956Y38863526D01*
X9136650Y38819818D01*
X9281346Y38603266D01*
X12276400Y35608212D01*
X12492952Y35463516D01*
X12748394Y35412706D01*
X12982127Y35412706D01*
X12786812Y35282200D01*
X6521606Y29016994D01*
X6376910Y28800442D01*
X6368907Y28760206D01*
X6326100Y28545000D01*
X6326100Y27361344D01*
X6243600Y27361344D01*
X6066835Y27328083D01*
X5904487Y27223615D01*
X5795573Y27064215D01*
X5757256Y26875000D01*
X5757256Y25575000D01*
X5790517Y25398235D01*
X5894985Y25235887D01*
X6054385Y25126973D01*
X6243600Y25088656D01*
X6326100Y25088656D01*
X6326100Y24775000D01*
X6376910Y24519558D01*
X6521606Y24303006D01*
X9136100Y21688512D01*
X9136100Y13635000D01*
X9186910Y13379558D01*
X9331606Y13163006D01*
X11428512Y11066100D01*
X8568426Y11066100D01*
X8566683Y11075365D01*
X8462215Y11237713D01*
X8302815Y11346627D01*
X8113600Y11384944D01*
X6413600Y11384944D01*
X6236835Y11351683D01*
X6074487Y11247215D01*
X5965573Y11087815D01*
X5927256Y10898600D01*
X5927256Y9898600D01*
X5960517Y9721835D01*
X6064985Y9559487D01*
X6224385Y9450573D01*
X6413600Y9412256D01*
X8113600Y9412256D01*
X8290365Y9445517D01*
X8452713Y9549985D01*
X8561627Y9709385D01*
X8566024Y9731100D01*
X12258774Y9731100D01*
X12260517Y9721835D01*
X12364985Y9559487D01*
X12524385Y9450573D01*
X12713600Y9412256D01*
X14413600Y9412256D01*
X14590365Y9445517D01*
X14700945Y9516673D01*
X14797685Y9450573D01*
X14986900Y9412256D01*
X16686900Y9412256D01*
X16863665Y9445517D01*
X17026013Y9549985D01*
X17134927Y9709385D01*
X17173244Y9898600D01*
X17173244Y10898600D01*
X17139983Y11075365D01*
X17035515Y11237713D01*
X16876115Y11346627D01*
X16686900Y11384944D01*
X14986900Y11384944D01*
X14810135Y11351683D01*
X14699555Y11280527D01*
X14602815Y11346627D01*
X14413600Y11384944D01*
X12997644Y11384944D01*
X10471100Y13911488D01*
X10471100Y21965000D01*
X10420290Y22220441D01*
X10420290Y22220442D01*
X10275594Y22436994D01*
X7661100Y25051488D01*
X7661100Y25088656D01*
X7743600Y25088656D01*
X7920365Y25121917D01*
X8082713Y25226385D01*
X8148832Y25323152D01*
X8204985Y25235887D01*
X8364385Y25126973D01*
X8553600Y25088656D01*
X8636100Y25088656D01*
X8636100Y24611000D01*
X8686910Y24355558D01*
X8831606Y24139006D01*
X12227256Y20743356D01*
X12227256Y20201000D01*
X12260517Y20024235D01*
X12364985Y19861887D01*
X12524385Y19752973D01*
X12713600Y19714656D01*
X14413600Y19714656D01*
X14590365Y19747917D01*
X14703566Y19820760D01*
X14798385Y19755973D01*
X14987600Y19717656D01*
X16687600Y19717656D01*
X16864365Y19750917D01*
X17026713Y19855385D01*
X17135627Y20014785D01*
X17173944Y20204000D01*
X17173944Y21204000D01*
X17140683Y21380765D01*
X17036215Y21543113D01*
X16876815Y21652027D01*
X16687600Y21690344D01*
X14987600Y21690344D01*
X14810835Y21657083D01*
X14697634Y21584240D01*
X14602815Y21649027D01*
X14413600Y21687344D01*
X13171244Y21687344D01*
X10868638Y23989950D01*
X12953700Y23989950D01*
X12953700Y23494982D01*
X13049155Y23264533D01*
X13225533Y23088155D01*
X13455982Y22992700D01*
X14050950Y22992700D01*
X14207700Y23149450D01*
X14207700Y24146700D01*
X14453700Y24146700D01*
X14453700Y23149450D01*
X14610450Y22992700D01*
X15205418Y22992700D01*
X15435867Y23088155D01*
X15612245Y23264533D01*
X15707700Y23494982D01*
X15707700Y23989950D01*
X15550950Y24146700D01*
X14453700Y24146700D01*
X14207700Y24146700D01*
X13110450Y24146700D01*
X12953700Y23989950D01*
X10868638Y23989950D01*
X9971100Y24887488D01*
X9971100Y25088656D01*
X10053600Y25088656D01*
X10230365Y25121917D01*
X10392713Y25226385D01*
X10501627Y25385785D01*
X10539944Y25575000D01*
X10539944Y25945250D01*
X10626600Y25945250D01*
X10626600Y25450282D01*
X10722055Y25219833D01*
X10898433Y25043455D01*
X11128882Y24948000D01*
X11723850Y24948000D01*
X11880600Y25104750D01*
X11880600Y26102000D01*
X12126600Y26102000D01*
X12126600Y25104750D01*
X12283350Y24948000D01*
X12878318Y24948000D01*
X12953700Y24979224D01*
X12953700Y24549450D01*
X13110450Y24392700D01*
X14207700Y24392700D01*
X14207700Y25101450D01*
X14211500Y25105250D01*
X14211500Y25389950D01*
X14453700Y25389950D01*
X14453700Y24392700D01*
X15550950Y24392700D01*
X15707700Y24549450D01*
X15707700Y25044418D01*
X15625439Y25243013D01*
X15711500Y25450782D01*
X15711500Y25945750D01*
X15554750Y26102500D01*
X14457500Y26102500D01*
X14457500Y25393750D01*
X14453700Y25389950D01*
X14211500Y25389950D01*
X14211500Y26102500D01*
X13114250Y26102500D01*
X13113750Y26102000D01*
X12126600Y26102000D01*
X11880600Y26102000D01*
X10783350Y26102000D01*
X10626600Y25945250D01*
X10539944Y25945250D01*
X10539944Y26875000D01*
X10516477Y26999718D01*
X10626600Y26999718D01*
X10626600Y26504750D01*
X10783350Y26348000D01*
X11880600Y26348000D01*
X11880600Y27345250D01*
X12126600Y27345250D01*
X12126600Y26348000D01*
X13223850Y26348000D01*
X13224350Y26348500D01*
X14211500Y26348500D01*
X14211500Y27345750D01*
X14457500Y27345750D01*
X14457500Y26348500D01*
X15554750Y26348500D01*
X15711500Y26505250D01*
X15711500Y27000218D01*
X15616045Y27230667D01*
X15439667Y27407045D01*
X15209218Y27502500D01*
X14614250Y27502500D01*
X14457500Y27345750D01*
X14211500Y27345750D01*
X14054750Y27502500D01*
X13459782Y27502500D01*
X13229333Y27407045D01*
X13168800Y27346512D01*
X13108767Y27406545D01*
X12878318Y27502000D01*
X12283350Y27502000D01*
X12126600Y27345250D01*
X11880600Y27345250D01*
X11723850Y27502000D01*
X11128882Y27502000D01*
X10898433Y27406545D01*
X10722055Y27230167D01*
X10626600Y26999718D01*
X10516477Y26999718D01*
X10506683Y27051765D01*
X10402215Y27214113D01*
X10242815Y27323027D01*
X10053600Y27361344D01*
X9971100Y27361344D01*
X9971100Y28180456D01*
X14926582Y28180456D01*
X14926582Y28035488D01*
X15022037Y27805039D01*
X15198415Y27628661D01*
X15428864Y27533206D01*
X16048832Y27533206D01*
X16205582Y27689956D01*
X16205582Y28337206D01*
X15083332Y28337206D01*
X14926582Y28180456D01*
X9971100Y28180456D01*
X9971100Y28498512D01*
X13463044Y31990456D01*
X14926582Y31990456D01*
X14926582Y31845488D01*
X15013684Y31635206D01*
X14926582Y31424924D01*
X14926582Y31279956D01*
X15083332Y31123206D01*
X16205582Y31123206D01*
X16205582Y32147206D01*
X15083332Y32147206D01*
X14926582Y31990456D01*
X13463044Y31990456D01*
X14345294Y32872706D01*
X15000222Y32872706D01*
X14926582Y32694924D01*
X14926582Y32549956D01*
X15083332Y32393206D01*
X16205582Y32393206D01*
X16205582Y32413206D01*
X16451582Y32413206D01*
X16451582Y32393206D01*
X16471582Y32393206D01*
X16471582Y32147206D01*
X16451582Y32147206D01*
X16451582Y31123206D01*
X16471582Y31123206D01*
X16471582Y30877206D01*
X16451582Y30877206D01*
X16451582Y30857206D01*
X16205582Y30857206D01*
X16205582Y30877206D01*
X15083332Y30877206D01*
X14926582Y30720456D01*
X14926582Y30684128D01*
X14840567Y30770293D01*
X14389756Y30957486D01*
X13901625Y30957912D01*
X13450489Y30771506D01*
X13105027Y30426647D01*
X12917834Y29975836D01*
X12917408Y29487705D01*
X13103814Y29036569D01*
X13448673Y28691107D01*
X13899484Y28503914D01*
X14387615Y28503488D01*
X14838751Y28689894D01*
X14926582Y28777572D01*
X14926582Y28739956D01*
X15083332Y28583206D01*
X16205582Y28583206D01*
X16205582Y28603206D01*
X16451582Y28603206D01*
X16451582Y28583206D01*
X16471582Y28583206D01*
X16471582Y28337206D01*
X16451582Y28337206D01*
X16451582Y27689956D01*
X16608332Y27533206D01*
X17061700Y27533206D01*
X17061700Y27361844D01*
X16284500Y27361844D01*
X16107735Y27328583D01*
X15945387Y27224115D01*
X15836473Y27064715D01*
X15798156Y26875500D01*
X15798156Y25575500D01*
X15831417Y25398735D01*
X15928070Y25248532D01*
X15832673Y25108915D01*
X15794356Y24919700D01*
X15794356Y23619700D01*
X15827617Y23442935D01*
X15932085Y23280587D01*
X16091485Y23171673D01*
X16280700Y23133356D01*
X16384154Y23133356D01*
X16414010Y22983258D01*
X16558706Y22766706D01*
X17610340Y21715072D01*
X17610340Y14274800D01*
X17661150Y14019358D01*
X17805846Y13802806D01*
X20800556Y10808096D01*
X20800556Y9898600D01*
X20833817Y9721835D01*
X20938285Y9559487D01*
X21097685Y9450573D01*
X21286900Y9412256D01*
X22986900Y9412256D01*
X23163665Y9445517D01*
X23276449Y9518091D01*
X23375265Y9450573D01*
X23564480Y9412256D01*
X25264480Y9412256D01*
X25441245Y9445517D01*
X25603593Y9549985D01*
X25712507Y9709385D01*
X25750824Y9898600D01*
X25750824Y10898600D01*
X25717563Y11075365D01*
X25613095Y11237713D01*
X25453695Y11346627D01*
X25264480Y11384944D01*
X23564480Y11384944D01*
X23387715Y11351683D01*
X23274931Y11279109D01*
X23176115Y11346627D01*
X22986900Y11384944D01*
X22111684Y11384944D01*
X18945340Y14551288D01*
X18945340Y21991560D01*
X18894530Y22247001D01*
X18894530Y22247002D01*
X18749834Y22463554D01*
X18011805Y23201583D01*
X18119813Y23271085D01*
X18228727Y23430485D01*
X18267044Y23619700D01*
X18267044Y23623154D01*
X18417142Y23653010D01*
X18633694Y23797706D01*
X19044474Y24208486D01*
X19057553Y24228059D01*
X19487906Y23797706D01*
X19704459Y23653010D01*
X19854556Y23623154D01*
X19854556Y23619700D01*
X19887817Y23442935D01*
X19992285Y23280587D01*
X20151685Y23171673D01*
X20340900Y23133356D01*
X20423400Y23133356D01*
X20423400Y21750700D01*
X20474210Y21495258D01*
X20618906Y21278706D01*
X20801256Y21096356D01*
X20801256Y20204000D01*
X20834517Y20027235D01*
X20938985Y19864887D01*
X21098385Y19755973D01*
X21287600Y19717656D01*
X22987600Y19717656D01*
X23164365Y19750917D01*
X23271499Y19819856D01*
X23369385Y19752973D01*
X23558600Y19714656D01*
X25258600Y19714656D01*
X25435365Y19747917D01*
X25597713Y19852385D01*
X25706627Y20011785D01*
X25744944Y20201000D01*
X25744944Y21201000D01*
X25711683Y21377765D01*
X25607215Y21540113D01*
X25447815Y21649027D01*
X25258600Y21687344D01*
X23558600Y21687344D01*
X23381835Y21654083D01*
X23274701Y21585144D01*
X23176815Y21652027D01*
X22987600Y21690344D01*
X22095244Y21690344D01*
X21758400Y22027188D01*
X21758400Y23133356D01*
X21840900Y23133356D01*
X22017665Y23166617D01*
X22180013Y23271085D01*
X22288927Y23430485D01*
X22327244Y23619700D01*
X22327244Y23989950D01*
X22413900Y23989950D01*
X22413900Y23494982D01*
X22509355Y23264533D01*
X22685733Y23088155D01*
X22916182Y22992700D01*
X23511150Y22992700D01*
X23667900Y23149450D01*
X23667900Y24146700D01*
X23913900Y24146700D01*
X23913900Y23149450D01*
X24070650Y22992700D01*
X24665618Y22992700D01*
X24896067Y23088155D01*
X25072445Y23264533D01*
X25167900Y23494982D01*
X25167900Y23989950D01*
X25011150Y24146700D01*
X23913900Y24146700D01*
X23667900Y24146700D01*
X22570650Y24146700D01*
X22413900Y23989950D01*
X22327244Y23989950D01*
X22327244Y24919700D01*
X22303777Y25044418D01*
X22413900Y25044418D01*
X22413900Y24549450D01*
X22570650Y24392700D01*
X23667900Y24392700D01*
X23667900Y25101450D01*
X23671700Y25105250D01*
X23671700Y25389950D01*
X23913900Y25389950D01*
X23913900Y24392700D01*
X25011150Y24392700D01*
X25167900Y24549450D01*
X25167900Y25044418D01*
X25085639Y25243013D01*
X25171700Y25450782D01*
X25171700Y25945750D01*
X25014950Y26102500D01*
X23917700Y26102500D01*
X23917700Y25393750D01*
X23913900Y25389950D01*
X23671700Y25389950D01*
X23671700Y26102500D01*
X22574450Y26102500D01*
X22417700Y25945750D01*
X22417700Y25450782D01*
X22499961Y25252187D01*
X22413900Y25044418D01*
X22303777Y25044418D01*
X22293983Y25096465D01*
X22197330Y25246668D01*
X22292727Y25386285D01*
X22331044Y25575500D01*
X22331044Y26875500D01*
X22307577Y27000218D01*
X22417700Y27000218D01*
X22417700Y26505250D01*
X22574450Y26348500D01*
X23671700Y26348500D01*
X23671700Y27345750D01*
X23917700Y27345750D01*
X23917700Y26348500D01*
X25014950Y26348500D01*
X25171700Y26505250D01*
X25171700Y27000218D01*
X25076245Y27230667D01*
X24899867Y27407045D01*
X24669418Y27502500D01*
X24074450Y27502500D01*
X23917700Y27345750D01*
X23671700Y27345750D01*
X23514950Y27502500D01*
X22919982Y27502500D01*
X22689533Y27407045D01*
X22513155Y27230667D01*
X22417700Y27000218D01*
X22307577Y27000218D01*
X22297783Y27052265D01*
X22193315Y27214613D01*
X22033915Y27323527D01*
X21844700Y27361844D01*
X20887104Y27361844D01*
X20865580Y27383368D01*
X20865580Y27691683D01*
X20953582Y27673862D01*
X22503582Y27673862D01*
X22680347Y27707123D01*
X22842695Y27811591D01*
X22951609Y27970991D01*
X22989926Y28160206D01*
X22989926Y28760206D01*
X22956665Y28936971D01*
X22853463Y29097351D01*
X22951609Y29240991D01*
X22989926Y29430206D01*
X22989926Y29950874D01*
X27435060Y25505740D01*
X27435060Y13086080D01*
X27485870Y12830638D01*
X27630566Y12614086D01*
X29378136Y10866516D01*
X29378136Y9898600D01*
X29411397Y9721835D01*
X29515865Y9559487D01*
X29675265Y9450573D01*
X29864480Y9412256D01*
X31564480Y9412256D01*
X31741245Y9445517D01*
X31903593Y9549985D01*
X32012507Y9709385D01*
X32050824Y9898600D01*
X32050824Y10898600D01*
X32017563Y11075365D01*
X31913095Y11237713D01*
X31753695Y11346627D01*
X31564480Y11384944D01*
X30747684Y11384944D01*
X28770060Y13362568D01*
X28770060Y25782228D01*
X28732699Y25970058D01*
X28719250Y26037670D01*
X28574554Y26254222D01*
X23356576Y31472200D01*
X23140024Y31616896D01*
X22884582Y31667706D01*
X22874204Y31667706D01*
X22951609Y31780991D01*
X22989926Y31970206D01*
X22989926Y32570206D01*
X22956665Y32746971D01*
X22853463Y32907351D01*
X22951609Y33050991D01*
X22989926Y33240206D01*
X22989926Y33760874D01*
X30041100Y26709700D01*
X30041100Y21687344D01*
X29858600Y21687344D01*
X29681835Y21654083D01*
X29519487Y21549615D01*
X29410573Y21390215D01*
X29372256Y21201000D01*
X29372256Y20201000D01*
X29405517Y20024235D01*
X29509985Y19861887D01*
X29669385Y19752973D01*
X29858600Y19714656D01*
X31558600Y19714656D01*
X31735365Y19747917D01*
X31897713Y19852385D01*
X32006627Y20011785D01*
X32044944Y20201000D01*
X32044944Y21201000D01*
X32011683Y21377765D01*
X31907215Y21540113D01*
X31747815Y21649027D01*
X31558600Y21687344D01*
X31376100Y21687344D01*
X31376100Y26986188D01*
X31325290Y27241629D01*
X31180594Y27458182D01*
X23356576Y35282200D01*
X23140024Y35426896D01*
X23043822Y35446031D01*
X23130582Y35655488D01*
X23130582Y35800456D01*
X22973832Y35957206D01*
X21851582Y35957206D01*
X21851582Y35937206D01*
X21605582Y35937206D01*
X21605582Y35957206D01*
X20483332Y35957206D01*
X20326582Y35800456D01*
X20326582Y35655488D01*
X20392652Y35495980D01*
X19157080Y35495980D01*
X18901638Y35445170D01*
X18685086Y35300474D01*
X17495945Y34111333D01*
X17453463Y34177351D01*
X17551609Y34320991D01*
X17589926Y34510206D01*
X17589926Y35110206D01*
X17556665Y35286971D01*
X17453463Y35447351D01*
X17551609Y35590991D01*
X17589926Y35780206D01*
X17589926Y36380206D01*
X17556665Y36556971D01*
X17453463Y36717351D01*
X17551609Y36860991D01*
X17589926Y37050206D01*
X17589926Y37650206D01*
X17556665Y37826971D01*
X17452197Y37989319D01*
X17292797Y38098233D01*
X17103582Y38136550D01*
X16486225Y38136550D01*
X15638876Y38983900D01*
X15736315Y39049007D01*
X16013134Y39463295D01*
X16103340Y39916791D01*
X16193546Y39463295D01*
X16470365Y39049007D01*
X16884653Y38772188D01*
X17373340Y38674982D01*
X17671969Y38734383D01*
X19528140Y36878212D01*
X19744693Y36733516D01*
X20000134Y36682705D01*
X20000139Y36682706D01*
X20400222Y36682706D01*
X20326582Y36504924D01*
X20326582Y36359956D01*
X20483332Y36203206D01*
X21605582Y36203206D01*
X21605582Y36223206D01*
X21851582Y36223206D01*
X21851582Y36203206D01*
X22973832Y36203206D01*
X23130582Y36359956D01*
X23130582Y36504924D01*
X23056942Y36682706D01*
X24511906Y36682706D01*
X34166100Y27028513D01*
X34166100Y17363207D01*
X31870030Y15067138D01*
X31753695Y15146627D01*
X31564480Y15184944D01*
X31439600Y15184944D01*
X31439600Y15914656D01*
X31558600Y15914656D01*
X31735365Y15947917D01*
X31897713Y16052385D01*
X32006627Y16211785D01*
X32044944Y16401000D01*
X32044944Y17401000D01*
X32011683Y17577765D01*
X31907215Y17740113D01*
X31747815Y17849027D01*
X31558600Y17887344D01*
X29858600Y17887344D01*
X29681835Y17854083D01*
X29519487Y17749615D01*
X29410573Y17590215D01*
X29372256Y17401000D01*
X29372256Y16401000D01*
X29405517Y16224235D01*
X29509985Y16061887D01*
X29669385Y15952973D01*
X29858600Y15914656D01*
X29977600Y15914656D01*
X29977600Y15184944D01*
X29864480Y15184944D01*
X29687715Y15151683D01*
X29525367Y15047215D01*
X29416453Y14887815D01*
X29378136Y14698600D01*
X29378136Y13698600D01*
X29411397Y13521835D01*
X29515865Y13359487D01*
X29675265Y13250573D01*
X29864480Y13212256D01*
X31564480Y13212256D01*
X31741245Y13245517D01*
X31903593Y13349985D01*
X32012507Y13509385D01*
X32019902Y13545903D01*
X32200922Y13581910D01*
X32417474Y13726606D01*
X34166100Y15475233D01*
X34166100Y11720388D01*
X31457112Y9011400D01*
X29487390Y9011400D01*
X28188400Y10310390D01*
X28188400Y11525200D01*
X28132757Y11804941D01*
X27974295Y12042095D01*
X25750824Y14265566D01*
X25750824Y14698600D01*
X25717563Y14875365D01*
X25613095Y15037713D01*
X25453695Y15146627D01*
X25264480Y15184944D01*
X25139600Y15184944D01*
X25139600Y15914656D01*
X25258600Y15914656D01*
X25435365Y15947917D01*
X25597713Y16052385D01*
X25706627Y16211785D01*
X25744944Y16401000D01*
X25744944Y17401000D01*
X25711683Y17577765D01*
X25607215Y17740113D01*
X25447815Y17849027D01*
X25258600Y17887344D01*
X23558600Y17887344D01*
X23381835Y17854083D01*
X23274701Y17785144D01*
X23176815Y17852027D01*
X22987600Y17890344D01*
X21287600Y17890344D01*
X21110835Y17857083D01*
X20948487Y17752615D01*
X20839573Y17593215D01*
X20801256Y17404000D01*
X20801256Y16404000D01*
X20834517Y16227235D01*
X20938985Y16064887D01*
X21098385Y15955973D01*
X21287600Y15917656D01*
X21405100Y15917656D01*
X21405100Y15184944D01*
X21286900Y15184944D01*
X21110135Y15151683D01*
X20947787Y15047215D01*
X20838873Y14887815D01*
X20800556Y14698600D01*
X20800556Y13698600D01*
X20833817Y13521835D01*
X20938285Y13359487D01*
X21097685Y13250573D01*
X21286900Y13212256D01*
X22986900Y13212256D01*
X23163665Y13245517D01*
X23276449Y13318091D01*
X23375265Y13250573D01*
X23564480Y13212256D01*
X24736554Y13212256D01*
X26726400Y11222410D01*
X26726400Y10007600D01*
X26782044Y9727858D01*
X26825377Y9663006D01*
X26940505Y9490705D01*
X27419810Y9011400D01*
X21301188Y9011400D01*
X16987430Y13325158D01*
X17026013Y13349985D01*
X17134927Y13509385D01*
X17173244Y13698600D01*
X17173244Y14698600D01*
X17139983Y14875365D01*
X17035515Y15037713D01*
X16876115Y15146627D01*
X16686900Y15184944D01*
X16567100Y15184944D01*
X16567100Y15917656D01*
X16687600Y15917656D01*
X16864365Y15950917D01*
X17026713Y16055385D01*
X17135627Y16214785D01*
X17173944Y16404000D01*
X17173944Y17404000D01*
X17140683Y17580765D01*
X17036215Y17743113D01*
X16876815Y17852027D01*
X16687600Y17890344D01*
X14987600Y17890344D01*
X14810835Y17857083D01*
X14697634Y17784240D01*
X14602815Y17849027D01*
X14413600Y17887344D01*
X12713600Y17887344D01*
X12536835Y17854083D01*
X12374487Y17749615D01*
X12265573Y17590215D01*
X12227256Y17401000D01*
X12227256Y16401000D01*
X12260517Y16224235D01*
X12364985Y16061887D01*
X12524385Y15952973D01*
X12713600Y15914656D01*
X12832600Y15914656D01*
X12832600Y15184944D01*
X12713600Y15184944D01*
X12536835Y15151683D01*
X12374487Y15047215D01*
X12265573Y14887815D01*
X12227256Y14698600D01*
X12227256Y13698600D01*
X12260517Y13521835D01*
X12364985Y13359487D01*
X12524385Y13250573D01*
X12713600Y13212256D01*
X14413600Y13212256D01*
X14590365Y13245517D01*
X14700945Y13316673D01*
X14797685Y13250573D01*
X14986900Y13212256D01*
X15262975Y13212256D01*
X15364906Y13059706D01*
X19413212Y9011400D01*
X6291188Y9011400D01*
X4891100Y10411488D01*
X4891100Y12818512D01*
X5603688Y13531100D01*
X5958774Y13531100D01*
X5960517Y13521835D01*
X6064985Y13359487D01*
X6224385Y13250573D01*
X6413600Y13212256D01*
X8113600Y13212256D01*
X8290365Y13245517D01*
X8452713Y13349985D01*
X8561627Y13509385D01*
X8599944Y13698600D01*
X8599944Y14698600D01*
X8566683Y14875365D01*
X8462215Y15037713D01*
X8302815Y15146627D01*
X8113600Y15184944D01*
X7994600Y15184944D01*
X7994600Y15914656D01*
X8113600Y15914656D01*
X8290365Y15947917D01*
X8452713Y16052385D01*
X8561627Y16211785D01*
X8599944Y16401000D01*
X8599944Y17401000D01*
X8566683Y17577765D01*
X8462215Y17740113D01*
X8302815Y17849027D01*
X8113600Y17887344D01*
X6413600Y17887344D01*
X6236835Y17854083D01*
X6074487Y17749615D01*
X5965573Y17590215D01*
X5927256Y17401000D01*
X5927256Y16401000D01*
X5960517Y16224235D01*
X6064985Y16061887D01*
X6224385Y15952973D01*
X6413600Y15914656D01*
X6532600Y15914656D01*
X6532600Y15184944D01*
X6413600Y15184944D01*
X6236835Y15151683D01*
X6074487Y15047215D01*
X5965573Y14887815D01*
X5961176Y14866100D01*
X5327200Y14866100D01*
X5071758Y14815290D01*
X4855206Y14670594D01*
X3751606Y13566994D01*
X3606910Y13350442D01*
X3606910Y13350441D01*
X3556100Y13095000D01*
X3556100Y10135000D01*
X3606910Y9879558D01*
X3751606Y9663006D01*
X5542706Y7871906D01*
X5759258Y7727210D01*
X6014700Y7676400D01*
X31733600Y7676400D01*
X31989042Y7727210D01*
X32205594Y7871906D01*
X35305594Y10971906D01*
X35450290Y11188458D01*
X35501100Y11443900D01*
X35501100Y27304995D01*
X35501101Y27305000D01*
X35501100Y27305005D01*
X35501100Y56525000D01*
X35476030Y56651036D01*
X35450290Y56780442D01*
X35305594Y56996994D01*
X32735594Y59566994D01*
X32519042Y59711690D01*
X32263600Y59762500D01*
X18579944Y59762500D01*
X18579944Y59975000D01*
X18546683Y60151765D01*
X18442215Y60314113D01*
X18282815Y60423027D01*
X18093600Y60461344D01*
X15093600Y60461344D01*
X14916835Y60428083D01*
X14754487Y60323615D01*
X14645573Y60164215D01*
X14607256Y59975000D01*
X14607256Y57432644D01*
X14291606Y57116994D01*
X14146910Y56900442D01*
X14131904Y56825000D01*
X14096100Y56645000D01*
X14096100Y54158051D01*
X13936835Y54128083D01*
X13774487Y54023615D01*
X13665573Y53864215D01*
X13627256Y53675000D01*
X13627256Y52175000D01*
X13660517Y51998235D01*
X13764985Y51835887D01*
X13924385Y51726973D01*
X14113600Y51688656D01*
X15413600Y51688656D01*
X15590365Y51721917D01*
X15752713Y51826385D01*
X15861627Y51985785D01*
X15899944Y52175000D01*
X15899944Y53675000D01*
X15866683Y53851765D01*
X15762215Y54014113D01*
X15602815Y54123027D01*
X15431100Y54157800D01*
X15431100Y56368512D01*
X15551244Y56488656D01*
X18093600Y56488656D01*
X18270365Y56521917D01*
X18432713Y56626385D01*
X18541627Y56785785D01*
X18579944Y56975000D01*
X18579944Y58427500D01*
X25881888Y58427500D01*
X25671606Y58286994D01*
X25671604Y58286991D01*
X24681606Y57296994D01*
X24536910Y57080442D01*
X24536910Y57080441D01*
X24486100Y56825000D01*
X24486100Y55861344D01*
X24403600Y55861344D01*
X24226835Y55828083D01*
X24064487Y55723615D01*
X23955573Y55564215D01*
X23917256Y55375000D01*
X23917256Y54075000D01*
X23950517Y53898235D01*
X24054985Y53735887D01*
X24214385Y53626973D01*
X24403600Y53588656D01*
X25713268Y53588656D01*
X23857112Y51732500D01*
X23200471Y51732500D01*
X23122215Y51854113D01*
X22962815Y51963027D01*
X22773600Y52001344D01*
X21973600Y52001344D01*
X21796835Y51968083D01*
X21634487Y51863615D01*
X21525573Y51704215D01*
X21487256Y51515000D01*
X21487256Y50615000D01*
X21520517Y50438235D01*
X21624985Y50275887D01*
X21784385Y50166973D01*
X21973600Y50128656D01*
X22773600Y50128656D01*
X22950365Y50161917D01*
X23112713Y50266385D01*
X23202301Y50397500D01*
X24133600Y50397500D01*
X24389042Y50448310D01*
X24605594Y50593006D01*
X28177179Y54164591D01*
X28410751Y53815025D01*
X28866274Y53510655D01*
X29403600Y53403774D01*
X29600441Y53442928D01*
X28240871Y52083359D01*
X28182815Y52123027D01*
X27993600Y52161344D01*
X27193600Y52161344D01*
X27016835Y52128083D01*
X26854487Y52023615D01*
X26745573Y51864215D01*
X26707256Y51675000D01*
X26707256Y50375000D01*
X26740517Y50198235D01*
X26844985Y50035887D01*
X26954082Y49961344D01*
X26193600Y49961344D01*
X26016835Y49928083D01*
X25854487Y49823615D01*
X25792230Y49732500D01*
X24150471Y49732500D01*
X24072215Y49854113D01*
X23912815Y49963027D01*
X23723600Y50001344D01*
X22923600Y50001344D01*
X22746835Y49968083D01*
X22584487Y49863615D01*
X22475573Y49704215D01*
X22437256Y49515000D01*
X22437256Y48942644D01*
X22309944Y48815332D01*
X22309944Y49515000D01*
X22276683Y49691765D01*
X22172215Y49854113D01*
X22012815Y49963027D01*
X21823600Y50001344D01*
X21431244Y50001344D01*
X20451100Y50981488D01*
X20451100Y53138512D01*
X21244231Y53931643D01*
X21250517Y53898235D01*
X21354985Y53735887D01*
X21514385Y53626973D01*
X21703600Y53588656D01*
X23203600Y53588656D01*
X23380365Y53621917D01*
X23542713Y53726385D01*
X23651627Y53885785D01*
X23689944Y54075000D01*
X23689944Y55375000D01*
X23656683Y55551765D01*
X23552215Y55714113D01*
X23392815Y55823027D01*
X23203600Y55861344D01*
X21703600Y55861344D01*
X21526835Y55828083D01*
X21364487Y55723615D01*
X21255573Y55564215D01*
X21220800Y55392500D01*
X21093600Y55392500D01*
X20838159Y55341690D01*
X20621606Y55196994D01*
X19311606Y53886994D01*
X19166910Y53670442D01*
X19166910Y53670441D01*
X19116100Y53415000D01*
X19116100Y50705000D01*
X19166910Y50449558D01*
X19311606Y50233006D01*
X20537256Y49007356D01*
X20537256Y48615000D01*
X20570517Y48438235D01*
X20674985Y48275887D01*
X20834385Y48166973D01*
X21023600Y48128656D01*
X21623268Y48128656D01*
X19857112Y46362500D01*
X18378984Y46362500D01*
X18512453Y46448385D01*
X18621367Y46607785D01*
X18659684Y46797000D01*
X18659684Y48397000D01*
X18626423Y48573765D01*
X18521955Y48736113D01*
X18362555Y48845027D01*
X18173340Y48883344D01*
X16573340Y48883344D01*
X16396575Y48850083D01*
X16234227Y48745615D01*
X16125313Y48586215D01*
X16086996Y48397000D01*
X16086996Y47739376D01*
X16013134Y48110705D01*
X15736315Y48524993D01*
X15500840Y48682333D01*
X15500840Y49005072D01*
X15590365Y49021917D01*
X15752713Y49126385D01*
X15861627Y49285785D01*
X15899944Y49475000D01*
X15899944Y50975000D01*
X15866683Y51151765D01*
X15762215Y51314113D01*
X15602815Y51423027D01*
X15413600Y51461344D01*
X14113600Y51461344D01*
X13936835Y51428083D01*
X13774487Y51323615D01*
X13665573Y51164215D01*
X13627256Y50975000D01*
X13627256Y50412500D01*
X4193600Y50412500D01*
X3938158Y50361690D01*
X3721606Y50216994D01*
X1390596Y47885984D01*
X1245900Y47669432D01*
X1245900Y47669431D01*
X1195090Y47413990D01*
X695600Y47413990D01*
X695600Y56968044D01*
X10180593Y56968044D01*
X10340448Y56651036D01*
X11127750Y56340931D01*
X11973794Y56355718D01*
X12686752Y56651036D01*
X12846607Y56968044D01*
X11513600Y58301052D01*
X10180593Y56968044D01*
X695600Y56968044D01*
X695600Y58860850D01*
X9379531Y58860850D01*
X9394318Y58014806D01*
X9689636Y57301848D01*
X10006644Y57141993D01*
X11339652Y58475000D01*
X11687548Y58475000D01*
X13020556Y57141993D01*
X13337564Y57301848D01*
X13647669Y58089150D01*
X13632882Y58935194D01*
X13337564Y59648152D01*
X13020556Y59808007D01*
X11687548Y58475000D01*
X11339652Y58475000D01*
X10006644Y59808007D01*
X9689636Y59648152D01*
X9379531Y58860850D01*
X695600Y58860850D01*
X695600Y59981956D01*
X10180593Y59981956D01*
X11513600Y58648948D01*
X12846607Y59981956D01*
X12686752Y60298964D01*
X11899450Y60609069D01*
X11053406Y60594282D01*
X10340448Y60298964D01*
X10180593Y59981956D01*
X695600Y59981956D01*
X695600Y62543000D01*
X37291600Y62543000D01*
X37291600Y647000D01*
G36*
X34166100Y56248512D02*
X34166100Y28916487D01*
X25260388Y37822200D01*
X25043836Y37966896D01*
X24788394Y38017706D01*
X22810651Y38017706D01*
X22692797Y38098233D01*
X22503582Y38136550D01*
X20953582Y38136550D01*
X20776817Y38103289D01*
X20643817Y38017706D01*
X20276622Y38017706D01*
X18599240Y39695088D01*
X18650340Y39951982D01*
X18650340Y40002018D01*
X18553134Y40490705D01*
X18276315Y40904993D01*
X17862027Y41181812D01*
X17373340Y41279018D01*
X16884653Y41181812D01*
X16470365Y40904993D01*
X16193546Y40490705D01*
X16103340Y40037209D01*
X16013134Y40490705D01*
X15736315Y40904993D01*
X15322027Y41181812D01*
X14833340Y41279018D01*
X14344653Y41181812D01*
X13930365Y40904993D01*
X13653546Y40490705D01*
X13563340Y40037209D01*
X13473134Y40490705D01*
X13196315Y40904993D01*
X12960840Y41062333D01*
X12960840Y42028252D01*
X13626811Y42694223D01*
X13650517Y42568235D01*
X13754985Y42405887D01*
X13914385Y42296973D01*
X14103600Y42258656D01*
X15603600Y42258656D01*
X15780365Y42291917D01*
X15942713Y42396385D01*
X16051627Y42555785D01*
X16089944Y42745000D01*
X16089944Y44045000D01*
X16317256Y44045000D01*
X16317256Y42745000D01*
X16350517Y42568235D01*
X16454985Y42405887D01*
X16614385Y42296973D01*
X16803600Y42258656D01*
X18303600Y42258656D01*
X18480365Y42291917D01*
X18642713Y42396385D01*
X18751627Y42555785D01*
X18786400Y42727500D01*
X21660546Y42727500D01*
X21753600Y42708656D01*
X23753600Y42708656D01*
X23930365Y42741917D01*
X24092713Y42846385D01*
X24201627Y43005785D01*
X24210465Y43049430D01*
X29381978Y43049430D01*
X29480731Y42784338D01*
X30087011Y42557686D01*
X30733877Y42580300D01*
X31226469Y42784338D01*
X31325222Y43049430D01*
X30353600Y44021052D01*
X29381978Y43049430D01*
X24210465Y43049430D01*
X24239944Y43195000D01*
X24239944Y44461589D01*
X28716286Y44461589D01*
X28738900Y43814723D01*
X28942938Y43322131D01*
X29208030Y43223378D01*
X30179652Y44195000D01*
X30527548Y44195000D01*
X31499170Y43223378D01*
X31764262Y43322131D01*
X31990914Y43928411D01*
X31968300Y44575277D01*
X31764262Y45067869D01*
X31499170Y45166622D01*
X30527548Y44195000D01*
X30179652Y44195000D01*
X29208030Y45166622D01*
X28942938Y45067869D01*
X28716286Y44461589D01*
X24239944Y44461589D01*
X24239944Y45195000D01*
X24212553Y45340570D01*
X29381978Y45340570D01*
X30353600Y44368948D01*
X31325222Y45340570D01*
X31226469Y45605662D01*
X30620189Y45832314D01*
X29973323Y45809700D01*
X29480731Y45605662D01*
X29381978Y45340570D01*
X24212553Y45340570D01*
X24206683Y45371765D01*
X24102215Y45534113D01*
X23942815Y45643027D01*
X23753600Y45681344D01*
X21753600Y45681344D01*
X21576835Y45648083D01*
X21414487Y45543615D01*
X21305573Y45384215D01*
X21267256Y45195000D01*
X21267256Y44062500D01*
X18786651Y44062500D01*
X18756683Y44221765D01*
X18652215Y44384113D01*
X18492815Y44493027D01*
X18303600Y44531344D01*
X16803600Y44531344D01*
X16626835Y44498083D01*
X16464487Y44393615D01*
X16355573Y44234215D01*
X16317256Y44045000D01*
X16089944Y44045000D01*
X16056683Y44221765D01*
X15952215Y44384113D01*
X15835470Y44463882D01*
X16399088Y45027500D01*
X20133600Y45027500D01*
X20389042Y45078310D01*
X20605594Y45223006D01*
X23511244Y48128656D01*
X23723600Y48128656D01*
X23900365Y48161917D01*
X24062713Y48266385D01*
X24152301Y48397500D01*
X25707256Y48397500D01*
X25707256Y48175000D01*
X25740517Y47998235D01*
X25844985Y47835887D01*
X26004385Y47726973D01*
X26193600Y47688656D01*
X27093600Y47688656D01*
X27270365Y47721917D01*
X27432713Y47826385D01*
X27541627Y47985785D01*
X27579944Y48175000D01*
X27579944Y49475000D01*
X27546683Y49651765D01*
X27442215Y49814113D01*
X27333118Y49888656D01*
X27855564Y49888656D01*
X27754487Y49823615D01*
X27645573Y49664215D01*
X27607256Y49475000D01*
X27607256Y48175000D01*
X27640517Y47998235D01*
X27744985Y47835887D01*
X27904385Y47726973D01*
X28093600Y47688656D01*
X28993600Y47688656D01*
X29170365Y47721917D01*
X29332713Y47826385D01*
X29441627Y47985785D01*
X29479944Y48175000D01*
X29479944Y49475000D01*
X29446683Y49651765D01*
X29342215Y49814113D01*
X29182815Y49923027D01*
X28993600Y49961344D01*
X28231636Y49961344D01*
X28332713Y50026385D01*
X28441627Y50185785D01*
X28479944Y50375000D01*
X28479944Y50453884D01*
X28538494Y50493006D01*
X31474143Y53428656D01*
X32870700Y53428656D01*
X33047465Y53461917D01*
X33209813Y53566385D01*
X33318727Y53725785D01*
X33357044Y53915000D01*
X33357044Y56455000D01*
X33323783Y56631765D01*
X33219315Y56794113D01*
X33059915Y56903027D01*
X32870700Y56941344D01*
X32426051Y56941344D01*
X32415594Y56956994D01*
X31085594Y58286994D01*
X30875313Y58427500D01*
X31987112Y58427500D01*
X34166100Y56248512D01*
X34166100Y56248512D01*
G37*
X34166100Y56248512D02*
X34166100Y28916487D01*
X25260388Y37822200D01*
X25043836Y37966896D01*
X24788394Y38017706D01*
X22810651Y38017706D01*
X22692797Y38098233D01*
X22503582Y38136550D01*
X20953582Y38136550D01*
X20776817Y38103289D01*
X20643817Y38017706D01*
X20276622Y38017706D01*
X18599240Y39695088D01*
X18650340Y39951982D01*
X18650340Y40002018D01*
X18553134Y40490705D01*
X18276315Y40904993D01*
X17862027Y41181812D01*
X17373340Y41279018D01*
X16884653Y41181812D01*
X16470365Y40904993D01*
X16193546Y40490705D01*
X16103340Y40037209D01*
X16013134Y40490705D01*
X15736315Y40904993D01*
X15322027Y41181812D01*
X14833340Y41279018D01*
X14344653Y41181812D01*
X13930365Y40904993D01*
X13653546Y40490705D01*
X13563340Y40037209D01*
X13473134Y40490705D01*
X13196315Y40904993D01*
X12960840Y41062333D01*
X12960840Y42028252D01*
X13626811Y42694223D01*
X13650517Y42568235D01*
X13754985Y42405887D01*
X13914385Y42296973D01*
X14103600Y42258656D01*
X15603600Y42258656D01*
X15780365Y42291917D01*
X15942713Y42396385D01*
X16051627Y42555785D01*
X16089944Y42745000D01*
X16089944Y44045000D01*
X16317256Y44045000D01*
X16317256Y42745000D01*
X16350517Y42568235D01*
X16454985Y42405887D01*
X16614385Y42296973D01*
X16803600Y42258656D01*
X18303600Y42258656D01*
X18480365Y42291917D01*
X18642713Y42396385D01*
X18751627Y42555785D01*
X18786400Y42727500D01*
X21660546Y42727500D01*
X21753600Y42708656D01*
X23753600Y42708656D01*
X23930365Y42741917D01*
X24092713Y42846385D01*
X24201627Y43005785D01*
X24210465Y43049430D01*
X29381978Y43049430D01*
X29480731Y42784338D01*
X30087011Y42557686D01*
X30733877Y42580300D01*
X31226469Y42784338D01*
X31325222Y43049430D01*
X30353600Y44021052D01*
X29381978Y43049430D01*
X24210465Y43049430D01*
X24239944Y43195000D01*
X24239944Y44461589D01*
X28716286Y44461589D01*
X28738900Y43814723D01*
X28942938Y43322131D01*
X29208030Y43223378D01*
X30179652Y44195000D01*
X30527548Y44195000D01*
X31499170Y43223378D01*
X31764262Y43322131D01*
X31990914Y43928411D01*
X31968300Y44575277D01*
X31764262Y45067869D01*
X31499170Y45166622D01*
X30527548Y44195000D01*
X30179652Y44195000D01*
X29208030Y45166622D01*
X28942938Y45067869D01*
X28716286Y44461589D01*
X24239944Y44461589D01*
X24239944Y45195000D01*
X24212553Y45340570D01*
X29381978Y45340570D01*
X30353600Y44368948D01*
X31325222Y45340570D01*
X31226469Y45605662D01*
X30620189Y45832314D01*
X29973323Y45809700D01*
X29480731Y45605662D01*
X29381978Y45340570D01*
X24212553Y45340570D01*
X24206683Y45371765D01*
X24102215Y45534113D01*
X23942815Y45643027D01*
X23753600Y45681344D01*
X21753600Y45681344D01*
X21576835Y45648083D01*
X21414487Y45543615D01*
X21305573Y45384215D01*
X21267256Y45195000D01*
X21267256Y44062500D01*
X18786651Y44062500D01*
X18756683Y44221765D01*
X18652215Y44384113D01*
X18492815Y44493027D01*
X18303600Y44531344D01*
X16803600Y44531344D01*
X16626835Y44498083D01*
X16464487Y44393615D01*
X16355573Y44234215D01*
X16317256Y44045000D01*
X16089944Y44045000D01*
X16056683Y44221765D01*
X15952215Y44384113D01*
X15835470Y44463882D01*
X16399088Y45027500D01*
X20133600Y45027500D01*
X20389042Y45078310D01*
X20605594Y45223006D01*
X23511244Y48128656D01*
X23723600Y48128656D01*
X23900365Y48161917D01*
X24062713Y48266385D01*
X24152301Y48397500D01*
X25707256Y48397500D01*
X25707256Y48175000D01*
X25740517Y47998235D01*
X25844985Y47835887D01*
X26004385Y47726973D01*
X26193600Y47688656D01*
X27093600Y47688656D01*
X27270365Y47721917D01*
X27432713Y47826385D01*
X27541627Y47985785D01*
X27579944Y48175000D01*
X27579944Y49475000D01*
X27546683Y49651765D01*
X27442215Y49814113D01*
X27333118Y49888656D01*
X27855564Y49888656D01*
X27754487Y49823615D01*
X27645573Y49664215D01*
X27607256Y49475000D01*
X27607256Y48175000D01*
X27640517Y47998235D01*
X27744985Y47835887D01*
X27904385Y47726973D01*
X28093600Y47688656D01*
X28993600Y47688656D01*
X29170365Y47721917D01*
X29332713Y47826385D01*
X29441627Y47985785D01*
X29479944Y48175000D01*
X29479944Y49475000D01*
X29446683Y49651765D01*
X29342215Y49814113D01*
X29182815Y49923027D01*
X28993600Y49961344D01*
X28231636Y49961344D01*
X28332713Y50026385D01*
X28441627Y50185785D01*
X28479944Y50375000D01*
X28479944Y50453884D01*
X28538494Y50493006D01*
X31474143Y53428656D01*
X32870700Y53428656D01*
X33047465Y53461917D01*
X33209813Y53566385D01*
X33318727Y53725785D01*
X33357044Y53915000D01*
X33357044Y56455000D01*
X33323783Y56631765D01*
X33219315Y56794113D01*
X33059915Y56903027D01*
X32870700Y56941344D01*
X32426051Y56941344D01*
X32415594Y56956994D01*
X31085594Y58286994D01*
X30875313Y58427500D01*
X31987112Y58427500D01*
X34166100Y56248512D01*
M02*
