G04 #@! TF.FileFunction,Copper,L1,Top,Signal*
%FSLAX46Y46*%
G04 Gerber Fmt 4.6, Leading zero omitted, Abs format (unit mm)*
G04 Created by KiCad (PCBNEW 4.0.7) date Tue Oct 24 21:49:36 2017*
%MOMM*%
%LPD*%
G01*
G04 APERTURE LIST*
%ADD10C,0.100000*%
%ADD11R,1.600000X1.600000*%
%ADD12O,1.600000X1.600000*%
%ADD13R,1.700000X1.000000*%
%ADD14R,1.550000X0.600000*%
%ADD15R,0.900000X1.300000*%
%ADD16R,0.800000X1.300000*%
%ADD17R,0.800000X0.900000*%
%ADD18R,1.300000X1.500000*%
%ADD19R,1.500000X1.300000*%
%ADD20O,1.854200X2.540000*%
%ADD21R,1.854200X2.540000*%
%ADD22R,2.000000X2.000000*%
%ADD23C,2.000000*%
%ADD24R,3.000000X3.000000*%
%ADD25C,3.000000*%
%ADD26C,1.500000*%
%ADD27C,0.254000*%
%ADD28C,0.508000*%
%ADD29C,0.381000*%
%ADD30C,0.635000*%
G04 APERTURE END LIST*
D10*
D11*
X13055600Y51269900D03*
D12*
X5435600Y43649900D03*
X10515600Y51269900D03*
X7975600Y43649900D03*
X7975600Y51269900D03*
X10515600Y43649900D03*
X5435600Y51269900D03*
X13055600Y43649900D03*
D13*
X13563600Y16901000D03*
X7263600Y16901000D03*
X13563600Y20701000D03*
X7263600Y20701000D03*
D14*
X16163482Y40995106D03*
X16163482Y39725106D03*
X16163482Y38455106D03*
X16163482Y37185106D03*
X16163482Y35915106D03*
X16163482Y34645106D03*
X16163482Y33375106D03*
X16163482Y32105106D03*
X21563482Y32105106D03*
X21563482Y33375106D03*
X21563482Y34645106D03*
X21563482Y35915106D03*
X21563482Y37185106D03*
X21563482Y38455106D03*
X21563482Y39725106D03*
X21563482Y40995106D03*
D15*
X17592000Y53654600D03*
X19492000Y53654600D03*
D16*
X18542000Y55854600D03*
D17*
X12092900Y54299100D03*
X13992900Y54299100D03*
X13042900Y56299100D03*
D18*
X22426482Y29778106D03*
X22426482Y27078106D03*
X20140482Y29079606D03*
X20140482Y26379606D03*
X17600482Y29079606D03*
X17600482Y26379606D03*
X15314482Y29778106D03*
X15314482Y27078106D03*
X17473482Y43588106D03*
X17473482Y46288106D03*
X19886482Y43588106D03*
X19886482Y46288106D03*
D19*
X6536700Y55638700D03*
X9236700Y55638700D03*
X20246800Y50825400D03*
X17546800Y50825400D03*
X15842000Y58610500D03*
X18542000Y58610500D03*
D20*
X13030200Y62522100D03*
D21*
X15570200Y62522100D03*
D22*
X23921400Y51955700D03*
D23*
X31521400Y51955700D03*
D13*
X15836100Y14224000D03*
X22136100Y14224000D03*
X15836100Y10424000D03*
X22136100Y10424000D03*
X22137600Y16904000D03*
X15837600Y16904000D03*
X22137600Y20704000D03*
X15837600Y20704000D03*
X24408600Y14224000D03*
X30708600Y14224000D03*
X24408600Y10424000D03*
X30708600Y10424000D03*
X30708600Y16901000D03*
X24408600Y16901000D03*
X30708600Y20701000D03*
X24408600Y20701000D03*
X7263600Y14198600D03*
X13563600Y14198600D03*
X7263600Y10398600D03*
X13563600Y10398600D03*
X22137600Y2743500D03*
X15837600Y2743500D03*
X22137600Y6543500D03*
X15837600Y6543500D03*
D24*
X8280400Y62420500D03*
D25*
X3200400Y62420500D03*
D26*
X2006600Y39801800D03*
X9880600Y39700200D03*
X5359398Y33299400D03*
X14304605Y33263957D03*
D27*
X12092900Y54299100D02*
X12092900Y54349100D01*
X12092900Y54349100D02*
X13014200Y55270400D01*
X13014200Y55270400D02*
X14884400Y55270400D01*
X15842000Y56228000D02*
X15842000Y57706500D01*
X14884400Y55270400D02*
X15842000Y56228000D01*
X15842000Y57706500D02*
X15842000Y58610500D01*
D28*
X13042900Y56299100D02*
X13042900Y62509400D01*
X13042900Y62509400D02*
X13030200Y62522100D01*
X13068300Y62484000D02*
X13030200Y62522100D01*
X15837600Y2743500D02*
X11874200Y2743500D01*
X11874200Y2743500D02*
X3644900Y10972800D01*
X3644900Y10972800D02*
X3644900Y44399200D01*
X3644900Y44399200D02*
X9715601Y50469901D01*
X9715601Y50469901D02*
X10515600Y51269900D01*
X10515600Y51269900D02*
X10515600Y54359800D01*
X10515600Y54359800D02*
X9236700Y55638700D01*
X15837600Y2743500D02*
X17195600Y2743500D01*
X17195600Y2743500D02*
X22137600Y2743500D01*
X2006600Y40862460D02*
X2006600Y39801800D01*
X7975600Y51269900D02*
X2006600Y45300900D01*
X2006600Y45300900D02*
X2006600Y40862460D01*
X16163482Y39725106D02*
X9905506Y39725106D01*
X9905506Y39725106D02*
X9880600Y39700200D01*
X10515600Y43649900D02*
X13170394Y40995106D01*
X13170394Y40995106D02*
X16163482Y40995106D01*
D29*
X16163482Y35915106D02*
X16763506Y35915106D01*
D28*
X13055600Y43649900D02*
X13055600Y45859700D01*
X13055600Y45859700D02*
X15582900Y48387000D01*
X15582900Y48387000D02*
X26885900Y48387000D01*
X26885900Y48387000D02*
X27330400Y48831500D01*
X32994600Y9245600D02*
X32994600Y35699700D01*
X32092900Y8343900D02*
X32994600Y9245600D01*
X11856300Y8343900D02*
X32092900Y8343900D01*
X7263600Y14198600D02*
X7263600Y12936600D01*
X32994600Y35699700D02*
X26695400Y41998900D01*
X7263600Y12936600D02*
X11856300Y8343900D01*
X27330400Y48831500D02*
X27368500Y48869600D01*
X27368500Y48869600D02*
X27368500Y58851800D01*
X27368500Y58851800D02*
X20789900Y65430400D01*
X20789900Y65430400D02*
X10669400Y65430400D01*
X10669400Y65430400D02*
X8421500Y63182500D01*
X6536700Y55638700D02*
X6536700Y60676800D01*
X6536700Y60676800D02*
X8280400Y62420500D01*
D29*
X15836100Y14224000D02*
X15836100Y13615200D01*
X15836100Y13615200D02*
X20599400Y8851900D01*
X20599400Y8851900D02*
X20599400Y8509000D01*
X15836100Y14224000D02*
X15836100Y13793000D01*
D28*
X26695400Y48196500D02*
X27330400Y48831500D01*
X26695400Y41998900D02*
X26695400Y48196500D01*
X21563482Y40995106D02*
X22846482Y40995106D01*
X22846482Y40995106D02*
X23850276Y41998900D01*
X23850276Y41998900D02*
X26695400Y41998900D01*
X7263600Y16901000D02*
X7263600Y14198600D01*
X13563600Y14198600D02*
X15810700Y14198600D01*
X15810700Y14198600D02*
X15836100Y14224000D01*
X13563600Y16901000D02*
X13563600Y14198600D01*
X15837600Y16904000D02*
X13566600Y16904000D01*
X13566600Y16904000D02*
X13563600Y16901000D01*
X15836100Y14224000D02*
X15836100Y16902500D01*
X15836100Y16902500D02*
X15837600Y16904000D01*
X30708600Y16901000D02*
X30708600Y14224000D01*
X22136100Y14224000D02*
X22136100Y16902500D01*
X22136100Y16902500D02*
X22137600Y16904000D01*
X24408600Y14224000D02*
X22136100Y14224000D01*
X24408600Y16901000D02*
X24408600Y14224000D01*
X22137600Y16904000D02*
X24405600Y16904000D01*
X24405600Y16904000D02*
X24408600Y16901000D01*
X24408600Y14224000D02*
X24758600Y14224000D01*
X24758600Y14224000D02*
X27457400Y11525200D01*
X27457400Y11525200D02*
X27457400Y10007600D01*
X27457400Y10007600D02*
X29019500Y8445500D01*
X7975600Y43649900D02*
X14001200Y49675500D01*
X14001200Y49675500D02*
X16376100Y49675500D01*
X16376100Y49675500D02*
X17546800Y50846200D01*
X17546800Y50846200D02*
X17546800Y53609400D01*
X17546800Y53609400D02*
X17592000Y53654600D01*
X17592000Y53654600D02*
X14637400Y53654600D01*
X14637400Y53654600D02*
X13992900Y54299100D01*
X18393400Y61134000D02*
X18300700Y61226700D01*
X18300700Y61226700D02*
X17005300Y62522100D01*
X18542000Y58610500D02*
X18542000Y60985400D01*
X18542000Y60985400D02*
X18300700Y61226700D01*
X18542000Y55854600D02*
X18542000Y58610500D01*
X17005300Y62522100D02*
X15570200Y62522100D01*
D29*
X22136100Y10424000D02*
X21786100Y10424000D01*
X21786100Y10424000D02*
X19405600Y12804500D01*
X19405600Y21056600D02*
X24371300Y26022300D01*
X24371300Y26022300D02*
X24371300Y28905200D01*
X24371300Y28905200D02*
X23498394Y29778106D01*
X23498394Y29778106D02*
X22426482Y29778106D01*
X19405600Y12804500D02*
X19405600Y21056600D01*
X19862800Y31847886D02*
X19862800Y34100424D01*
X19862800Y34100424D02*
X20407482Y34645106D01*
X20407482Y34645106D02*
X21563482Y34645106D01*
X20801580Y30909106D02*
X19862800Y31847886D01*
X22426482Y29778106D02*
X22426482Y29878106D01*
X22426482Y29878106D02*
X21395482Y30909106D01*
X21395482Y30909106D02*
X20801580Y30909106D01*
X21965482Y29778106D02*
X22426482Y29778106D01*
X22137600Y20704000D02*
X22137600Y21585000D01*
X22137600Y21585000D02*
X25996900Y25444300D01*
X25996900Y25444300D02*
X25996900Y32637688D01*
X25996900Y32637688D02*
X22719482Y35915106D01*
X22719482Y35915106D02*
X21563482Y35915106D01*
X20407482Y35915106D02*
X21563482Y35915106D01*
X19109482Y34741076D02*
X20283512Y35915106D01*
X19109482Y30210606D02*
X19109482Y34741076D01*
X20140482Y29179606D02*
X19109482Y30210606D01*
X20283512Y35915106D02*
X20407482Y35915106D01*
X20140482Y29079606D02*
X20140482Y29179606D01*
D28*
X30708600Y10424000D02*
X30708600Y11432000D01*
X30708600Y11432000D02*
X28536900Y13603700D01*
X28536900Y13603700D02*
X28536900Y32423100D01*
X28536900Y32423100D02*
X23774894Y37185106D01*
X23774894Y37185106D02*
X21563482Y37185106D01*
D29*
X17600482Y29079606D02*
X17600482Y30210606D01*
X17600482Y30210606D02*
X18313400Y30923524D01*
X18313400Y30923524D02*
X18313400Y35091024D01*
X18313400Y35091024D02*
X20407482Y37185106D01*
X20407482Y37185106D02*
X21563482Y37185106D01*
D28*
X30708600Y20701000D02*
X30708600Y32448500D01*
X30708600Y32448500D02*
X24701994Y38455106D01*
X24701994Y38455106D02*
X21563482Y38455106D01*
D29*
X15314482Y29778106D02*
X16194176Y30657800D01*
X16194176Y30657800D02*
X16674078Y30657800D01*
X16674078Y30657800D02*
X17564100Y31547822D01*
X17564100Y31547822D02*
X17564100Y35611724D01*
X17564100Y35611724D02*
X20407482Y38455106D01*
X20407482Y38455106D02*
X21563482Y38455106D01*
X21563482Y38455106D02*
X22038482Y38455106D01*
X16163482Y38455106D02*
X13740906Y38455106D01*
X13740906Y38455106D02*
X10591800Y35306000D01*
X10591800Y35306000D02*
X10591800Y13258800D01*
X10591800Y13258800D02*
X13452000Y10398600D01*
X13452000Y10398600D02*
X13563600Y10398600D01*
X16163482Y38455106D02*
X16839706Y38455106D01*
X17805400Y39420800D02*
X17805400Y43256188D01*
X16839706Y38455106D02*
X17805400Y39420800D01*
X17805400Y43256188D02*
X17473482Y43588106D01*
X13563600Y20701000D02*
X11734800Y22529800D01*
X11734800Y22529800D02*
X11734800Y34810700D01*
X11734800Y34810700D02*
X14109206Y37185106D01*
X14109206Y37185106D02*
X15007482Y37185106D01*
X15007482Y37185106D02*
X16163482Y37185106D01*
X16163482Y37185106D02*
X16851384Y37185106D01*
X16851384Y37185106D02*
X18846800Y39180522D01*
X18846800Y39180522D02*
X18846800Y41417424D01*
X18846800Y41417424D02*
X19886482Y42457106D01*
X19886482Y42457106D02*
X19886482Y43588106D01*
X16163482Y37185106D02*
X16638482Y37185106D01*
D28*
X20193000Y50850800D02*
X21297900Y51955700D01*
X21297900Y51955700D02*
X23921400Y51955700D01*
X5435600Y33375602D02*
X5359398Y33299400D01*
X5435600Y43649900D02*
X5435600Y33375602D01*
D30*
X14415754Y33375106D02*
X14304605Y33263957D01*
X16163482Y33375106D02*
X14415754Y33375106D01*
D27*
G36*
X37591600Y647000D02*
X695600Y647000D01*
X695600Y39558805D01*
X779388Y39558805D01*
X965794Y39107669D01*
X1310653Y38762207D01*
X1761464Y38575014D01*
X2249595Y38574588D01*
X2700731Y38760994D01*
X2913900Y38973791D01*
X2913900Y10972800D01*
X2969544Y10693058D01*
X3082175Y10524495D01*
X3128005Y10455905D01*
X11357305Y2226605D01*
X11594459Y2068143D01*
X11874200Y2012500D01*
X14569416Y2012500D01*
X14638985Y1904387D01*
X14798385Y1795473D01*
X14987600Y1757156D01*
X16687600Y1757156D01*
X16864365Y1790417D01*
X17026713Y1894885D01*
X17107076Y2012500D01*
X20869416Y2012500D01*
X20938985Y1904387D01*
X21098385Y1795473D01*
X21287600Y1757156D01*
X22987600Y1757156D01*
X23164365Y1790417D01*
X23326713Y1894885D01*
X23435627Y2054285D01*
X23473944Y2243500D01*
X23473944Y3243500D01*
X23440683Y3420265D01*
X23336215Y3582613D01*
X23176815Y3691527D01*
X22987600Y3729844D01*
X21287600Y3729844D01*
X21110835Y3696583D01*
X20948487Y3592115D01*
X20868124Y3474500D01*
X17105784Y3474500D01*
X17036215Y3582613D01*
X16876815Y3691527D01*
X16687600Y3729844D01*
X14987600Y3729844D01*
X14810835Y3696583D01*
X14648487Y3592115D01*
X14568124Y3474500D01*
X12176990Y3474500D01*
X9387740Y6263750D01*
X14360600Y6263750D01*
X14360600Y5918782D01*
X14456055Y5688333D01*
X14632433Y5511955D01*
X14862882Y5416500D01*
X15557850Y5416500D01*
X15714600Y5573250D01*
X15714600Y6420500D01*
X15960600Y6420500D01*
X15960600Y5573250D01*
X16117350Y5416500D01*
X16812318Y5416500D01*
X17042767Y5511955D01*
X17219145Y5688333D01*
X17314600Y5918782D01*
X17314600Y6263750D01*
X20660600Y6263750D01*
X20660600Y5918782D01*
X20756055Y5688333D01*
X20932433Y5511955D01*
X21162882Y5416500D01*
X21857850Y5416500D01*
X22014600Y5573250D01*
X22014600Y6420500D01*
X22260600Y6420500D01*
X22260600Y5573250D01*
X22417350Y5416500D01*
X23112318Y5416500D01*
X23342767Y5511955D01*
X23519145Y5688333D01*
X23614600Y5918782D01*
X23614600Y6263750D01*
X23457850Y6420500D01*
X22260600Y6420500D01*
X22014600Y6420500D01*
X20817350Y6420500D01*
X20660600Y6263750D01*
X17314600Y6263750D01*
X17157850Y6420500D01*
X15960600Y6420500D01*
X15714600Y6420500D01*
X14517350Y6420500D01*
X14360600Y6263750D01*
X9387740Y6263750D01*
X6150289Y9501201D01*
X6224385Y9450573D01*
X6413600Y9412256D01*
X8113600Y9412256D01*
X8290365Y9445517D01*
X8452713Y9549985D01*
X8561627Y9709385D01*
X8599944Y9898600D01*
X8599944Y10566466D01*
X11339405Y7827005D01*
X11576559Y7668543D01*
X11856300Y7612900D01*
X14723823Y7612900D01*
X14632433Y7575045D01*
X14456055Y7398667D01*
X14360600Y7168218D01*
X14360600Y6823250D01*
X14517350Y6666500D01*
X15714600Y6666500D01*
X15714600Y6686500D01*
X15960600Y6686500D01*
X15960600Y6666500D01*
X17157850Y6666500D01*
X17314600Y6823250D01*
X17314600Y7168218D01*
X17219145Y7398667D01*
X17042767Y7575045D01*
X16951377Y7612900D01*
X21023823Y7612900D01*
X20932433Y7575045D01*
X20756055Y7398667D01*
X20660600Y7168218D01*
X20660600Y6823250D01*
X20817350Y6666500D01*
X22014600Y6666500D01*
X22014600Y6686500D01*
X22260600Y6686500D01*
X22260600Y6666500D01*
X23457850Y6666500D01*
X23614600Y6823250D01*
X23614600Y7168218D01*
X23519145Y7398667D01*
X23342767Y7575045D01*
X23251377Y7612900D01*
X32092900Y7612900D01*
X32372642Y7668544D01*
X32609795Y7827005D01*
X33511495Y8728705D01*
X33669956Y8965858D01*
X33725600Y9245600D01*
X33725600Y35699700D01*
X33669956Y35979442D01*
X33511495Y36216595D01*
X27426400Y42301690D01*
X27426400Y47893710D01*
X27885395Y48352705D01*
X28043857Y48589859D01*
X28099500Y48869600D01*
X28099500Y50810130D01*
X30549778Y50810130D01*
X30648531Y50545038D01*
X31254811Y50318386D01*
X31901677Y50341000D01*
X32394269Y50545038D01*
X32493022Y50810130D01*
X31521400Y51781752D01*
X30549778Y50810130D01*
X28099500Y50810130D01*
X28099500Y52222289D01*
X29884086Y52222289D01*
X29906700Y51575423D01*
X30110738Y51082831D01*
X30375830Y50984078D01*
X31347452Y51955700D01*
X31695348Y51955700D01*
X32666970Y50984078D01*
X32932062Y51082831D01*
X33158714Y51689111D01*
X33136100Y52335977D01*
X32932062Y52828569D01*
X32666970Y52927322D01*
X31695348Y51955700D01*
X31347452Y51955700D01*
X30375830Y52927322D01*
X30110738Y52828569D01*
X29884086Y52222289D01*
X28099500Y52222289D01*
X28099500Y53101270D01*
X30549778Y53101270D01*
X31521400Y52129648D01*
X32493022Y53101270D01*
X32394269Y53366362D01*
X31787989Y53593014D01*
X31141123Y53570400D01*
X30648531Y53366362D01*
X30549778Y53101270D01*
X28099500Y53101270D01*
X28099500Y58851800D01*
X28043856Y59131542D01*
X27885395Y59368695D01*
X21306795Y65947295D01*
X21069642Y66105756D01*
X20789900Y66161400D01*
X10669400Y66161400D01*
X10389659Y66105757D01*
X10152505Y65947295D01*
X8612054Y64406844D01*
X6780400Y64406844D01*
X6603635Y64373583D01*
X6441287Y64269115D01*
X6332373Y64109715D01*
X6294056Y63920500D01*
X6294056Y61467946D01*
X6019805Y61193695D01*
X5861344Y60956542D01*
X5805700Y60676800D01*
X5805700Y56775044D01*
X5786700Y56775044D01*
X5609935Y56741783D01*
X5447587Y56637315D01*
X5338673Y56477915D01*
X5300356Y56288700D01*
X5300356Y54988700D01*
X5333617Y54811935D01*
X5438085Y54649587D01*
X5597485Y54540673D01*
X5786700Y54502356D01*
X7286700Y54502356D01*
X7463465Y54535617D01*
X7625813Y54640085D01*
X7734727Y54799485D01*
X7773044Y54988700D01*
X7773044Y56288700D01*
X7739783Y56465465D01*
X7635315Y56627813D01*
X7475915Y56736727D01*
X7286700Y56775044D01*
X7267700Y56775044D01*
X7267700Y60374010D01*
X7327846Y60434156D01*
X9780400Y60434156D01*
X9957165Y60467417D01*
X10119513Y60571885D01*
X10228427Y60731285D01*
X10266744Y60920500D01*
X10266744Y63920500D01*
X10255111Y63982321D01*
X10972190Y64699400D01*
X20487110Y64699400D01*
X26637500Y58549010D01*
X26637500Y49172390D01*
X26583110Y49118000D01*
X16832225Y49118000D01*
X16892995Y49158605D01*
X17423446Y49689056D01*
X18296800Y49689056D01*
X18473565Y49722317D01*
X18635913Y49826785D01*
X18744827Y49986185D01*
X18783144Y50175400D01*
X18783144Y51475400D01*
X19010456Y51475400D01*
X19010456Y50175400D01*
X19043717Y49998635D01*
X19148185Y49836287D01*
X19307585Y49727373D01*
X19496800Y49689056D01*
X20996800Y49689056D01*
X21173565Y49722317D01*
X21335913Y49826785D01*
X21444827Y49986185D01*
X21483144Y50175400D01*
X21483144Y51107154D01*
X21600690Y51224700D01*
X22435056Y51224700D01*
X22435056Y50955700D01*
X22468317Y50778935D01*
X22572785Y50616587D01*
X22732185Y50507673D01*
X22921400Y50469356D01*
X24921400Y50469356D01*
X25098165Y50502617D01*
X25260513Y50607085D01*
X25369427Y50766485D01*
X25407744Y50955700D01*
X25407744Y52955700D01*
X25374483Y53132465D01*
X25270015Y53294813D01*
X25110615Y53403727D01*
X24921400Y53442044D01*
X22921400Y53442044D01*
X22744635Y53408783D01*
X22582287Y53304315D01*
X22473373Y53144915D01*
X22435056Y52955700D01*
X22435056Y52686700D01*
X21297900Y52686700D01*
X21018159Y52631057D01*
X20781005Y52472595D01*
X20270154Y51961744D01*
X19496800Y51961744D01*
X19320035Y51928483D01*
X19157687Y51824015D01*
X19048773Y51664615D01*
X19010456Y51475400D01*
X18783144Y51475400D01*
X18749883Y51652165D01*
X18645415Y51814513D01*
X18486015Y51923427D01*
X18296800Y51961744D01*
X18277800Y51961744D01*
X18277800Y52589505D01*
X18381113Y52655985D01*
X18490027Y52815385D01*
X18528344Y53004600D01*
X18528344Y54304600D01*
X18495083Y54481365D01*
X18390615Y54643713D01*
X18281518Y54718256D01*
X18803964Y54718256D01*
X18702887Y54653215D01*
X18593973Y54493815D01*
X18555656Y54304600D01*
X18555656Y53004600D01*
X18588917Y52827835D01*
X18693385Y52665487D01*
X18852785Y52556573D01*
X19042000Y52518256D01*
X19942000Y52518256D01*
X20118765Y52551517D01*
X20281113Y52655985D01*
X20390027Y52815385D01*
X20428344Y53004600D01*
X20428344Y54304600D01*
X20395083Y54481365D01*
X20290615Y54643713D01*
X20131215Y54752627D01*
X19942000Y54790944D01*
X19180036Y54790944D01*
X19281113Y54855985D01*
X19390027Y55015385D01*
X19428344Y55204600D01*
X19428344Y56504600D01*
X19395083Y56681365D01*
X19290615Y56843713D01*
X19273000Y56855749D01*
X19273000Y57474156D01*
X19292000Y57474156D01*
X19468765Y57507417D01*
X19631113Y57611885D01*
X19740027Y57771285D01*
X19778344Y57960500D01*
X19778344Y59260500D01*
X19745083Y59437265D01*
X19640615Y59599613D01*
X19481215Y59708527D01*
X19292000Y59746844D01*
X19273000Y59746844D01*
X19273000Y60985400D01*
X19217356Y61265142D01*
X19058895Y61502295D01*
X17522195Y63038995D01*
X17285042Y63197456D01*
X17005300Y63253100D01*
X16983644Y63253100D01*
X16983644Y63792100D01*
X16950383Y63968865D01*
X16845915Y64131213D01*
X16686515Y64240127D01*
X16497300Y64278444D01*
X14643100Y64278444D01*
X14466335Y64245183D01*
X14303987Y64140715D01*
X14195073Y63981315D01*
X14156756Y63792100D01*
X14156756Y63691968D01*
X14023049Y63892075D01*
X13567526Y64196445D01*
X13030200Y64303326D01*
X12492874Y64196445D01*
X12037351Y63892075D01*
X11732981Y63436552D01*
X11626100Y62899226D01*
X11626100Y62144974D01*
X11732981Y61607648D01*
X12037351Y61152125D01*
X12311900Y60968678D01*
X12311900Y57102936D01*
X12303787Y57097715D01*
X12194873Y56938315D01*
X12156556Y56749100D01*
X12156556Y55849100D01*
X12189817Y55672335D01*
X12294285Y55509987D01*
X12356852Y55467237D01*
X12125060Y55235444D01*
X11692900Y55235444D01*
X11516135Y55202183D01*
X11353787Y55097715D01*
X11244873Y54938315D01*
X11206556Y54749100D01*
X11206556Y54561115D01*
X11190956Y54639542D01*
X11032495Y54876695D01*
X10473044Y55436146D01*
X10473044Y56288700D01*
X10439783Y56465465D01*
X10335315Y56627813D01*
X10175915Y56736727D01*
X9986700Y56775044D01*
X8486700Y56775044D01*
X8309935Y56741783D01*
X8147587Y56637315D01*
X8038673Y56477915D01*
X8000356Y56288700D01*
X8000356Y54988700D01*
X8033617Y54811935D01*
X8138085Y54649587D01*
X8297485Y54540673D01*
X8486700Y54502356D01*
X9339254Y54502356D01*
X9784600Y54057010D01*
X9784600Y52312803D01*
X9612625Y52197893D01*
X9335806Y51783605D01*
X9245600Y51330109D01*
X9155394Y51783605D01*
X8878575Y52197893D01*
X8464287Y52474712D01*
X7975600Y52571918D01*
X7486913Y52474712D01*
X7072625Y52197893D01*
X6795806Y51783605D01*
X6779419Y51701224D01*
X6583530Y52117610D01*
X6171744Y52492376D01*
X5779487Y52654844D01*
X5558600Y52534181D01*
X5558600Y51392900D01*
X5578600Y51392900D01*
X5578600Y51146900D01*
X5558600Y51146900D01*
X5558600Y50005619D01*
X5635514Y49963604D01*
X1489705Y45817795D01*
X1331244Y45580642D01*
X1275600Y45300900D01*
X1275600Y40805801D01*
X967007Y40497747D01*
X779814Y40046936D01*
X779388Y39558805D01*
X695600Y39558805D01*
X695600Y50926012D01*
X4050646Y50926012D01*
X4287670Y50422190D01*
X4699456Y50047424D01*
X5091713Y49884956D01*
X5312600Y50005619D01*
X5312600Y51146900D01*
X4170651Y51146900D01*
X4050646Y50926012D01*
X695600Y50926012D01*
X695600Y51613788D01*
X4050646Y51613788D01*
X4170651Y51392900D01*
X5312600Y51392900D01*
X5312600Y52534181D01*
X5091713Y52654844D01*
X4699456Y52492376D01*
X4287670Y52117610D01*
X4050646Y51613788D01*
X695600Y51613788D01*
X695600Y60913544D01*
X1867393Y60913544D01*
X2027248Y60596536D01*
X2814550Y60286431D01*
X3660594Y60301218D01*
X4373552Y60596536D01*
X4533407Y60913544D01*
X3200400Y62246552D01*
X1867393Y60913544D01*
X695600Y60913544D01*
X695600Y62806350D01*
X1066331Y62806350D01*
X1081118Y61960306D01*
X1376436Y61247348D01*
X1693444Y61087493D01*
X3026452Y62420500D01*
X3374348Y62420500D01*
X4707356Y61087493D01*
X5024364Y61247348D01*
X5334469Y62034650D01*
X5319682Y62880694D01*
X5024364Y63593652D01*
X4707356Y63753507D01*
X3374348Y62420500D01*
X3026452Y62420500D01*
X1693444Y63753507D01*
X1376436Y63593652D01*
X1066331Y62806350D01*
X695600Y62806350D01*
X695600Y63927456D01*
X1867393Y63927456D01*
X3200400Y62594448D01*
X4533407Y63927456D01*
X4373552Y64244464D01*
X3586250Y64554569D01*
X2740206Y64539782D01*
X2027248Y64244464D01*
X1867393Y63927456D01*
X695600Y63927456D01*
X695600Y67543000D01*
X37591600Y67543000D01*
X37591600Y647000D01*
X37591600Y647000D01*
G37*
X37591600Y647000D02*
X695600Y647000D01*
X695600Y39558805D01*
X779388Y39558805D01*
X965794Y39107669D01*
X1310653Y38762207D01*
X1761464Y38575014D01*
X2249595Y38574588D01*
X2700731Y38760994D01*
X2913900Y38973791D01*
X2913900Y10972800D01*
X2969544Y10693058D01*
X3082175Y10524495D01*
X3128005Y10455905D01*
X11357305Y2226605D01*
X11594459Y2068143D01*
X11874200Y2012500D01*
X14569416Y2012500D01*
X14638985Y1904387D01*
X14798385Y1795473D01*
X14987600Y1757156D01*
X16687600Y1757156D01*
X16864365Y1790417D01*
X17026713Y1894885D01*
X17107076Y2012500D01*
X20869416Y2012500D01*
X20938985Y1904387D01*
X21098385Y1795473D01*
X21287600Y1757156D01*
X22987600Y1757156D01*
X23164365Y1790417D01*
X23326713Y1894885D01*
X23435627Y2054285D01*
X23473944Y2243500D01*
X23473944Y3243500D01*
X23440683Y3420265D01*
X23336215Y3582613D01*
X23176815Y3691527D01*
X22987600Y3729844D01*
X21287600Y3729844D01*
X21110835Y3696583D01*
X20948487Y3592115D01*
X20868124Y3474500D01*
X17105784Y3474500D01*
X17036215Y3582613D01*
X16876815Y3691527D01*
X16687600Y3729844D01*
X14987600Y3729844D01*
X14810835Y3696583D01*
X14648487Y3592115D01*
X14568124Y3474500D01*
X12176990Y3474500D01*
X9387740Y6263750D01*
X14360600Y6263750D01*
X14360600Y5918782D01*
X14456055Y5688333D01*
X14632433Y5511955D01*
X14862882Y5416500D01*
X15557850Y5416500D01*
X15714600Y5573250D01*
X15714600Y6420500D01*
X15960600Y6420500D01*
X15960600Y5573250D01*
X16117350Y5416500D01*
X16812318Y5416500D01*
X17042767Y5511955D01*
X17219145Y5688333D01*
X17314600Y5918782D01*
X17314600Y6263750D01*
X20660600Y6263750D01*
X20660600Y5918782D01*
X20756055Y5688333D01*
X20932433Y5511955D01*
X21162882Y5416500D01*
X21857850Y5416500D01*
X22014600Y5573250D01*
X22014600Y6420500D01*
X22260600Y6420500D01*
X22260600Y5573250D01*
X22417350Y5416500D01*
X23112318Y5416500D01*
X23342767Y5511955D01*
X23519145Y5688333D01*
X23614600Y5918782D01*
X23614600Y6263750D01*
X23457850Y6420500D01*
X22260600Y6420500D01*
X22014600Y6420500D01*
X20817350Y6420500D01*
X20660600Y6263750D01*
X17314600Y6263750D01*
X17157850Y6420500D01*
X15960600Y6420500D01*
X15714600Y6420500D01*
X14517350Y6420500D01*
X14360600Y6263750D01*
X9387740Y6263750D01*
X6150289Y9501201D01*
X6224385Y9450573D01*
X6413600Y9412256D01*
X8113600Y9412256D01*
X8290365Y9445517D01*
X8452713Y9549985D01*
X8561627Y9709385D01*
X8599944Y9898600D01*
X8599944Y10566466D01*
X11339405Y7827005D01*
X11576559Y7668543D01*
X11856300Y7612900D01*
X14723823Y7612900D01*
X14632433Y7575045D01*
X14456055Y7398667D01*
X14360600Y7168218D01*
X14360600Y6823250D01*
X14517350Y6666500D01*
X15714600Y6666500D01*
X15714600Y6686500D01*
X15960600Y6686500D01*
X15960600Y6666500D01*
X17157850Y6666500D01*
X17314600Y6823250D01*
X17314600Y7168218D01*
X17219145Y7398667D01*
X17042767Y7575045D01*
X16951377Y7612900D01*
X21023823Y7612900D01*
X20932433Y7575045D01*
X20756055Y7398667D01*
X20660600Y7168218D01*
X20660600Y6823250D01*
X20817350Y6666500D01*
X22014600Y6666500D01*
X22014600Y6686500D01*
X22260600Y6686500D01*
X22260600Y6666500D01*
X23457850Y6666500D01*
X23614600Y6823250D01*
X23614600Y7168218D01*
X23519145Y7398667D01*
X23342767Y7575045D01*
X23251377Y7612900D01*
X32092900Y7612900D01*
X32372642Y7668544D01*
X32609795Y7827005D01*
X33511495Y8728705D01*
X33669956Y8965858D01*
X33725600Y9245600D01*
X33725600Y35699700D01*
X33669956Y35979442D01*
X33511495Y36216595D01*
X27426400Y42301690D01*
X27426400Y47893710D01*
X27885395Y48352705D01*
X28043857Y48589859D01*
X28099500Y48869600D01*
X28099500Y50810130D01*
X30549778Y50810130D01*
X30648531Y50545038D01*
X31254811Y50318386D01*
X31901677Y50341000D01*
X32394269Y50545038D01*
X32493022Y50810130D01*
X31521400Y51781752D01*
X30549778Y50810130D01*
X28099500Y50810130D01*
X28099500Y52222289D01*
X29884086Y52222289D01*
X29906700Y51575423D01*
X30110738Y51082831D01*
X30375830Y50984078D01*
X31347452Y51955700D01*
X31695348Y51955700D01*
X32666970Y50984078D01*
X32932062Y51082831D01*
X33158714Y51689111D01*
X33136100Y52335977D01*
X32932062Y52828569D01*
X32666970Y52927322D01*
X31695348Y51955700D01*
X31347452Y51955700D01*
X30375830Y52927322D01*
X30110738Y52828569D01*
X29884086Y52222289D01*
X28099500Y52222289D01*
X28099500Y53101270D01*
X30549778Y53101270D01*
X31521400Y52129648D01*
X32493022Y53101270D01*
X32394269Y53366362D01*
X31787989Y53593014D01*
X31141123Y53570400D01*
X30648531Y53366362D01*
X30549778Y53101270D01*
X28099500Y53101270D01*
X28099500Y58851800D01*
X28043856Y59131542D01*
X27885395Y59368695D01*
X21306795Y65947295D01*
X21069642Y66105756D01*
X20789900Y66161400D01*
X10669400Y66161400D01*
X10389659Y66105757D01*
X10152505Y65947295D01*
X8612054Y64406844D01*
X6780400Y64406844D01*
X6603635Y64373583D01*
X6441287Y64269115D01*
X6332373Y64109715D01*
X6294056Y63920500D01*
X6294056Y61467946D01*
X6019805Y61193695D01*
X5861344Y60956542D01*
X5805700Y60676800D01*
X5805700Y56775044D01*
X5786700Y56775044D01*
X5609935Y56741783D01*
X5447587Y56637315D01*
X5338673Y56477915D01*
X5300356Y56288700D01*
X5300356Y54988700D01*
X5333617Y54811935D01*
X5438085Y54649587D01*
X5597485Y54540673D01*
X5786700Y54502356D01*
X7286700Y54502356D01*
X7463465Y54535617D01*
X7625813Y54640085D01*
X7734727Y54799485D01*
X7773044Y54988700D01*
X7773044Y56288700D01*
X7739783Y56465465D01*
X7635315Y56627813D01*
X7475915Y56736727D01*
X7286700Y56775044D01*
X7267700Y56775044D01*
X7267700Y60374010D01*
X7327846Y60434156D01*
X9780400Y60434156D01*
X9957165Y60467417D01*
X10119513Y60571885D01*
X10228427Y60731285D01*
X10266744Y60920500D01*
X10266744Y63920500D01*
X10255111Y63982321D01*
X10972190Y64699400D01*
X20487110Y64699400D01*
X26637500Y58549010D01*
X26637500Y49172390D01*
X26583110Y49118000D01*
X16832225Y49118000D01*
X16892995Y49158605D01*
X17423446Y49689056D01*
X18296800Y49689056D01*
X18473565Y49722317D01*
X18635913Y49826785D01*
X18744827Y49986185D01*
X18783144Y50175400D01*
X18783144Y51475400D01*
X19010456Y51475400D01*
X19010456Y50175400D01*
X19043717Y49998635D01*
X19148185Y49836287D01*
X19307585Y49727373D01*
X19496800Y49689056D01*
X20996800Y49689056D01*
X21173565Y49722317D01*
X21335913Y49826785D01*
X21444827Y49986185D01*
X21483144Y50175400D01*
X21483144Y51107154D01*
X21600690Y51224700D01*
X22435056Y51224700D01*
X22435056Y50955700D01*
X22468317Y50778935D01*
X22572785Y50616587D01*
X22732185Y50507673D01*
X22921400Y50469356D01*
X24921400Y50469356D01*
X25098165Y50502617D01*
X25260513Y50607085D01*
X25369427Y50766485D01*
X25407744Y50955700D01*
X25407744Y52955700D01*
X25374483Y53132465D01*
X25270015Y53294813D01*
X25110615Y53403727D01*
X24921400Y53442044D01*
X22921400Y53442044D01*
X22744635Y53408783D01*
X22582287Y53304315D01*
X22473373Y53144915D01*
X22435056Y52955700D01*
X22435056Y52686700D01*
X21297900Y52686700D01*
X21018159Y52631057D01*
X20781005Y52472595D01*
X20270154Y51961744D01*
X19496800Y51961744D01*
X19320035Y51928483D01*
X19157687Y51824015D01*
X19048773Y51664615D01*
X19010456Y51475400D01*
X18783144Y51475400D01*
X18749883Y51652165D01*
X18645415Y51814513D01*
X18486015Y51923427D01*
X18296800Y51961744D01*
X18277800Y51961744D01*
X18277800Y52589505D01*
X18381113Y52655985D01*
X18490027Y52815385D01*
X18528344Y53004600D01*
X18528344Y54304600D01*
X18495083Y54481365D01*
X18390615Y54643713D01*
X18281518Y54718256D01*
X18803964Y54718256D01*
X18702887Y54653215D01*
X18593973Y54493815D01*
X18555656Y54304600D01*
X18555656Y53004600D01*
X18588917Y52827835D01*
X18693385Y52665487D01*
X18852785Y52556573D01*
X19042000Y52518256D01*
X19942000Y52518256D01*
X20118765Y52551517D01*
X20281113Y52655985D01*
X20390027Y52815385D01*
X20428344Y53004600D01*
X20428344Y54304600D01*
X20395083Y54481365D01*
X20290615Y54643713D01*
X20131215Y54752627D01*
X19942000Y54790944D01*
X19180036Y54790944D01*
X19281113Y54855985D01*
X19390027Y55015385D01*
X19428344Y55204600D01*
X19428344Y56504600D01*
X19395083Y56681365D01*
X19290615Y56843713D01*
X19273000Y56855749D01*
X19273000Y57474156D01*
X19292000Y57474156D01*
X19468765Y57507417D01*
X19631113Y57611885D01*
X19740027Y57771285D01*
X19778344Y57960500D01*
X19778344Y59260500D01*
X19745083Y59437265D01*
X19640615Y59599613D01*
X19481215Y59708527D01*
X19292000Y59746844D01*
X19273000Y59746844D01*
X19273000Y60985400D01*
X19217356Y61265142D01*
X19058895Y61502295D01*
X17522195Y63038995D01*
X17285042Y63197456D01*
X17005300Y63253100D01*
X16983644Y63253100D01*
X16983644Y63792100D01*
X16950383Y63968865D01*
X16845915Y64131213D01*
X16686515Y64240127D01*
X16497300Y64278444D01*
X14643100Y64278444D01*
X14466335Y64245183D01*
X14303987Y64140715D01*
X14195073Y63981315D01*
X14156756Y63792100D01*
X14156756Y63691968D01*
X14023049Y63892075D01*
X13567526Y64196445D01*
X13030200Y64303326D01*
X12492874Y64196445D01*
X12037351Y63892075D01*
X11732981Y63436552D01*
X11626100Y62899226D01*
X11626100Y62144974D01*
X11732981Y61607648D01*
X12037351Y61152125D01*
X12311900Y60968678D01*
X12311900Y57102936D01*
X12303787Y57097715D01*
X12194873Y56938315D01*
X12156556Y56749100D01*
X12156556Y55849100D01*
X12189817Y55672335D01*
X12294285Y55509987D01*
X12356852Y55467237D01*
X12125060Y55235444D01*
X11692900Y55235444D01*
X11516135Y55202183D01*
X11353787Y55097715D01*
X11244873Y54938315D01*
X11206556Y54749100D01*
X11206556Y54561115D01*
X11190956Y54639542D01*
X11032495Y54876695D01*
X10473044Y55436146D01*
X10473044Y56288700D01*
X10439783Y56465465D01*
X10335315Y56627813D01*
X10175915Y56736727D01*
X9986700Y56775044D01*
X8486700Y56775044D01*
X8309935Y56741783D01*
X8147587Y56637315D01*
X8038673Y56477915D01*
X8000356Y56288700D01*
X8000356Y54988700D01*
X8033617Y54811935D01*
X8138085Y54649587D01*
X8297485Y54540673D01*
X8486700Y54502356D01*
X9339254Y54502356D01*
X9784600Y54057010D01*
X9784600Y52312803D01*
X9612625Y52197893D01*
X9335806Y51783605D01*
X9245600Y51330109D01*
X9155394Y51783605D01*
X8878575Y52197893D01*
X8464287Y52474712D01*
X7975600Y52571918D01*
X7486913Y52474712D01*
X7072625Y52197893D01*
X6795806Y51783605D01*
X6779419Y51701224D01*
X6583530Y52117610D01*
X6171744Y52492376D01*
X5779487Y52654844D01*
X5558600Y52534181D01*
X5558600Y51392900D01*
X5578600Y51392900D01*
X5578600Y51146900D01*
X5558600Y51146900D01*
X5558600Y50005619D01*
X5635514Y49963604D01*
X1489705Y45817795D01*
X1331244Y45580642D01*
X1275600Y45300900D01*
X1275600Y40805801D01*
X967007Y40497747D01*
X779814Y40046936D01*
X779388Y39558805D01*
X695600Y39558805D01*
X695600Y50926012D01*
X4050646Y50926012D01*
X4287670Y50422190D01*
X4699456Y50047424D01*
X5091713Y49884956D01*
X5312600Y50005619D01*
X5312600Y51146900D01*
X4170651Y51146900D01*
X4050646Y50926012D01*
X695600Y50926012D01*
X695600Y51613788D01*
X4050646Y51613788D01*
X4170651Y51392900D01*
X5312600Y51392900D01*
X5312600Y52534181D01*
X5091713Y52654844D01*
X4699456Y52492376D01*
X4287670Y52117610D01*
X4050646Y51613788D01*
X695600Y51613788D01*
X695600Y60913544D01*
X1867393Y60913544D01*
X2027248Y60596536D01*
X2814550Y60286431D01*
X3660594Y60301218D01*
X4373552Y60596536D01*
X4533407Y60913544D01*
X3200400Y62246552D01*
X1867393Y60913544D01*
X695600Y60913544D01*
X695600Y62806350D01*
X1066331Y62806350D01*
X1081118Y61960306D01*
X1376436Y61247348D01*
X1693444Y61087493D01*
X3026452Y62420500D01*
X3374348Y62420500D01*
X4707356Y61087493D01*
X5024364Y61247348D01*
X5334469Y62034650D01*
X5319682Y62880694D01*
X5024364Y63593652D01*
X4707356Y63753507D01*
X3374348Y62420500D01*
X3026452Y62420500D01*
X1693444Y63753507D01*
X1376436Y63593652D01*
X1066331Y62806350D01*
X695600Y62806350D01*
X695600Y63927456D01*
X1867393Y63927456D01*
X3200400Y62594448D01*
X4533407Y63927456D01*
X4373552Y64244464D01*
X3586250Y64554569D01*
X2740206Y64539782D01*
X2027248Y64244464D01*
X1867393Y63927456D01*
X695600Y63927456D01*
X695600Y67543000D01*
X37591600Y67543000D01*
X37591600Y647000D01*
G36*
X16468315Y47569651D02*
X16291937Y47393273D01*
X16196482Y47162824D01*
X16196482Y46567856D01*
X16353232Y46411106D01*
X17350482Y46411106D01*
X17350482Y46431106D01*
X17596482Y46431106D01*
X17596482Y46411106D01*
X18593732Y46411106D01*
X18679982Y46497356D01*
X18766232Y46411106D01*
X19763482Y46411106D01*
X19763482Y46431106D01*
X20009482Y46431106D01*
X20009482Y46411106D01*
X21006732Y46411106D01*
X21163482Y46567856D01*
X21163482Y47162824D01*
X21068027Y47393273D01*
X20891649Y47569651D01*
X20683184Y47656000D01*
X25964400Y47656000D01*
X25964400Y42729900D01*
X23850276Y42729900D01*
X23570534Y42674256D01*
X23442473Y42588688D01*
X23333381Y42515795D01*
X22547315Y41729729D01*
X22527697Y41743133D01*
X22338482Y41781450D01*
X20788482Y41781450D01*
X20611717Y41748189D01*
X20449369Y41643721D01*
X20340455Y41484321D01*
X20302138Y41295106D01*
X20302138Y40695106D01*
X20335399Y40518341D01*
X20358737Y40482073D01*
X20256937Y40380273D01*
X20161482Y40149824D01*
X20161482Y40004856D01*
X20318232Y39848106D01*
X21440482Y39848106D01*
X21440482Y39868106D01*
X21686482Y39868106D01*
X21686482Y39848106D01*
X22808732Y39848106D01*
X22965482Y40004856D01*
X22965482Y40149824D01*
X22912690Y40277276D01*
X23126224Y40319750D01*
X23363377Y40478211D01*
X24153066Y41267900D01*
X26392610Y41267900D01*
X32263600Y35396910D01*
X32263600Y9548390D01*
X31790110Y9074900D01*
X29423890Y9074900D01*
X28188400Y10310390D01*
X28188400Y11525200D01*
X28163943Y11648156D01*
X28132757Y11804941D01*
X27974295Y12042095D01*
X25744944Y14271446D01*
X25744944Y14724000D01*
X25711683Y14900765D01*
X25607215Y15063113D01*
X25447815Y15172027D01*
X25258600Y15210344D01*
X25139600Y15210344D01*
X25139600Y15914656D01*
X25258600Y15914656D01*
X25435365Y15947917D01*
X25597713Y16052385D01*
X25706627Y16211785D01*
X25744944Y16401000D01*
X25744944Y17401000D01*
X25711683Y17577765D01*
X25607215Y17740113D01*
X25447815Y17849027D01*
X25258600Y17887344D01*
X23558600Y17887344D01*
X23381835Y17854083D01*
X23274701Y17785144D01*
X23176815Y17852027D01*
X22987600Y17890344D01*
X21287600Y17890344D01*
X21110835Y17857083D01*
X20948487Y17752615D01*
X20839573Y17593215D01*
X20801256Y17404000D01*
X20801256Y16404000D01*
X20834517Y16227235D01*
X20938985Y16064887D01*
X21098385Y15955973D01*
X21287600Y15917656D01*
X21405100Y15917656D01*
X21405100Y15210344D01*
X21286100Y15210344D01*
X21109335Y15177083D01*
X20946987Y15072615D01*
X20838073Y14913215D01*
X20799756Y14724000D01*
X20799756Y13724000D01*
X20833017Y13547235D01*
X20937485Y13384887D01*
X21096885Y13275973D01*
X21286100Y13237656D01*
X22986100Y13237656D01*
X23162865Y13270917D01*
X23273033Y13341808D01*
X23369385Y13275973D01*
X23558600Y13237656D01*
X24711154Y13237656D01*
X26726400Y11222410D01*
X26726400Y10007600D01*
X26782044Y9727858D01*
X26894546Y9559487D01*
X26940505Y9490705D01*
X27356310Y9074900D01*
X21222543Y9074900D01*
X21216090Y9107341D01*
X21071394Y9323894D01*
X21071391Y9323896D01*
X17021982Y13373306D01*
X17025213Y13375385D01*
X17134127Y13534785D01*
X17172444Y13724000D01*
X17172444Y14724000D01*
X17139183Y14900765D01*
X17034715Y15063113D01*
X16875315Y15172027D01*
X16686100Y15210344D01*
X16567100Y15210344D01*
X16567100Y15917656D01*
X16687600Y15917656D01*
X16864365Y15950917D01*
X17026713Y16055385D01*
X17135627Y16214785D01*
X17173944Y16404000D01*
X17173944Y17404000D01*
X17140683Y17580765D01*
X17036215Y17743113D01*
X16876815Y17852027D01*
X16687600Y17890344D01*
X14987600Y17890344D01*
X14810835Y17857083D01*
X14697634Y17784240D01*
X14602815Y17849027D01*
X14413600Y17887344D01*
X12713600Y17887344D01*
X12536835Y17854083D01*
X12374487Y17749615D01*
X12265573Y17590215D01*
X12227256Y17401000D01*
X12227256Y16401000D01*
X12260517Y16224235D01*
X12364985Y16061887D01*
X12524385Y15952973D01*
X12713600Y15914656D01*
X12832600Y15914656D01*
X12832600Y15184944D01*
X12713600Y15184944D01*
X12536835Y15151683D01*
X12374487Y15047215D01*
X12265573Y14887815D01*
X12227256Y14698600D01*
X12227256Y13698600D01*
X12260517Y13521835D01*
X12364985Y13359487D01*
X12524385Y13250573D01*
X12713600Y13212256D01*
X14413600Y13212256D01*
X14590365Y13245517D01*
X14719677Y13328727D01*
X14796885Y13275973D01*
X14986100Y13237656D01*
X15300996Y13237656D01*
X15364106Y13143206D01*
X19432413Y9074900D01*
X12159090Y9074900D01*
X8021734Y13212256D01*
X8113600Y13212256D01*
X8290365Y13245517D01*
X8452713Y13349985D01*
X8561627Y13509385D01*
X8599944Y13698600D01*
X8599944Y14698600D01*
X8566683Y14875365D01*
X8462215Y15037713D01*
X8302815Y15146627D01*
X8113600Y15184944D01*
X7994600Y15184944D01*
X7994600Y15914656D01*
X8113600Y15914656D01*
X8290365Y15947917D01*
X8452713Y16052385D01*
X8561627Y16211785D01*
X8599944Y16401000D01*
X8599944Y17401000D01*
X8566683Y17577765D01*
X8462215Y17740113D01*
X8302815Y17849027D01*
X8113600Y17887344D01*
X6413600Y17887344D01*
X6236835Y17854083D01*
X6074487Y17749615D01*
X5965573Y17590215D01*
X5927256Y17401000D01*
X5927256Y16401000D01*
X5960517Y16224235D01*
X6064985Y16061887D01*
X6224385Y15952973D01*
X6413600Y15914656D01*
X6532600Y15914656D01*
X6532600Y15184944D01*
X6413600Y15184944D01*
X6236835Y15151683D01*
X6074487Y15047215D01*
X5965573Y14887815D01*
X5927256Y14698600D01*
X5927256Y13698600D01*
X5960517Y13521835D01*
X6064985Y13359487D01*
X6224385Y13250573D01*
X6413600Y13212256D01*
X6532600Y13212256D01*
X6532600Y12936600D01*
X6588244Y12656858D01*
X6660274Y12549058D01*
X6746705Y12419705D01*
X7781466Y11384944D01*
X6413600Y11384944D01*
X6236835Y11351683D01*
X6074487Y11247215D01*
X5965573Y11087815D01*
X5927256Y10898600D01*
X5927256Y9898600D01*
X5960517Y9721835D01*
X6016220Y9635270D01*
X4375900Y11275590D01*
X4375900Y21201000D01*
X5927256Y21201000D01*
X5927256Y20201000D01*
X5960517Y20024235D01*
X6064985Y19861887D01*
X6224385Y19752973D01*
X6413600Y19714656D01*
X8113600Y19714656D01*
X8290365Y19747917D01*
X8452713Y19852385D01*
X8561627Y20011785D01*
X8599944Y20201000D01*
X8599944Y21201000D01*
X8566683Y21377765D01*
X8462215Y21540113D01*
X8302815Y21649027D01*
X8113600Y21687344D01*
X6413600Y21687344D01*
X6236835Y21654083D01*
X6074487Y21549615D01*
X5965573Y21390215D01*
X5927256Y21201000D01*
X4375900Y21201000D01*
X4375900Y32547861D01*
X4663451Y32259807D01*
X5114262Y32072614D01*
X5602393Y32072188D01*
X6053529Y32258594D01*
X6398991Y32603453D01*
X6586184Y33054264D01*
X6586610Y33542395D01*
X6400204Y33993531D01*
X6166600Y34227543D01*
X6166600Y42606997D01*
X6338575Y42721907D01*
X6615394Y43136195D01*
X6705600Y43589691D01*
X6795806Y43136195D01*
X7072625Y42721907D01*
X7486913Y42445088D01*
X7975600Y42347882D01*
X8464287Y42445088D01*
X8878575Y42721907D01*
X9155394Y43136195D01*
X9245600Y43589691D01*
X9335806Y43136195D01*
X9612625Y42721907D01*
X10026913Y42445088D01*
X10515600Y42347882D01*
X10739326Y42392384D01*
X12653499Y40478211D01*
X12686581Y40456106D01*
X10859739Y40456106D01*
X10576547Y40739793D01*
X10125736Y40926986D01*
X9637605Y40927412D01*
X9186469Y40741006D01*
X8841007Y40396147D01*
X8653814Y39945336D01*
X8653388Y39457205D01*
X8839794Y39006069D01*
X9184653Y38660607D01*
X9635464Y38473414D01*
X10123595Y38472988D01*
X10574731Y38659394D01*
X10910028Y38994106D01*
X13369194Y38994106D01*
X13268912Y38927100D01*
X13268910Y38927097D01*
X10119806Y35777994D01*
X9975110Y35561442D01*
X9975110Y35561441D01*
X9924300Y35306000D01*
X9924300Y13258800D01*
X9975110Y13003358D01*
X10119806Y12786806D01*
X12227256Y10679356D01*
X12227256Y9898600D01*
X12260517Y9721835D01*
X12364985Y9559487D01*
X12524385Y9450573D01*
X12713600Y9412256D01*
X14413600Y9412256D01*
X14590365Y9445517D01*
X14719677Y9528727D01*
X14796885Y9475973D01*
X14986100Y9437656D01*
X16686100Y9437656D01*
X16862865Y9470917D01*
X17025213Y9575385D01*
X17134127Y9734785D01*
X17172444Y9924000D01*
X17172444Y10924000D01*
X17139183Y11100765D01*
X17034715Y11263113D01*
X16875315Y11372027D01*
X16686100Y11410344D01*
X14986100Y11410344D01*
X14809335Y11377083D01*
X14680023Y11293873D01*
X14602815Y11346627D01*
X14413600Y11384944D01*
X13409644Y11384944D01*
X11259300Y13535288D01*
X11259300Y22063053D01*
X11262806Y22057806D01*
X12227256Y21093356D01*
X12227256Y20201000D01*
X12260517Y20024235D01*
X12364985Y19861887D01*
X12524385Y19752973D01*
X12713600Y19714656D01*
X14413600Y19714656D01*
X14590365Y19747917D01*
X14703566Y19820760D01*
X14798385Y19755973D01*
X14987600Y19717656D01*
X16687600Y19717656D01*
X16864365Y19750917D01*
X17026713Y19855385D01*
X17135627Y20014785D01*
X17173944Y20204000D01*
X17173944Y21204000D01*
X17140683Y21380765D01*
X17036215Y21543113D01*
X16876815Y21652027D01*
X16687600Y21690344D01*
X14987600Y21690344D01*
X14810835Y21657083D01*
X14697634Y21584240D01*
X14602815Y21649027D01*
X14413600Y21687344D01*
X13521244Y21687344D01*
X12402300Y22806288D01*
X12402300Y26798356D01*
X14037482Y26798356D01*
X14037482Y26203388D01*
X14132937Y25972939D01*
X14309315Y25796561D01*
X14539764Y25701106D01*
X15034732Y25701106D01*
X15191482Y25857856D01*
X15191482Y26955106D01*
X14194232Y26955106D01*
X14037482Y26798356D01*
X12402300Y26798356D01*
X12402300Y27952824D01*
X14037482Y27952824D01*
X14037482Y27357856D01*
X14194232Y27201106D01*
X15191482Y27201106D01*
X15191482Y28298356D01*
X15034732Y28455106D01*
X14539764Y28455106D01*
X14309315Y28359651D01*
X14132937Y28183273D01*
X14037482Y27952824D01*
X12402300Y27952824D01*
X12402300Y34534212D01*
X13503444Y35635356D01*
X14761482Y35635356D01*
X14761482Y35490388D01*
X14848584Y35280106D01*
X14761482Y35069824D01*
X14761482Y34924856D01*
X14918232Y34768106D01*
X16040482Y34768106D01*
X16040482Y35792106D01*
X14918232Y35792106D01*
X14761482Y35635356D01*
X13503444Y35635356D01*
X14385694Y36517606D01*
X14835122Y36517606D01*
X14761482Y36339824D01*
X14761482Y36194856D01*
X14918232Y36038106D01*
X16040482Y36038106D01*
X16040482Y36058106D01*
X16286482Y36058106D01*
X16286482Y36038106D01*
X16306482Y36038106D01*
X16306482Y35792106D01*
X16286482Y35792106D01*
X16286482Y34768106D01*
X16306482Y34768106D01*
X16306482Y34522106D01*
X16286482Y34522106D01*
X16286482Y34502106D01*
X16040482Y34502106D01*
X16040482Y34522106D01*
X14918232Y34522106D01*
X14787954Y34391828D01*
X14549741Y34490743D01*
X14061610Y34491169D01*
X13610474Y34304763D01*
X13265012Y33959904D01*
X13077819Y33509093D01*
X13077393Y33020962D01*
X13263799Y32569826D01*
X13608658Y32224364D01*
X14059469Y32037171D01*
X14547600Y32036745D01*
X14998736Y32223151D01*
X15003700Y32228106D01*
X16040482Y32228106D01*
X16040482Y32248106D01*
X16286482Y32248106D01*
X16286482Y32228106D01*
X16306482Y32228106D01*
X16306482Y31982106D01*
X16286482Y31982106D01*
X16286482Y31962106D01*
X16040482Y31962106D01*
X16040482Y31982106D01*
X14918232Y31982106D01*
X14761482Y31825356D01*
X14761482Y31680388D01*
X14856937Y31449939D01*
X15033315Y31273561D01*
X15263764Y31178106D01*
X15794486Y31178106D01*
X15722182Y31129794D01*
X15606838Y31014450D01*
X14664482Y31014450D01*
X14487717Y30981189D01*
X14325369Y30876721D01*
X14216455Y30717321D01*
X14178138Y30528106D01*
X14178138Y29028106D01*
X14211399Y28851341D01*
X14315867Y28688993D01*
X14475267Y28580079D01*
X14664482Y28541762D01*
X15964482Y28541762D01*
X16141247Y28575023D01*
X16303595Y28679491D01*
X16412509Y28838891D01*
X16450826Y29028106D01*
X16450826Y29970462D01*
X16470664Y29990300D01*
X16496679Y29990300D01*
X16464138Y29829606D01*
X16464138Y28329606D01*
X16490664Y28188636D01*
X16319649Y28359651D01*
X16089200Y28455106D01*
X15594232Y28455106D01*
X15437482Y28298356D01*
X15437482Y27201106D01*
X15457482Y27201106D01*
X15457482Y26955106D01*
X15437482Y26955106D01*
X15437482Y25857856D01*
X15594232Y25701106D01*
X16089200Y25701106D01*
X16319649Y25796561D01*
X16323482Y25800394D01*
X16323482Y25504888D01*
X16418937Y25274439D01*
X16595315Y25098061D01*
X16825764Y25002606D01*
X17320732Y25002606D01*
X17477482Y25159356D01*
X17477482Y26256606D01*
X17723482Y26256606D01*
X17723482Y25159356D01*
X17880232Y25002606D01*
X18375200Y25002606D01*
X18605649Y25098061D01*
X18782027Y25274439D01*
X18870482Y25487988D01*
X18958937Y25274439D01*
X19135315Y25098061D01*
X19365764Y25002606D01*
X19860732Y25002606D01*
X20017482Y25159356D01*
X20017482Y26256606D01*
X19020232Y26256606D01*
X18870482Y26106856D01*
X18720732Y26256606D01*
X17723482Y26256606D01*
X17477482Y26256606D01*
X17457482Y26256606D01*
X17457482Y26502606D01*
X17477482Y26502606D01*
X17477482Y27599856D01*
X17723482Y27599856D01*
X17723482Y26502606D01*
X18720732Y26502606D01*
X18870482Y26652356D01*
X19020232Y26502606D01*
X20017482Y26502606D01*
X20017482Y27599856D01*
X19860732Y27756606D01*
X19365764Y27756606D01*
X19135315Y27661151D01*
X18958937Y27484773D01*
X18870482Y27271224D01*
X18782027Y27484773D01*
X18605649Y27661151D01*
X18375200Y27756606D01*
X17880232Y27756606D01*
X17723482Y27599856D01*
X17477482Y27599856D01*
X17320732Y27756606D01*
X16825764Y27756606D01*
X16595315Y27661151D01*
X16591482Y27657318D01*
X16591482Y27952824D01*
X16528927Y28103845D01*
X16601867Y27990493D01*
X16761267Y27881579D01*
X16950482Y27843262D01*
X18250482Y27843262D01*
X18427247Y27876523D01*
X18589595Y27980991D01*
X18698509Y28140391D01*
X18736826Y28329606D01*
X18736826Y29639274D01*
X19004138Y29371962D01*
X19004138Y28329606D01*
X19037399Y28152841D01*
X19141867Y27990493D01*
X19301267Y27881579D01*
X19490482Y27843262D01*
X20790482Y27843262D01*
X20967247Y27876523D01*
X21129595Y27980991D01*
X21209726Y28098266D01*
X21149482Y27952824D01*
X21149482Y27657318D01*
X21145649Y27661151D01*
X20915200Y27756606D01*
X20420232Y27756606D01*
X20263482Y27599856D01*
X20263482Y26502606D01*
X20283482Y26502606D01*
X20283482Y26256606D01*
X20263482Y26256606D01*
X20263482Y25159356D01*
X20420232Y25002606D01*
X20915200Y25002606D01*
X21145649Y25098061D01*
X21322027Y25274439D01*
X21417482Y25504888D01*
X21417482Y25800394D01*
X21421315Y25796561D01*
X21651764Y25701106D01*
X22146732Y25701106D01*
X22303482Y25857856D01*
X22303482Y26955106D01*
X22283482Y26955106D01*
X22283482Y27201106D01*
X22303482Y27201106D01*
X22303482Y28298356D01*
X22549482Y28298356D01*
X22549482Y27201106D01*
X23546732Y27201106D01*
X23703482Y27357856D01*
X23703482Y27952824D01*
X23608027Y28183273D01*
X23431649Y28359651D01*
X23201200Y28455106D01*
X22706232Y28455106D01*
X22549482Y28298356D01*
X22303482Y28298356D01*
X22146732Y28455106D01*
X21651764Y28455106D01*
X21421315Y28359651D01*
X21247766Y28186102D01*
X21276826Y28329606D01*
X21276826Y29829606D01*
X21243565Y30006371D01*
X21139097Y30168719D01*
X21032424Y30241606D01*
X21118994Y30241606D01*
X21290138Y30070462D01*
X21290138Y29028106D01*
X21323399Y28851341D01*
X21427867Y28688993D01*
X21587267Y28580079D01*
X21776482Y28541762D01*
X23076482Y28541762D01*
X23253247Y28575023D01*
X23415595Y28679491D01*
X23511971Y28820541D01*
X23703800Y28628713D01*
X23703800Y26298788D01*
X23703482Y26298470D01*
X23703482Y26798356D01*
X23546732Y26955106D01*
X22549482Y26955106D01*
X22549482Y25857856D01*
X22706232Y25701106D01*
X23106118Y25701106D01*
X18933606Y21528594D01*
X18788910Y21312042D01*
X18788910Y21312041D01*
X18738100Y21056600D01*
X18738100Y12804500D01*
X18788910Y12549058D01*
X18933606Y12332506D01*
X20799756Y10466356D01*
X20799756Y9924000D01*
X20833017Y9747235D01*
X20937485Y9584887D01*
X21096885Y9475973D01*
X21286100Y9437656D01*
X22986100Y9437656D01*
X23162865Y9470917D01*
X23273033Y9541808D01*
X23369385Y9475973D01*
X23558600Y9437656D01*
X25258600Y9437656D01*
X25435365Y9470917D01*
X25597713Y9575385D01*
X25706627Y9734785D01*
X25744944Y9924000D01*
X25744944Y10924000D01*
X25711683Y11100765D01*
X25607215Y11263113D01*
X25447815Y11372027D01*
X25258600Y11410344D01*
X23558600Y11410344D01*
X23381835Y11377083D01*
X23271667Y11306192D01*
X23175315Y11372027D01*
X22986100Y11410344D01*
X21743744Y11410344D01*
X20073100Y13080988D01*
X20073100Y20780112D01*
X24843294Y25550306D01*
X24987990Y25766858D01*
X25038800Y26022300D01*
X25038800Y28905195D01*
X25038801Y28905200D01*
X24987990Y29160641D01*
X24890789Y29306112D01*
X24843294Y29377194D01*
X24843291Y29377196D01*
X23970388Y30250100D01*
X23753836Y30394796D01*
X23562826Y30432790D01*
X23562826Y30528106D01*
X23529565Y30704871D01*
X23425097Y30867219D01*
X23265697Y30976133D01*
X23076482Y31014450D01*
X22234126Y31014450D01*
X21929814Y31318762D01*
X22338482Y31318762D01*
X22515247Y31352023D01*
X22677595Y31456491D01*
X22786509Y31615891D01*
X22824826Y31805106D01*
X22824826Y32405106D01*
X22791565Y32581871D01*
X22688363Y32742251D01*
X22786509Y32885891D01*
X22824826Y33075106D01*
X22824826Y33675106D01*
X22791565Y33851871D01*
X22688363Y34012251D01*
X22786509Y34155891D01*
X22824826Y34345106D01*
X22824826Y34865774D01*
X25329400Y32361200D01*
X25329400Y25720787D01*
X21665606Y22056994D01*
X21520910Y21840442D01*
X21491054Y21690344D01*
X21287600Y21690344D01*
X21110835Y21657083D01*
X20948487Y21552615D01*
X20839573Y21393215D01*
X20801256Y21204000D01*
X20801256Y20204000D01*
X20834517Y20027235D01*
X20938985Y19864887D01*
X21098385Y19755973D01*
X21287600Y19717656D01*
X22987600Y19717656D01*
X23164365Y19750917D01*
X23271499Y19819856D01*
X23369385Y19752973D01*
X23558600Y19714656D01*
X25258600Y19714656D01*
X25435365Y19747917D01*
X25597713Y19852385D01*
X25706627Y20011785D01*
X25744944Y20201000D01*
X25744944Y21201000D01*
X25711683Y21377765D01*
X25607215Y21540113D01*
X25447815Y21649027D01*
X25258600Y21687344D01*
X23558600Y21687344D01*
X23381835Y21654083D01*
X23274701Y21585144D01*
X23176815Y21652027D01*
X23153364Y21656776D01*
X26468891Y24972304D01*
X26468894Y24972306D01*
X26613590Y25188859D01*
X26664400Y25444300D01*
X26664400Y32637688D01*
X26613590Y32893130D01*
X26468894Y33109682D01*
X23191476Y36387100D01*
X23091195Y36454106D01*
X23472104Y36454106D01*
X27805900Y32120310D01*
X27805900Y13603700D01*
X27861544Y13323958D01*
X27933452Y13216341D01*
X28020005Y13086805D01*
X29722143Y11384667D01*
X29681835Y11377083D01*
X29519487Y11272615D01*
X29410573Y11113215D01*
X29372256Y10924000D01*
X29372256Y9924000D01*
X29405517Y9747235D01*
X29509985Y9584887D01*
X29669385Y9475973D01*
X29858600Y9437656D01*
X31558600Y9437656D01*
X31735365Y9470917D01*
X31897713Y9575385D01*
X32006627Y9734785D01*
X32044944Y9924000D01*
X32044944Y10924000D01*
X32011683Y11100765D01*
X31907215Y11263113D01*
X31747815Y11372027D01*
X31558600Y11410344D01*
X31439600Y11410344D01*
X31439600Y11432000D01*
X31428124Y11489695D01*
X31383957Y11711741D01*
X31225495Y11948895D01*
X29936734Y13237656D01*
X31558600Y13237656D01*
X31735365Y13270917D01*
X31897713Y13375385D01*
X32006627Y13534785D01*
X32044944Y13724000D01*
X32044944Y14724000D01*
X32011683Y14900765D01*
X31907215Y15063113D01*
X31747815Y15172027D01*
X31558600Y15210344D01*
X31439600Y15210344D01*
X31439600Y15914656D01*
X31558600Y15914656D01*
X31735365Y15947917D01*
X31897713Y16052385D01*
X32006627Y16211785D01*
X32044944Y16401000D01*
X32044944Y17401000D01*
X32011683Y17577765D01*
X31907215Y17740113D01*
X31747815Y17849027D01*
X31558600Y17887344D01*
X29858600Y17887344D01*
X29681835Y17854083D01*
X29519487Y17749615D01*
X29410573Y17590215D01*
X29372256Y17401000D01*
X29372256Y16401000D01*
X29405517Y16224235D01*
X29509985Y16061887D01*
X29669385Y15952973D01*
X29858600Y15914656D01*
X29977600Y15914656D01*
X29977600Y15210344D01*
X29858600Y15210344D01*
X29681835Y15177083D01*
X29519487Y15072615D01*
X29410573Y14913215D01*
X29372256Y14724000D01*
X29372256Y13802134D01*
X29267900Y13906490D01*
X29267900Y32423100D01*
X29212256Y32702842D01*
X29053795Y32939995D01*
X24291789Y37702001D01*
X24284189Y37707079D01*
X24258707Y37724106D01*
X24399204Y37724106D01*
X29977600Y32145710D01*
X29977600Y21687344D01*
X29858600Y21687344D01*
X29681835Y21654083D01*
X29519487Y21549615D01*
X29410573Y21390215D01*
X29372256Y21201000D01*
X29372256Y20201000D01*
X29405517Y20024235D01*
X29509985Y19861887D01*
X29669385Y19752973D01*
X29858600Y19714656D01*
X31558600Y19714656D01*
X31735365Y19747917D01*
X31897713Y19852385D01*
X32006627Y20011785D01*
X32044944Y20201000D01*
X32044944Y21201000D01*
X32011683Y21377765D01*
X31907215Y21540113D01*
X31747815Y21649027D01*
X31558600Y21687344D01*
X31439600Y21687344D01*
X31439600Y32448500D01*
X31415828Y32568010D01*
X31383957Y32728241D01*
X31225495Y32965395D01*
X25218889Y38972001D01*
X25211289Y38977079D01*
X24981736Y39130462D01*
X24701994Y39186106D01*
X22918145Y39186106D01*
X22965482Y39300388D01*
X22965482Y39445356D01*
X22808732Y39602106D01*
X21686482Y39602106D01*
X21686482Y39582106D01*
X21440482Y39582106D01*
X21440482Y39602106D01*
X20318232Y39602106D01*
X20161482Y39445356D01*
X20161482Y39300388D01*
X20248242Y39090931D01*
X20152041Y39071796D01*
X20053674Y39006069D01*
X19935488Y38927100D01*
X17501845Y36493457D01*
X17470027Y36570273D01*
X17369420Y36670880D01*
X17386509Y36695891D01*
X17406913Y36796647D01*
X19318794Y38708528D01*
X19463489Y38925080D01*
X19463490Y38925081D01*
X19514300Y39180522D01*
X19514300Y41140936D01*
X20358476Y41985112D01*
X20503171Y42201664D01*
X20503172Y42201665D01*
X20533028Y42351762D01*
X20536482Y42351762D01*
X20713247Y42385023D01*
X20875595Y42489491D01*
X20984509Y42648891D01*
X21022826Y42838106D01*
X21022826Y44338106D01*
X20989565Y44514871D01*
X20885097Y44677219D01*
X20725697Y44786133D01*
X20536482Y44824450D01*
X19236482Y44824450D01*
X19059717Y44791189D01*
X18897369Y44686721D01*
X18788455Y44527321D01*
X18750138Y44338106D01*
X18750138Y42838106D01*
X18783399Y42661341D01*
X18887867Y42498993D01*
X18945204Y42459816D01*
X18472900Y41987512D01*
X18472900Y42504573D01*
X18571509Y42648891D01*
X18609826Y42838106D01*
X18609826Y44338106D01*
X18576565Y44514871D01*
X18472097Y44677219D01*
X18312697Y44786133D01*
X18123482Y44824450D01*
X16823482Y44824450D01*
X16646717Y44791189D01*
X16484369Y44686721D01*
X16375455Y44527321D01*
X16337138Y44338106D01*
X16337138Y42838106D01*
X16370399Y42661341D01*
X16474867Y42498993D01*
X16634267Y42390079D01*
X16823482Y42351762D01*
X17137900Y42351762D01*
X17137900Y41736162D01*
X17127697Y41743133D01*
X16938482Y41781450D01*
X15388482Y41781450D01*
X15211717Y41748189D01*
X15177399Y41726106D01*
X13473184Y41726106D01*
X12800706Y42398584D01*
X13055600Y42347882D01*
X13544287Y42445088D01*
X13958575Y42721907D01*
X14235394Y43136195D01*
X14332600Y43624882D01*
X14332600Y43674918D01*
X14235394Y44163605D01*
X13958575Y44577893D01*
X13786600Y44692803D01*
X13786600Y45556910D01*
X14238046Y46008356D01*
X16196482Y46008356D01*
X16196482Y45413388D01*
X16291937Y45182939D01*
X16468315Y45006561D01*
X16698764Y44911106D01*
X17193732Y44911106D01*
X17350482Y45067856D01*
X17350482Y46165106D01*
X17596482Y46165106D01*
X17596482Y45067856D01*
X17753232Y44911106D01*
X18248200Y44911106D01*
X18478649Y45006561D01*
X18655027Y45182939D01*
X18679982Y45243186D01*
X18704937Y45182939D01*
X18881315Y45006561D01*
X19111764Y44911106D01*
X19606732Y44911106D01*
X19763482Y45067856D01*
X19763482Y46165106D01*
X20009482Y46165106D01*
X20009482Y45067856D01*
X20166232Y44911106D01*
X20661200Y44911106D01*
X20891649Y45006561D01*
X21068027Y45182939D01*
X21163482Y45413388D01*
X21163482Y46008356D01*
X21006732Y46165106D01*
X20009482Y46165106D01*
X19763482Y46165106D01*
X18766232Y46165106D01*
X18679982Y46078856D01*
X18593732Y46165106D01*
X17596482Y46165106D01*
X17350482Y46165106D01*
X16353232Y46165106D01*
X16196482Y46008356D01*
X14238046Y46008356D01*
X15885690Y47656000D01*
X16676780Y47656000D01*
X16468315Y47569651D01*
X16468315Y47569651D01*
G37*
X16468315Y47569651D02*
X16291937Y47393273D01*
X16196482Y47162824D01*
X16196482Y46567856D01*
X16353232Y46411106D01*
X17350482Y46411106D01*
X17350482Y46431106D01*
X17596482Y46431106D01*
X17596482Y46411106D01*
X18593732Y46411106D01*
X18679982Y46497356D01*
X18766232Y46411106D01*
X19763482Y46411106D01*
X19763482Y46431106D01*
X20009482Y46431106D01*
X20009482Y46411106D01*
X21006732Y46411106D01*
X21163482Y46567856D01*
X21163482Y47162824D01*
X21068027Y47393273D01*
X20891649Y47569651D01*
X20683184Y47656000D01*
X25964400Y47656000D01*
X25964400Y42729900D01*
X23850276Y42729900D01*
X23570534Y42674256D01*
X23442473Y42588688D01*
X23333381Y42515795D01*
X22547315Y41729729D01*
X22527697Y41743133D01*
X22338482Y41781450D01*
X20788482Y41781450D01*
X20611717Y41748189D01*
X20449369Y41643721D01*
X20340455Y41484321D01*
X20302138Y41295106D01*
X20302138Y40695106D01*
X20335399Y40518341D01*
X20358737Y40482073D01*
X20256937Y40380273D01*
X20161482Y40149824D01*
X20161482Y40004856D01*
X20318232Y39848106D01*
X21440482Y39848106D01*
X21440482Y39868106D01*
X21686482Y39868106D01*
X21686482Y39848106D01*
X22808732Y39848106D01*
X22965482Y40004856D01*
X22965482Y40149824D01*
X22912690Y40277276D01*
X23126224Y40319750D01*
X23363377Y40478211D01*
X24153066Y41267900D01*
X26392610Y41267900D01*
X32263600Y35396910D01*
X32263600Y9548390D01*
X31790110Y9074900D01*
X29423890Y9074900D01*
X28188400Y10310390D01*
X28188400Y11525200D01*
X28163943Y11648156D01*
X28132757Y11804941D01*
X27974295Y12042095D01*
X25744944Y14271446D01*
X25744944Y14724000D01*
X25711683Y14900765D01*
X25607215Y15063113D01*
X25447815Y15172027D01*
X25258600Y15210344D01*
X25139600Y15210344D01*
X25139600Y15914656D01*
X25258600Y15914656D01*
X25435365Y15947917D01*
X25597713Y16052385D01*
X25706627Y16211785D01*
X25744944Y16401000D01*
X25744944Y17401000D01*
X25711683Y17577765D01*
X25607215Y17740113D01*
X25447815Y17849027D01*
X25258600Y17887344D01*
X23558600Y17887344D01*
X23381835Y17854083D01*
X23274701Y17785144D01*
X23176815Y17852027D01*
X22987600Y17890344D01*
X21287600Y17890344D01*
X21110835Y17857083D01*
X20948487Y17752615D01*
X20839573Y17593215D01*
X20801256Y17404000D01*
X20801256Y16404000D01*
X20834517Y16227235D01*
X20938985Y16064887D01*
X21098385Y15955973D01*
X21287600Y15917656D01*
X21405100Y15917656D01*
X21405100Y15210344D01*
X21286100Y15210344D01*
X21109335Y15177083D01*
X20946987Y15072615D01*
X20838073Y14913215D01*
X20799756Y14724000D01*
X20799756Y13724000D01*
X20833017Y13547235D01*
X20937485Y13384887D01*
X21096885Y13275973D01*
X21286100Y13237656D01*
X22986100Y13237656D01*
X23162865Y13270917D01*
X23273033Y13341808D01*
X23369385Y13275973D01*
X23558600Y13237656D01*
X24711154Y13237656D01*
X26726400Y11222410D01*
X26726400Y10007600D01*
X26782044Y9727858D01*
X26894546Y9559487D01*
X26940505Y9490705D01*
X27356310Y9074900D01*
X21222543Y9074900D01*
X21216090Y9107341D01*
X21071394Y9323894D01*
X21071391Y9323896D01*
X17021982Y13373306D01*
X17025213Y13375385D01*
X17134127Y13534785D01*
X17172444Y13724000D01*
X17172444Y14724000D01*
X17139183Y14900765D01*
X17034715Y15063113D01*
X16875315Y15172027D01*
X16686100Y15210344D01*
X16567100Y15210344D01*
X16567100Y15917656D01*
X16687600Y15917656D01*
X16864365Y15950917D01*
X17026713Y16055385D01*
X17135627Y16214785D01*
X17173944Y16404000D01*
X17173944Y17404000D01*
X17140683Y17580765D01*
X17036215Y17743113D01*
X16876815Y17852027D01*
X16687600Y17890344D01*
X14987600Y17890344D01*
X14810835Y17857083D01*
X14697634Y17784240D01*
X14602815Y17849027D01*
X14413600Y17887344D01*
X12713600Y17887344D01*
X12536835Y17854083D01*
X12374487Y17749615D01*
X12265573Y17590215D01*
X12227256Y17401000D01*
X12227256Y16401000D01*
X12260517Y16224235D01*
X12364985Y16061887D01*
X12524385Y15952973D01*
X12713600Y15914656D01*
X12832600Y15914656D01*
X12832600Y15184944D01*
X12713600Y15184944D01*
X12536835Y15151683D01*
X12374487Y15047215D01*
X12265573Y14887815D01*
X12227256Y14698600D01*
X12227256Y13698600D01*
X12260517Y13521835D01*
X12364985Y13359487D01*
X12524385Y13250573D01*
X12713600Y13212256D01*
X14413600Y13212256D01*
X14590365Y13245517D01*
X14719677Y13328727D01*
X14796885Y13275973D01*
X14986100Y13237656D01*
X15300996Y13237656D01*
X15364106Y13143206D01*
X19432413Y9074900D01*
X12159090Y9074900D01*
X8021734Y13212256D01*
X8113600Y13212256D01*
X8290365Y13245517D01*
X8452713Y13349985D01*
X8561627Y13509385D01*
X8599944Y13698600D01*
X8599944Y14698600D01*
X8566683Y14875365D01*
X8462215Y15037713D01*
X8302815Y15146627D01*
X8113600Y15184944D01*
X7994600Y15184944D01*
X7994600Y15914656D01*
X8113600Y15914656D01*
X8290365Y15947917D01*
X8452713Y16052385D01*
X8561627Y16211785D01*
X8599944Y16401000D01*
X8599944Y17401000D01*
X8566683Y17577765D01*
X8462215Y17740113D01*
X8302815Y17849027D01*
X8113600Y17887344D01*
X6413600Y17887344D01*
X6236835Y17854083D01*
X6074487Y17749615D01*
X5965573Y17590215D01*
X5927256Y17401000D01*
X5927256Y16401000D01*
X5960517Y16224235D01*
X6064985Y16061887D01*
X6224385Y15952973D01*
X6413600Y15914656D01*
X6532600Y15914656D01*
X6532600Y15184944D01*
X6413600Y15184944D01*
X6236835Y15151683D01*
X6074487Y15047215D01*
X5965573Y14887815D01*
X5927256Y14698600D01*
X5927256Y13698600D01*
X5960517Y13521835D01*
X6064985Y13359487D01*
X6224385Y13250573D01*
X6413600Y13212256D01*
X6532600Y13212256D01*
X6532600Y12936600D01*
X6588244Y12656858D01*
X6660274Y12549058D01*
X6746705Y12419705D01*
X7781466Y11384944D01*
X6413600Y11384944D01*
X6236835Y11351683D01*
X6074487Y11247215D01*
X5965573Y11087815D01*
X5927256Y10898600D01*
X5927256Y9898600D01*
X5960517Y9721835D01*
X6016220Y9635270D01*
X4375900Y11275590D01*
X4375900Y21201000D01*
X5927256Y21201000D01*
X5927256Y20201000D01*
X5960517Y20024235D01*
X6064985Y19861887D01*
X6224385Y19752973D01*
X6413600Y19714656D01*
X8113600Y19714656D01*
X8290365Y19747917D01*
X8452713Y19852385D01*
X8561627Y20011785D01*
X8599944Y20201000D01*
X8599944Y21201000D01*
X8566683Y21377765D01*
X8462215Y21540113D01*
X8302815Y21649027D01*
X8113600Y21687344D01*
X6413600Y21687344D01*
X6236835Y21654083D01*
X6074487Y21549615D01*
X5965573Y21390215D01*
X5927256Y21201000D01*
X4375900Y21201000D01*
X4375900Y32547861D01*
X4663451Y32259807D01*
X5114262Y32072614D01*
X5602393Y32072188D01*
X6053529Y32258594D01*
X6398991Y32603453D01*
X6586184Y33054264D01*
X6586610Y33542395D01*
X6400204Y33993531D01*
X6166600Y34227543D01*
X6166600Y42606997D01*
X6338575Y42721907D01*
X6615394Y43136195D01*
X6705600Y43589691D01*
X6795806Y43136195D01*
X7072625Y42721907D01*
X7486913Y42445088D01*
X7975600Y42347882D01*
X8464287Y42445088D01*
X8878575Y42721907D01*
X9155394Y43136195D01*
X9245600Y43589691D01*
X9335806Y43136195D01*
X9612625Y42721907D01*
X10026913Y42445088D01*
X10515600Y42347882D01*
X10739326Y42392384D01*
X12653499Y40478211D01*
X12686581Y40456106D01*
X10859739Y40456106D01*
X10576547Y40739793D01*
X10125736Y40926986D01*
X9637605Y40927412D01*
X9186469Y40741006D01*
X8841007Y40396147D01*
X8653814Y39945336D01*
X8653388Y39457205D01*
X8839794Y39006069D01*
X9184653Y38660607D01*
X9635464Y38473414D01*
X10123595Y38472988D01*
X10574731Y38659394D01*
X10910028Y38994106D01*
X13369194Y38994106D01*
X13268912Y38927100D01*
X13268910Y38927097D01*
X10119806Y35777994D01*
X9975110Y35561442D01*
X9975110Y35561441D01*
X9924300Y35306000D01*
X9924300Y13258800D01*
X9975110Y13003358D01*
X10119806Y12786806D01*
X12227256Y10679356D01*
X12227256Y9898600D01*
X12260517Y9721835D01*
X12364985Y9559487D01*
X12524385Y9450573D01*
X12713600Y9412256D01*
X14413600Y9412256D01*
X14590365Y9445517D01*
X14719677Y9528727D01*
X14796885Y9475973D01*
X14986100Y9437656D01*
X16686100Y9437656D01*
X16862865Y9470917D01*
X17025213Y9575385D01*
X17134127Y9734785D01*
X17172444Y9924000D01*
X17172444Y10924000D01*
X17139183Y11100765D01*
X17034715Y11263113D01*
X16875315Y11372027D01*
X16686100Y11410344D01*
X14986100Y11410344D01*
X14809335Y11377083D01*
X14680023Y11293873D01*
X14602815Y11346627D01*
X14413600Y11384944D01*
X13409644Y11384944D01*
X11259300Y13535288D01*
X11259300Y22063053D01*
X11262806Y22057806D01*
X12227256Y21093356D01*
X12227256Y20201000D01*
X12260517Y20024235D01*
X12364985Y19861887D01*
X12524385Y19752973D01*
X12713600Y19714656D01*
X14413600Y19714656D01*
X14590365Y19747917D01*
X14703566Y19820760D01*
X14798385Y19755973D01*
X14987600Y19717656D01*
X16687600Y19717656D01*
X16864365Y19750917D01*
X17026713Y19855385D01*
X17135627Y20014785D01*
X17173944Y20204000D01*
X17173944Y21204000D01*
X17140683Y21380765D01*
X17036215Y21543113D01*
X16876815Y21652027D01*
X16687600Y21690344D01*
X14987600Y21690344D01*
X14810835Y21657083D01*
X14697634Y21584240D01*
X14602815Y21649027D01*
X14413600Y21687344D01*
X13521244Y21687344D01*
X12402300Y22806288D01*
X12402300Y26798356D01*
X14037482Y26798356D01*
X14037482Y26203388D01*
X14132937Y25972939D01*
X14309315Y25796561D01*
X14539764Y25701106D01*
X15034732Y25701106D01*
X15191482Y25857856D01*
X15191482Y26955106D01*
X14194232Y26955106D01*
X14037482Y26798356D01*
X12402300Y26798356D01*
X12402300Y27952824D01*
X14037482Y27952824D01*
X14037482Y27357856D01*
X14194232Y27201106D01*
X15191482Y27201106D01*
X15191482Y28298356D01*
X15034732Y28455106D01*
X14539764Y28455106D01*
X14309315Y28359651D01*
X14132937Y28183273D01*
X14037482Y27952824D01*
X12402300Y27952824D01*
X12402300Y34534212D01*
X13503444Y35635356D01*
X14761482Y35635356D01*
X14761482Y35490388D01*
X14848584Y35280106D01*
X14761482Y35069824D01*
X14761482Y34924856D01*
X14918232Y34768106D01*
X16040482Y34768106D01*
X16040482Y35792106D01*
X14918232Y35792106D01*
X14761482Y35635356D01*
X13503444Y35635356D01*
X14385694Y36517606D01*
X14835122Y36517606D01*
X14761482Y36339824D01*
X14761482Y36194856D01*
X14918232Y36038106D01*
X16040482Y36038106D01*
X16040482Y36058106D01*
X16286482Y36058106D01*
X16286482Y36038106D01*
X16306482Y36038106D01*
X16306482Y35792106D01*
X16286482Y35792106D01*
X16286482Y34768106D01*
X16306482Y34768106D01*
X16306482Y34522106D01*
X16286482Y34522106D01*
X16286482Y34502106D01*
X16040482Y34502106D01*
X16040482Y34522106D01*
X14918232Y34522106D01*
X14787954Y34391828D01*
X14549741Y34490743D01*
X14061610Y34491169D01*
X13610474Y34304763D01*
X13265012Y33959904D01*
X13077819Y33509093D01*
X13077393Y33020962D01*
X13263799Y32569826D01*
X13608658Y32224364D01*
X14059469Y32037171D01*
X14547600Y32036745D01*
X14998736Y32223151D01*
X15003700Y32228106D01*
X16040482Y32228106D01*
X16040482Y32248106D01*
X16286482Y32248106D01*
X16286482Y32228106D01*
X16306482Y32228106D01*
X16306482Y31982106D01*
X16286482Y31982106D01*
X16286482Y31962106D01*
X16040482Y31962106D01*
X16040482Y31982106D01*
X14918232Y31982106D01*
X14761482Y31825356D01*
X14761482Y31680388D01*
X14856937Y31449939D01*
X15033315Y31273561D01*
X15263764Y31178106D01*
X15794486Y31178106D01*
X15722182Y31129794D01*
X15606838Y31014450D01*
X14664482Y31014450D01*
X14487717Y30981189D01*
X14325369Y30876721D01*
X14216455Y30717321D01*
X14178138Y30528106D01*
X14178138Y29028106D01*
X14211399Y28851341D01*
X14315867Y28688993D01*
X14475267Y28580079D01*
X14664482Y28541762D01*
X15964482Y28541762D01*
X16141247Y28575023D01*
X16303595Y28679491D01*
X16412509Y28838891D01*
X16450826Y29028106D01*
X16450826Y29970462D01*
X16470664Y29990300D01*
X16496679Y29990300D01*
X16464138Y29829606D01*
X16464138Y28329606D01*
X16490664Y28188636D01*
X16319649Y28359651D01*
X16089200Y28455106D01*
X15594232Y28455106D01*
X15437482Y28298356D01*
X15437482Y27201106D01*
X15457482Y27201106D01*
X15457482Y26955106D01*
X15437482Y26955106D01*
X15437482Y25857856D01*
X15594232Y25701106D01*
X16089200Y25701106D01*
X16319649Y25796561D01*
X16323482Y25800394D01*
X16323482Y25504888D01*
X16418937Y25274439D01*
X16595315Y25098061D01*
X16825764Y25002606D01*
X17320732Y25002606D01*
X17477482Y25159356D01*
X17477482Y26256606D01*
X17723482Y26256606D01*
X17723482Y25159356D01*
X17880232Y25002606D01*
X18375200Y25002606D01*
X18605649Y25098061D01*
X18782027Y25274439D01*
X18870482Y25487988D01*
X18958937Y25274439D01*
X19135315Y25098061D01*
X19365764Y25002606D01*
X19860732Y25002606D01*
X20017482Y25159356D01*
X20017482Y26256606D01*
X19020232Y26256606D01*
X18870482Y26106856D01*
X18720732Y26256606D01*
X17723482Y26256606D01*
X17477482Y26256606D01*
X17457482Y26256606D01*
X17457482Y26502606D01*
X17477482Y26502606D01*
X17477482Y27599856D01*
X17723482Y27599856D01*
X17723482Y26502606D01*
X18720732Y26502606D01*
X18870482Y26652356D01*
X19020232Y26502606D01*
X20017482Y26502606D01*
X20017482Y27599856D01*
X19860732Y27756606D01*
X19365764Y27756606D01*
X19135315Y27661151D01*
X18958937Y27484773D01*
X18870482Y27271224D01*
X18782027Y27484773D01*
X18605649Y27661151D01*
X18375200Y27756606D01*
X17880232Y27756606D01*
X17723482Y27599856D01*
X17477482Y27599856D01*
X17320732Y27756606D01*
X16825764Y27756606D01*
X16595315Y27661151D01*
X16591482Y27657318D01*
X16591482Y27952824D01*
X16528927Y28103845D01*
X16601867Y27990493D01*
X16761267Y27881579D01*
X16950482Y27843262D01*
X18250482Y27843262D01*
X18427247Y27876523D01*
X18589595Y27980991D01*
X18698509Y28140391D01*
X18736826Y28329606D01*
X18736826Y29639274D01*
X19004138Y29371962D01*
X19004138Y28329606D01*
X19037399Y28152841D01*
X19141867Y27990493D01*
X19301267Y27881579D01*
X19490482Y27843262D01*
X20790482Y27843262D01*
X20967247Y27876523D01*
X21129595Y27980991D01*
X21209726Y28098266D01*
X21149482Y27952824D01*
X21149482Y27657318D01*
X21145649Y27661151D01*
X20915200Y27756606D01*
X20420232Y27756606D01*
X20263482Y27599856D01*
X20263482Y26502606D01*
X20283482Y26502606D01*
X20283482Y26256606D01*
X20263482Y26256606D01*
X20263482Y25159356D01*
X20420232Y25002606D01*
X20915200Y25002606D01*
X21145649Y25098061D01*
X21322027Y25274439D01*
X21417482Y25504888D01*
X21417482Y25800394D01*
X21421315Y25796561D01*
X21651764Y25701106D01*
X22146732Y25701106D01*
X22303482Y25857856D01*
X22303482Y26955106D01*
X22283482Y26955106D01*
X22283482Y27201106D01*
X22303482Y27201106D01*
X22303482Y28298356D01*
X22549482Y28298356D01*
X22549482Y27201106D01*
X23546732Y27201106D01*
X23703482Y27357856D01*
X23703482Y27952824D01*
X23608027Y28183273D01*
X23431649Y28359651D01*
X23201200Y28455106D01*
X22706232Y28455106D01*
X22549482Y28298356D01*
X22303482Y28298356D01*
X22146732Y28455106D01*
X21651764Y28455106D01*
X21421315Y28359651D01*
X21247766Y28186102D01*
X21276826Y28329606D01*
X21276826Y29829606D01*
X21243565Y30006371D01*
X21139097Y30168719D01*
X21032424Y30241606D01*
X21118994Y30241606D01*
X21290138Y30070462D01*
X21290138Y29028106D01*
X21323399Y28851341D01*
X21427867Y28688993D01*
X21587267Y28580079D01*
X21776482Y28541762D01*
X23076482Y28541762D01*
X23253247Y28575023D01*
X23415595Y28679491D01*
X23511971Y28820541D01*
X23703800Y28628713D01*
X23703800Y26298788D01*
X23703482Y26298470D01*
X23703482Y26798356D01*
X23546732Y26955106D01*
X22549482Y26955106D01*
X22549482Y25857856D01*
X22706232Y25701106D01*
X23106118Y25701106D01*
X18933606Y21528594D01*
X18788910Y21312042D01*
X18788910Y21312041D01*
X18738100Y21056600D01*
X18738100Y12804500D01*
X18788910Y12549058D01*
X18933606Y12332506D01*
X20799756Y10466356D01*
X20799756Y9924000D01*
X20833017Y9747235D01*
X20937485Y9584887D01*
X21096885Y9475973D01*
X21286100Y9437656D01*
X22986100Y9437656D01*
X23162865Y9470917D01*
X23273033Y9541808D01*
X23369385Y9475973D01*
X23558600Y9437656D01*
X25258600Y9437656D01*
X25435365Y9470917D01*
X25597713Y9575385D01*
X25706627Y9734785D01*
X25744944Y9924000D01*
X25744944Y10924000D01*
X25711683Y11100765D01*
X25607215Y11263113D01*
X25447815Y11372027D01*
X25258600Y11410344D01*
X23558600Y11410344D01*
X23381835Y11377083D01*
X23271667Y11306192D01*
X23175315Y11372027D01*
X22986100Y11410344D01*
X21743744Y11410344D01*
X20073100Y13080988D01*
X20073100Y20780112D01*
X24843294Y25550306D01*
X24987990Y25766858D01*
X25038800Y26022300D01*
X25038800Y28905195D01*
X25038801Y28905200D01*
X24987990Y29160641D01*
X24890789Y29306112D01*
X24843294Y29377194D01*
X24843291Y29377196D01*
X23970388Y30250100D01*
X23753836Y30394796D01*
X23562826Y30432790D01*
X23562826Y30528106D01*
X23529565Y30704871D01*
X23425097Y30867219D01*
X23265697Y30976133D01*
X23076482Y31014450D01*
X22234126Y31014450D01*
X21929814Y31318762D01*
X22338482Y31318762D01*
X22515247Y31352023D01*
X22677595Y31456491D01*
X22786509Y31615891D01*
X22824826Y31805106D01*
X22824826Y32405106D01*
X22791565Y32581871D01*
X22688363Y32742251D01*
X22786509Y32885891D01*
X22824826Y33075106D01*
X22824826Y33675106D01*
X22791565Y33851871D01*
X22688363Y34012251D01*
X22786509Y34155891D01*
X22824826Y34345106D01*
X22824826Y34865774D01*
X25329400Y32361200D01*
X25329400Y25720787D01*
X21665606Y22056994D01*
X21520910Y21840442D01*
X21491054Y21690344D01*
X21287600Y21690344D01*
X21110835Y21657083D01*
X20948487Y21552615D01*
X20839573Y21393215D01*
X20801256Y21204000D01*
X20801256Y20204000D01*
X20834517Y20027235D01*
X20938985Y19864887D01*
X21098385Y19755973D01*
X21287600Y19717656D01*
X22987600Y19717656D01*
X23164365Y19750917D01*
X23271499Y19819856D01*
X23369385Y19752973D01*
X23558600Y19714656D01*
X25258600Y19714656D01*
X25435365Y19747917D01*
X25597713Y19852385D01*
X25706627Y20011785D01*
X25744944Y20201000D01*
X25744944Y21201000D01*
X25711683Y21377765D01*
X25607215Y21540113D01*
X25447815Y21649027D01*
X25258600Y21687344D01*
X23558600Y21687344D01*
X23381835Y21654083D01*
X23274701Y21585144D01*
X23176815Y21652027D01*
X23153364Y21656776D01*
X26468891Y24972304D01*
X26468894Y24972306D01*
X26613590Y25188859D01*
X26664400Y25444300D01*
X26664400Y32637688D01*
X26613590Y32893130D01*
X26468894Y33109682D01*
X23191476Y36387100D01*
X23091195Y36454106D01*
X23472104Y36454106D01*
X27805900Y32120310D01*
X27805900Y13603700D01*
X27861544Y13323958D01*
X27933452Y13216341D01*
X28020005Y13086805D01*
X29722143Y11384667D01*
X29681835Y11377083D01*
X29519487Y11272615D01*
X29410573Y11113215D01*
X29372256Y10924000D01*
X29372256Y9924000D01*
X29405517Y9747235D01*
X29509985Y9584887D01*
X29669385Y9475973D01*
X29858600Y9437656D01*
X31558600Y9437656D01*
X31735365Y9470917D01*
X31897713Y9575385D01*
X32006627Y9734785D01*
X32044944Y9924000D01*
X32044944Y10924000D01*
X32011683Y11100765D01*
X31907215Y11263113D01*
X31747815Y11372027D01*
X31558600Y11410344D01*
X31439600Y11410344D01*
X31439600Y11432000D01*
X31428124Y11489695D01*
X31383957Y11711741D01*
X31225495Y11948895D01*
X29936734Y13237656D01*
X31558600Y13237656D01*
X31735365Y13270917D01*
X31897713Y13375385D01*
X32006627Y13534785D01*
X32044944Y13724000D01*
X32044944Y14724000D01*
X32011683Y14900765D01*
X31907215Y15063113D01*
X31747815Y15172027D01*
X31558600Y15210344D01*
X31439600Y15210344D01*
X31439600Y15914656D01*
X31558600Y15914656D01*
X31735365Y15947917D01*
X31897713Y16052385D01*
X32006627Y16211785D01*
X32044944Y16401000D01*
X32044944Y17401000D01*
X32011683Y17577765D01*
X31907215Y17740113D01*
X31747815Y17849027D01*
X31558600Y17887344D01*
X29858600Y17887344D01*
X29681835Y17854083D01*
X29519487Y17749615D01*
X29410573Y17590215D01*
X29372256Y17401000D01*
X29372256Y16401000D01*
X29405517Y16224235D01*
X29509985Y16061887D01*
X29669385Y15952973D01*
X29858600Y15914656D01*
X29977600Y15914656D01*
X29977600Y15210344D01*
X29858600Y15210344D01*
X29681835Y15177083D01*
X29519487Y15072615D01*
X29410573Y14913215D01*
X29372256Y14724000D01*
X29372256Y13802134D01*
X29267900Y13906490D01*
X29267900Y32423100D01*
X29212256Y32702842D01*
X29053795Y32939995D01*
X24291789Y37702001D01*
X24284189Y37707079D01*
X24258707Y37724106D01*
X24399204Y37724106D01*
X29977600Y32145710D01*
X29977600Y21687344D01*
X29858600Y21687344D01*
X29681835Y21654083D01*
X29519487Y21549615D01*
X29410573Y21390215D01*
X29372256Y21201000D01*
X29372256Y20201000D01*
X29405517Y20024235D01*
X29509985Y19861887D01*
X29669385Y19752973D01*
X29858600Y19714656D01*
X31558600Y19714656D01*
X31735365Y19747917D01*
X31897713Y19852385D01*
X32006627Y20011785D01*
X32044944Y20201000D01*
X32044944Y21201000D01*
X32011683Y21377765D01*
X31907215Y21540113D01*
X31747815Y21649027D01*
X31558600Y21687344D01*
X31439600Y21687344D01*
X31439600Y32448500D01*
X31415828Y32568010D01*
X31383957Y32728241D01*
X31225495Y32965395D01*
X25218889Y38972001D01*
X25211289Y38977079D01*
X24981736Y39130462D01*
X24701994Y39186106D01*
X22918145Y39186106D01*
X22965482Y39300388D01*
X22965482Y39445356D01*
X22808732Y39602106D01*
X21686482Y39602106D01*
X21686482Y39582106D01*
X21440482Y39582106D01*
X21440482Y39602106D01*
X20318232Y39602106D01*
X20161482Y39445356D01*
X20161482Y39300388D01*
X20248242Y39090931D01*
X20152041Y39071796D01*
X20053674Y39006069D01*
X19935488Y38927100D01*
X17501845Y36493457D01*
X17470027Y36570273D01*
X17369420Y36670880D01*
X17386509Y36695891D01*
X17406913Y36796647D01*
X19318794Y38708528D01*
X19463489Y38925080D01*
X19463490Y38925081D01*
X19514300Y39180522D01*
X19514300Y41140936D01*
X20358476Y41985112D01*
X20503171Y42201664D01*
X20503172Y42201665D01*
X20533028Y42351762D01*
X20536482Y42351762D01*
X20713247Y42385023D01*
X20875595Y42489491D01*
X20984509Y42648891D01*
X21022826Y42838106D01*
X21022826Y44338106D01*
X20989565Y44514871D01*
X20885097Y44677219D01*
X20725697Y44786133D01*
X20536482Y44824450D01*
X19236482Y44824450D01*
X19059717Y44791189D01*
X18897369Y44686721D01*
X18788455Y44527321D01*
X18750138Y44338106D01*
X18750138Y42838106D01*
X18783399Y42661341D01*
X18887867Y42498993D01*
X18945204Y42459816D01*
X18472900Y41987512D01*
X18472900Y42504573D01*
X18571509Y42648891D01*
X18609826Y42838106D01*
X18609826Y44338106D01*
X18576565Y44514871D01*
X18472097Y44677219D01*
X18312697Y44786133D01*
X18123482Y44824450D01*
X16823482Y44824450D01*
X16646717Y44791189D01*
X16484369Y44686721D01*
X16375455Y44527321D01*
X16337138Y44338106D01*
X16337138Y42838106D01*
X16370399Y42661341D01*
X16474867Y42498993D01*
X16634267Y42390079D01*
X16823482Y42351762D01*
X17137900Y42351762D01*
X17137900Y41736162D01*
X17127697Y41743133D01*
X16938482Y41781450D01*
X15388482Y41781450D01*
X15211717Y41748189D01*
X15177399Y41726106D01*
X13473184Y41726106D01*
X12800706Y42398584D01*
X13055600Y42347882D01*
X13544287Y42445088D01*
X13958575Y42721907D01*
X14235394Y43136195D01*
X14332600Y43624882D01*
X14332600Y43674918D01*
X14235394Y44163605D01*
X13958575Y44577893D01*
X13786600Y44692803D01*
X13786600Y45556910D01*
X14238046Y46008356D01*
X16196482Y46008356D01*
X16196482Y45413388D01*
X16291937Y45182939D01*
X16468315Y45006561D01*
X16698764Y44911106D01*
X17193732Y44911106D01*
X17350482Y45067856D01*
X17350482Y46165106D01*
X17596482Y46165106D01*
X17596482Y45067856D01*
X17753232Y44911106D01*
X18248200Y44911106D01*
X18478649Y45006561D01*
X18655027Y45182939D01*
X18679982Y45243186D01*
X18704937Y45182939D01*
X18881315Y45006561D01*
X19111764Y44911106D01*
X19606732Y44911106D01*
X19763482Y45067856D01*
X19763482Y46165106D01*
X20009482Y46165106D01*
X20009482Y45067856D01*
X20166232Y44911106D01*
X20661200Y44911106D01*
X20891649Y45006561D01*
X21068027Y45182939D01*
X21163482Y45413388D01*
X21163482Y46008356D01*
X21006732Y46165106D01*
X20009482Y46165106D01*
X19763482Y46165106D01*
X18766232Y46165106D01*
X18679982Y46078856D01*
X18593732Y46165106D01*
X17596482Y46165106D01*
X17350482Y46165106D01*
X16353232Y46165106D01*
X16196482Y46008356D01*
X14238046Y46008356D01*
X15885690Y47656000D01*
X16676780Y47656000D01*
X16468315Y47569651D01*
M02*
