G04 #@! TF.FileFunction,Copper,L1,Top,Signal*
%FSLAX46Y46*%
G04 Gerber Fmt 4.6, Leading zero omitted, Abs format (unit mm)*
G04 Created by KiCad (PCBNEW 4.0.7) date Mon Oct  9 23:37:59 2017*
%MOMM*%
%LPD*%
G01*
G04 APERTURE LIST*
%ADD10C,0.100000*%
%ADD11R,4.000000X0.600000*%
%ADD12C,1.778000*%
%ADD13C,0.304800*%
G04 APERTURE END LIST*
D10*
D11*
X144801100Y-104368600D03*
X144801100Y-105638600D03*
X144801100Y-106908600D03*
X144801100Y-103098600D03*
X152201100Y-104368600D03*
X152201100Y-105638600D03*
X152201100Y-106908600D03*
X152201100Y-103098600D03*
X144801100Y-101828600D03*
X144801100Y-108178600D03*
X152201100Y-108178600D03*
X152201100Y-101828600D03*
X152201100Y-100558600D03*
X152201100Y-109448600D03*
X144801100Y-100558600D03*
X144801100Y-109448600D03*
D12*
X140881100Y-96113600D03*
X140881100Y-98653600D03*
X140881100Y-101193600D03*
X140881100Y-103733600D03*
X140881100Y-106273600D03*
X140881100Y-108813600D03*
X140881100Y-111353600D03*
X140881100Y-113893600D03*
X156121100Y-96113600D03*
X156121100Y-98653600D03*
X156121100Y-101193600D03*
X156121100Y-103733600D03*
X156121100Y-106273600D03*
X156121100Y-108813600D03*
X156121100Y-111353600D03*
X156121100Y-113893600D03*
D13*
X144801100Y-100558600D02*
X144801100Y-98763600D01*
X144801100Y-98763600D02*
X142151100Y-96113600D01*
X142151100Y-96113600D02*
X140881100Y-96113600D01*
X144801100Y-101828600D02*
X142786100Y-101828600D01*
X142786100Y-101828600D02*
X142341600Y-101384100D01*
X142341600Y-101384100D02*
X142341600Y-98844100D01*
X142341600Y-98844100D02*
X142151100Y-98653600D01*
X142151100Y-98653600D02*
X140881100Y-98653600D01*
X144801100Y-103098600D02*
X142786100Y-103098600D01*
X142786100Y-103098600D02*
X140881100Y-101193600D01*
X144801100Y-104368600D02*
X141516100Y-104368600D01*
X141516100Y-104368600D02*
X140881100Y-103733600D01*
X144801100Y-106908600D02*
X142786100Y-106908600D01*
X142786100Y-106908600D02*
X140881100Y-108813600D01*
X144801100Y-108178600D02*
X142786100Y-108178600D01*
X142786100Y-108178600D02*
X142341600Y-108623100D01*
X142341600Y-108623100D02*
X142341600Y-111163100D01*
X142341600Y-111163100D02*
X142151100Y-111353600D01*
X142151100Y-111353600D02*
X140881100Y-111353600D01*
X144801100Y-109448600D02*
X144801100Y-111243600D01*
X144801100Y-111243600D02*
X142151100Y-113893600D01*
X142151100Y-113893600D02*
X140881100Y-113893600D01*
X152201100Y-100558600D02*
X152201100Y-98763600D01*
X152201100Y-98763600D02*
X154851100Y-96113600D01*
X154851100Y-96113600D02*
X156121100Y-96113600D01*
X152201100Y-101828600D02*
X154216100Y-101828600D01*
X154216100Y-101828600D02*
X154660600Y-101384100D01*
X154660600Y-101384100D02*
X154660600Y-98844100D01*
X154660600Y-98844100D02*
X154851100Y-98653600D01*
X154851100Y-98653600D02*
X156121100Y-98653600D01*
X152201100Y-103098600D02*
X154216100Y-103098600D01*
X154216100Y-103098600D02*
X156121100Y-101193600D01*
X152201100Y-104368600D02*
X155486100Y-104368600D01*
X155486100Y-104368600D02*
X156121100Y-103733600D01*
X152201100Y-105638600D02*
X155486100Y-105638600D01*
X155486100Y-105638600D02*
X156121100Y-106273600D01*
X152201100Y-106908600D02*
X154216100Y-106908600D01*
X154216100Y-106908600D02*
X156121100Y-108813600D01*
X152201100Y-108178600D02*
X154216100Y-108178600D01*
X154216100Y-108178600D02*
X154660600Y-108623100D01*
X154660600Y-108623100D02*
X154660600Y-111163100D01*
X154660600Y-111163100D02*
X154851100Y-111353600D01*
X154851100Y-111353600D02*
X156121100Y-111353600D01*
X152201100Y-109448600D02*
X152201100Y-111243600D01*
X152201100Y-111243600D02*
X154851100Y-113893600D01*
X154851100Y-113893600D02*
X156121100Y-113893600D01*
X144801100Y-105638600D02*
X141516100Y-105638600D01*
X141516100Y-105638600D02*
X140881100Y-106273600D01*
M02*
