G04 #@! TF.GenerationSoftware,KiCad,Pcbnew,(5.0-dev-4060-g28f1209ce)*
G04 #@! TF.CreationDate,2018-03-26T21:46:07+02:00*
G04 #@! TF.ProjectId,adafruit-smt-breakout-20-pin-SOICa-and-TSSOP,61646166727569742D736D742D627265,rev?*
G04 #@! TF.SameCoordinates,PX84416c0PY70ea400*
G04 #@! TF.FileFunction,Copper,L2,Bot,Signal*
G04 #@! TF.FilePolarity,Positive*
%FSLAX46Y46*%
G04 Gerber Fmt 4.6, Leading zero omitted, Abs format (unit mm)*
G04 Created by KiCad (PCBNEW (5.0-dev-4060-g28f1209ce)) date Mon Mar 26 21:46:07 2018*
%MOMM*%
%LPD*%
G01*
G04 APERTURE LIST*
%ADD10R,2.400000X0.350000*%
%ADD11C,1.778000*%
%ADD12C,0.304800*%
G04 APERTURE END LIST*
D10*
X6371100Y16321400D03*
X6371100Y15671400D03*
X13071100Y10471400D03*
X13071100Y11121400D03*
X6371100Y15021400D03*
X6371100Y14371400D03*
X13071100Y11771400D03*
X13071100Y12421400D03*
X13071100Y13071400D03*
X13071100Y16321400D03*
X6371100Y13721400D03*
X6371100Y10471400D03*
X13071100Y15671400D03*
X13071100Y15021400D03*
X13071100Y14371400D03*
X13071100Y13721400D03*
X6371100Y11121400D03*
X6371100Y11771400D03*
X6371100Y12421400D03*
X6371100Y13071400D03*
D11*
X2201100Y1966400D03*
X2201100Y4506400D03*
X2201100Y7046400D03*
X2201100Y9586400D03*
X2201100Y12126400D03*
X2201100Y14666400D03*
X2201100Y17206400D03*
X2201100Y19746400D03*
X2201100Y22286400D03*
X2201100Y24826400D03*
X17441100Y1966400D03*
X17441100Y4506400D03*
X17441100Y7046400D03*
X17441100Y9586400D03*
X17441100Y12126400D03*
X17441100Y14666400D03*
X17441100Y17206400D03*
X17441100Y19746400D03*
X17441100Y22286400D03*
X17441100Y24826400D03*
D12*
X3471100Y24826400D02*
X2201100Y24826400D01*
X6371100Y16321400D02*
X6371100Y21926400D01*
X6371100Y21926400D02*
X3471100Y24826400D01*
X6371100Y15671400D02*
X5006100Y15671400D01*
X5006100Y15671400D02*
X4741100Y15936400D01*
X4741100Y15936400D02*
X4741100Y21016400D01*
X4741100Y21016400D02*
X3471100Y22286400D01*
X3471100Y22286400D02*
X2201100Y22286400D01*
X6371100Y15021400D02*
X4703600Y15021400D01*
X4703600Y15021400D02*
X4106100Y15618900D01*
X4106100Y15618900D02*
X4106100Y19111400D01*
X4106100Y19111400D02*
X3471100Y19746400D01*
X3471100Y19746400D02*
X2201100Y19746400D01*
X6371100Y14371400D02*
X4401100Y14371400D01*
X4401100Y14371400D02*
X3471100Y15301400D01*
X3471100Y15301400D02*
X3471100Y15936400D01*
X3471100Y15936400D02*
X2201100Y17206400D01*
X6371100Y13721400D02*
X3146100Y13721400D01*
X3146100Y13721400D02*
X2201100Y14666400D01*
X6371100Y13071400D02*
X3146100Y13071400D01*
X3146100Y13071400D02*
X2201100Y12126400D01*
X6371100Y12421400D02*
X4401100Y12421400D01*
X4401100Y12421400D02*
X3471100Y11491400D01*
X3471100Y11491400D02*
X3471100Y10856400D01*
X3471100Y10856400D02*
X2201100Y9586400D01*
X6371100Y11771400D02*
X4703600Y11771400D01*
X4703600Y11771400D02*
X4106100Y11173900D01*
X4106100Y11173900D02*
X4106100Y7681400D01*
X4106100Y7681400D02*
X3471100Y7046400D01*
X3471100Y7046400D02*
X2201100Y7046400D01*
X6371100Y11121400D02*
X5006100Y11121400D01*
X5006100Y11121400D02*
X4741100Y10856400D01*
X4741100Y10856400D02*
X4741100Y5776400D01*
X4741100Y5776400D02*
X3471100Y4506400D01*
X3471100Y4506400D02*
X2201100Y4506400D01*
X3471100Y1966400D02*
X2201100Y1966400D01*
X3471100Y1966400D02*
X6371100Y4866400D01*
X6371100Y4866400D02*
X6371100Y10471400D01*
X16171100Y24826400D02*
X17441100Y24826400D01*
X13071100Y16321400D02*
X13071100Y21726400D01*
X13071100Y21726400D02*
X16171100Y24826400D01*
X13071100Y15671400D02*
X14636100Y15671400D01*
X14636100Y15671400D02*
X14901100Y15936400D01*
X14901100Y15936400D02*
X14901100Y21016400D01*
X14901100Y21016400D02*
X16171100Y22286400D01*
X16171100Y22286400D02*
X17441100Y22286400D01*
X13071100Y15021400D02*
X14938600Y15021400D01*
X14938600Y15021400D02*
X15536100Y15618900D01*
X15536100Y15618900D02*
X15536100Y19111400D01*
X15536100Y19111400D02*
X16171100Y19746400D01*
X16171100Y19746400D02*
X17441100Y19746400D01*
X13071100Y14371400D02*
X15241100Y14371400D01*
X15241100Y14371400D02*
X16171100Y15301400D01*
X16171100Y15301400D02*
X16171100Y15936400D01*
X16171100Y15936400D02*
X17441100Y17206400D01*
X13071100Y13721400D02*
X16496100Y13721400D01*
X16496100Y13721400D02*
X17441100Y14666400D01*
X13071100Y13071400D02*
X16496100Y13071400D01*
X16496100Y13071400D02*
X17441100Y12126400D01*
X13071100Y12421400D02*
X15241100Y12421400D01*
X15241100Y12421400D02*
X16171100Y11491400D01*
X16171100Y11491400D02*
X16171100Y10856400D01*
X16171100Y10856400D02*
X17441100Y9586400D01*
X13071100Y11771400D02*
X14938600Y11771400D01*
X14938600Y11771400D02*
X15536100Y11173900D01*
X15536100Y11173900D02*
X15536100Y7681400D01*
X15536100Y7681400D02*
X16171100Y7046400D01*
X16171100Y7046400D02*
X17441100Y7046400D01*
X13071100Y11121400D02*
X14636100Y11121400D01*
X14636100Y11121400D02*
X14901100Y10856400D01*
X14901100Y10856400D02*
X14901100Y5776400D01*
X14901100Y5776400D02*
X16171100Y4506400D01*
X16171100Y4506400D02*
X17441100Y4506400D01*
X16171100Y1966400D02*
X17441100Y1966400D01*
X16171100Y1966400D02*
X13071100Y5066400D01*
X13071100Y5066400D02*
X13071100Y10471400D01*
M02*
