M48
;DRILL file {KiCad (5.0-dev-4060-g28f1209ce)} date Mon Mar 26 21:46:34 2018
;FORMAT={-:-/ absolute / metric / decimal}
FMAT,2
METRIC,TZ
T1C1.016
%
G90
G05
M71
T1
X2.201Y24.826
X2.201Y22.286
X2.201Y19.746
X2.201Y17.206
X2.201Y14.666
X2.201Y12.126
X2.201Y9.586
X2.201Y7.046
X2.201Y4.506
X2.201Y1.966
X17.441Y24.826
X17.441Y22.286
X17.441Y19.746
X17.441Y17.206
X17.441Y14.666
X17.441Y12.126
X17.441Y9.586
X17.441Y7.046
X17.441Y4.506
X17.441Y1.966
T0
M30
